<svg width="250" height="250" viewBox="0 0 250 250" fill="none" xmlns="http://www.w3.org/2000/svg">
<g clip-path="url(#clip0_185_608)">
<path d="M117.188 19.5312V230.469C117.188 239.102 110.195 246.094 101.562 246.094C97.8906 246.094 94.4922 244.805 91.7969 242.656C89.1016 244.805 85.7031 246.094 82.0312 246.094C78.0469 246.094 74.4141 244.609 71.6406 242.109C71.2109 242.188 70.7422 242.188 70.3125 242.188C64.4922 242.188 59.4141 238.984 56.7188 234.258C48.9844 233.32 42.9688 226.758 42.9688 218.75C42.9688 218.594 42.9688 218.398 43.0078 218.242C37.3828 216.836 32.9688 212.344 31.6406 206.641C24.6875 205.039 19.5312 198.828 19.5312 191.406C19.5312 189.453 19.8828 187.617 20.5469 185.898C15.3125 183.398 11.7188 178.047 11.7188 171.875C11.7188 170.273 11.9531 168.75 12.3828 167.305C9.57031 164.453 7.8125 160.547 7.8125 156.25C7.8125 153.555 8.51562 151.016 9.6875 148.828C9.49219 148.672 9.33594 148.516 9.14062 148.359C7.10937 146.602 5.58594 144.297 4.72656 141.719C4.17969 140.156 3.90625 138.477 3.90625 136.719C3.90625 133.047 5.19531 129.648 7.34375 126.953C5.19531 124.258 3.90625 120.859 3.90625 117.188C3.90625 112.891 5.66406 108.984 8.47656 106.133C8.04688 104.688 7.8125 103.164 7.8125 101.562C7.8125 97.2656 9.57031 93.3594 12.3828 90.5078C12.3438 90.3906 12.3047 90.2344 12.2656 90.1172C11.9141 88.7891 11.7188 87.3828 11.7188 85.9375C11.7188 84.4922 11.9141 83.125 12.3047 81.7969C13.3984 77.7734 16.0938 74.375 19.6484 72.3438C20.2734 66.9531 23.6719 62.4219 28.3594 60.1953C27.6953 58.4766 27.3438 56.6406 27.3438 54.6875C27.3438 48.8281 30.5469 43.75 35.3125 41.0938C37.5781 39.8047 40.1953 39.0625 42.9688 39.0625C43.0078 30.3906 49.9609 23.4375 58.5938 23.4375C60.0391 23.4375 61.4844 23.6328 62.8125 24.0234C64.375 14.8047 72.3828 7.8125 82.0312 7.8125C84.7656 7.8125 87.3438 8.35938 89.7266 9.375C92.5391 6.01563 96.7969 3.90625 101.562 3.90625C110.195 3.90625 117.188 10.8984 117.188 19.5312Z" fill="#FFC14F"/>
<path d="M115.156 238.125C112.5 242.891 107.422 246.094 101.562 246.094C97.8906 246.094 94.4922 244.805 91.7969 242.656C89.1016 244.805 85.7031 246.094 82.0312 246.094C78.0469 246.094 74.4141 244.609 71.6406 242.109C71.2109 242.188 70.7422 242.188 70.3125 242.188C64.4922 242.188 59.4141 238.984 56.7188 234.258C48.9844 233.32 42.9688 226.758 42.9688 218.75C42.9688 218.594 42.9688 218.398 43.0078 218.242C37.3828 216.836 32.9688 212.344 31.6406 206.641C24.6875 205.039 19.5312 198.828 19.5312 191.406C19.5312 189.453 19.8828 187.617 20.5469 185.898C15.3125 183.398 11.7188 178.047 11.7188 171.875C11.7188 170.273 11.9531 168.75 12.3828 167.305C9.57031 164.453 7.8125 160.547 7.8125 156.25C7.8125 153.555 8.51562 151.016 9.6875 148.828C6.13281 145.977 3.90625 141.602 3.90625 136.719C3.90625 133.047 5.19531 129.648 7.34375 126.953C5.19531 124.258 3.90625 120.859 3.90625 117.188C3.90625 112.891 5.66406 108.984 8.47656 106.133C8.04688 104.688 7.8125 103.164 7.8125 101.562C7.8125 97.2656 9.57031 93.3594 12.3828 90.5078C11.9531 89.0625 11.7188 87.5391 11.7188 85.9375C11.7188 80.1172 14.9219 75.0391 19.6484 72.3438C20.2734 66.9531 23.6719 62.4219 28.3594 60.1953C27.6953 58.4766 27.3438 56.6406 27.3438 54.6875C27.3438 46.0547 34.3359 39.0625 42.9688 39.0625C42.9688 30.4297 49.9609 23.4375 58.5938 23.4375C59.2578 23.4375 59.9609 23.4766 60.625 23.5937C59.3359 25.8594 58.5938 28.4766 58.5938 31.25C49.9609 31.25 42.9688 38.2422 42.9688 46.875C42.9688 48.8281 43.3203 50.6641 43.9844 52.3828C39.2969 54.6094 35.8984 59.1406 35.2734 64.5312C30.5469 67.2266 27.3438 72.3047 27.3438 78.125C27.3438 79.7266 27.5781 81.25 28.0078 82.6953C25.1953 85.5469 23.4375 89.4531 23.4375 93.75C23.4375 95.3516 23.6719 96.875 24.1016 98.3203C21.2891 101.172 19.5312 105.078 19.5312 109.375C19.5312 113.047 20.8203 116.445 22.9688 119.141C20.8203 121.836 19.5312 125.234 19.5312 128.906C19.5312 133.789 21.7578 138.164 25.3125 141.016C24.1406 143.203 23.4375 145.742 23.4375 148.438C23.4375 152.734 25.1953 156.641 28.0078 159.492C27.5781 160.938 27.3438 162.461 27.3438 164.062C27.3438 170.234 30.9375 175.586 36.1719 178.086C35.5078 179.805 35.1562 181.641 35.1562 183.594C35.1562 191.016 40.3125 197.227 47.2656 198.828C48.5938 204.531 53.0078 209.023 58.6328 210.43C58.5938 210.586 58.5938 210.781 58.5938 210.938C58.5938 218.945 64.6094 225.508 72.3438 226.445C75.0391 231.172 80.1172 234.375 85.9375 234.375C86.3672 234.375 86.8359 234.375 87.2656 234.297C90.0391 236.797 93.6719 238.281 97.6562 238.281C101.328 238.281 104.727 236.992 107.422 234.844C109.609 236.602 112.266 237.773 115.156 238.125Z" fill="#FFB52D"/>
<path d="M152.344 19.5312C156.658 19.5312 160.156 16.0335 160.156 11.7188C160.156 7.40403 156.658 3.90625 152.344 3.90625C148.029 3.90625 144.531 7.40403 144.531 11.7188C144.531 16.0335 148.029 19.5312 152.344 19.5312Z" fill="#07A9F0"/>
<path d="M199.219 42.9688C203.533 42.9688 207.031 39.471 207.031 35.1562C207.031 30.8415 203.533 27.3438 199.219 27.3438C194.904 27.3438 191.406 30.8415 191.406 35.1562C191.406 39.471 194.904 42.9688 199.219 42.9688Z" fill="#07A9F0"/>
<path d="M199.219 74.2188C203.533 74.2188 207.031 70.721 207.031 66.4062C207.031 62.0915 203.533 58.5938 199.219 58.5938C194.904 58.5938 191.406 62.0915 191.406 66.4062C191.406 70.721 194.904 74.2188 199.219 74.2188Z" fill="#07A9F0"/>
<path d="M203.125 113.281C207.44 113.281 210.938 109.783 210.938 105.469C210.938 101.154 207.44 97.6562 203.125 97.6562C198.81 97.6562 195.312 101.154 195.312 105.469C195.312 109.783 198.81 113.281 203.125 113.281Z" fill="#07A9F0"/>
<path d="M238.281 105.469C242.596 105.469 246.094 101.971 246.094 97.6562C246.094 93.3415 242.596 89.8438 238.281 89.8438C233.967 89.8438 230.469 93.3415 230.469 97.6562C230.469 101.971 233.967 105.469 238.281 105.469Z" fill="#07A9F0"/>
<path d="M140.625 82.0312C144.94 82.0312 148.438 78.5335 148.438 74.2188C148.438 69.904 144.94 66.4062 140.625 66.4062C136.31 66.4062 132.812 69.904 132.812 74.2188C132.812 78.5335 136.31 82.0312 140.625 82.0312Z" fill="#07A9F0"/>
<path d="M164.062 113.281C168.377 113.281 171.875 109.783 171.875 105.469C171.875 101.154 168.377 97.6562 164.062 97.6562C159.748 97.6562 156.25 101.154 156.25 105.469C156.25 109.783 159.748 113.281 164.062 113.281Z" fill="#07A9F0"/>
<path d="M207.031 144.531C211.346 144.531 214.844 141.033 214.844 136.719C214.844 132.404 211.346 128.906 207.031 128.906C202.717 128.906 199.219 132.404 199.219 136.719C199.219 141.033 202.717 144.531 207.031 144.531Z" fill="#07A9F0"/>
<path d="M191.406 199.219C195.721 199.219 199.219 195.721 199.219 191.406C199.219 187.092 195.721 183.594 191.406 183.594C187.092 183.594 183.594 187.092 183.594 191.406C183.594 195.721 187.092 199.219 191.406 199.219Z" fill="#07A9F0"/>
<path d="M222.656 214.844C226.971 214.844 230.469 211.346 230.469 207.031C230.469 202.717 226.971 199.219 222.656 199.219C218.342 199.219 214.844 202.717 214.844 207.031C214.844 211.346 218.342 214.844 222.656 214.844Z" fill="#07A9F0"/>
<path d="M238.281 160.156C242.596 160.156 246.094 156.658 246.094 152.344C246.094 148.029 242.596 144.531 238.281 144.531C233.967 144.531 230.469 148.029 230.469 152.344C230.469 156.658 233.967 160.156 238.281 160.156Z" fill="#07A9F0"/>
<path d="M140.625 152.344C144.94 152.344 148.438 148.846 148.438 144.531C148.438 140.217 144.94 136.719 140.625 136.719C136.31 136.719 132.812 140.217 132.812 144.531C132.812 148.846 136.31 152.344 140.625 152.344Z" fill="#07A9F0"/>
<path d="M140.625 199.219C144.94 199.219 148.438 195.721 148.438 191.406C148.438 187.092 144.94 183.594 140.625 183.594C136.31 183.594 132.812 187.092 132.812 191.406C132.812 195.721 136.31 199.219 140.625 199.219Z" fill="#07A9F0"/>
<path d="M140.625 246.094C144.94 246.094 148.438 242.596 148.438 238.281C148.438 233.967 144.94 230.469 140.625 230.469C136.31 230.469 132.812 233.967 132.812 238.281C132.812 242.596 136.31 246.094 140.625 246.094Z" fill="#07A9F0"/>
<path d="M147.734 241.484C146.523 244.18 143.789 246.094 140.625 246.094C136.328 246.094 132.812 242.578 132.812 238.281C132.812 235.117 134.727 232.383 137.422 231.172C136.953 232.148 136.719 233.242 136.719 234.375C136.719 238.672 140.234 242.188 144.531 242.188C145.664 242.188 146.758 241.953 147.734 241.484ZM147.734 194.609C146.523 197.305 143.789 199.219 140.625 199.219C136.328 199.219 132.812 195.703 132.812 191.406C132.812 188.242 134.727 185.508 137.422 184.297C136.953 185.273 136.719 186.367 136.719 187.5C136.719 191.797 140.234 195.312 144.531 195.312C145.664 195.312 146.758 195.078 147.734 194.609ZM198.516 194.609C197.305 197.305 194.57 199.219 191.406 199.219C187.109 199.219 183.594 195.703 183.594 191.406C183.594 188.242 185.508 185.508 188.203 184.297C187.734 185.273 187.5 186.367 187.5 187.5C187.5 191.797 191.016 195.312 195.312 195.312C196.445 195.312 197.539 195.078 198.516 194.609ZM229.766 210.234C228.555 212.93 225.82 214.844 222.656 214.844C218.359 214.844 214.844 211.328 214.844 207.031C214.844 203.867 216.758 201.133 219.453 199.922C218.984 200.898 218.75 201.992 218.75 203.125C218.75 207.422 222.266 210.938 226.562 210.938C227.695 210.938 228.789 210.703 229.766 210.234ZM245.391 155.547C244.18 158.242 241.445 160.156 238.281 160.156C233.984 160.156 230.469 156.641 230.469 152.344C230.469 149.18 232.383 146.445 235.078 145.234C234.609 146.211 234.375 147.305 234.375 148.438C234.375 152.734 237.891 156.25 242.188 156.25C243.32 156.25 244.414 156.016 245.391 155.547ZM214.141 139.922C212.93 142.617 210.195 144.531 207.031 144.531C202.734 144.531 199.219 141.016 199.219 136.719C199.219 133.555 201.133 130.82 203.828 129.609C203.359 130.586 203.125 131.68 203.125 132.812C203.125 137.109 206.641 140.625 210.938 140.625C212.07 140.625 213.164 140.391 214.141 139.922ZM147.734 147.734C146.523 150.43 143.789 152.344 140.625 152.344C136.328 152.344 132.812 148.828 132.812 144.531C132.812 141.367 134.727 138.633 137.422 137.422C136.953 138.398 136.719 139.492 136.719 140.625C136.719 144.922 140.234 148.438 144.531 148.438C145.664 148.438 146.758 148.203 147.734 147.734ZM171.172 108.672C169.961 111.367 167.227 113.281 164.062 113.281C159.766 113.281 156.25 109.766 156.25 105.469C156.25 102.305 158.164 99.5703 160.859 98.3594C160.391 99.3359 160.156 100.43 160.156 101.562C160.156 105.859 163.672 109.375 167.969 109.375C169.102 109.375 170.195 109.141 171.172 108.672ZM210.234 108.672C209.023 111.367 206.289 113.281 203.125 113.281C198.828 113.281 195.312 109.766 195.312 105.469C195.312 102.305 197.227 99.5703 199.922 98.3594C199.453 99.3359 199.219 100.43 199.219 101.562C199.219 105.859 202.734 109.375 207.031 109.375C208.164 109.375 209.258 109.141 210.234 108.672ZM245.391 100.859C244.18 103.555 241.445 105.469 238.281 105.469C233.984 105.469 230.469 101.953 230.469 97.6562C230.469 94.4922 232.383 91.7578 235.078 90.5469C234.609 91.5234 234.375 92.6172 234.375 93.75C234.375 98.0469 237.891 101.562 242.188 101.562C243.32 101.562 244.414 101.328 245.391 100.859ZM206.328 69.6094C205.117 72.3047 202.383 74.2188 199.219 74.2188C194.922 74.2188 191.406 70.7031 191.406 66.4062C191.406 63.2422 193.32 60.5078 196.016 59.2969C195.547 60.2734 195.312 61.3672 195.312 62.5C195.312 66.7969 198.828 70.3125 203.125 70.3125C204.258 70.3125 205.352 70.0781 206.328 69.6094ZM147.734 77.4219C146.523 80.1172 143.789 82.0312 140.625 82.0312C136.328 82.0312 132.812 78.5156 132.812 74.2188C132.812 71.0547 134.727 68.3203 137.422 67.1094C136.953 68.0859 136.719 69.1797 136.719 70.3125C136.719 74.6094 140.234 78.125 144.531 78.125C145.664 78.125 146.758 77.8906 147.734 77.4219ZM206.328 38.3594C205.117 41.0547 202.383 42.9688 199.219 42.9688C194.922 42.9688 191.406 39.4531 191.406 35.1562C191.406 31.9922 193.32 29.2578 196.016 28.0469C195.547 29.0234 195.312 30.1172 195.312 31.25C195.312 35.5469 198.828 39.0625 203.125 39.0625C204.258 39.0625 205.352 38.8281 206.328 38.3594ZM159.453 14.9219C158.242 17.6172 155.508 19.5313 152.344 19.5313C148.047 19.5313 144.531 16.0156 144.531 11.7188C144.531 8.55469 146.445 5.82031 149.141 4.60938C148.672 5.58594 148.438 6.67969 148.438 7.8125C148.438 12.1094 151.953 15.625 156.25 15.625C157.383 15.625 158.477 15.3906 159.453 14.9219Z" fill="#0691CE"/>
<path d="M101.562 0C96.7578 0 92.1875 1.75781 88.6719 4.84375C86.5234 4.21875 84.2969 3.90625 82.0312 3.90625C71.9141 3.90625 63.1641 10.3125 59.9219 19.5703C59.4922 19.5312 59.0625 19.5312 58.5938 19.5312C49.0625 19.5312 41.0938 26.4062 39.375 35.4688C30.3125 37.1875 23.4375 45.1562 23.4375 54.6875C23.4375 55.9375 23.5547 57.1484 23.7891 58.3594C19.8438 61.1328 17.1094 65.2344 16.0938 70C10.9375 73.6328 7.8125 79.5703 7.8125 85.9375C7.8125 87.1094 7.92969 88.2812 8.125 89.4531C5.39062 92.8906 3.90625 97.1484 3.90625 101.562C3.90625 102.734 4.02344 103.906 4.21875 105.078C1.48438 108.516 0 112.773 0 117.188C0 120.625 0.9375 123.984 2.61719 126.953C0.9375 129.922 0 133.281 0 136.719C0 141.602 1.79687 146.25 5 149.766C4.29688 151.875 3.90625 154.062 3.90625 156.25C3.90625 160.664 5.39062 164.922 8.125 168.359C7.92969 169.531 7.8125 170.703 7.8125 171.875C7.8125 178.203 10.9375 184.102 15.9766 187.734C15.7422 188.906 15.625 190.156 15.625 191.406C15.625 199.766 20.8203 207.031 28.5156 209.805C30.3516 214.922 34.2188 218.984 39.2188 221.094C40.1953 229.258 46.25 236.016 54.375 237.812C58.0078 242.969 63.9453 246.094 70.3125 246.094H70.3516C76.4062 250.664 85.1562 251.211 91.7969 247.383C94.7656 249.062 98.125 250 101.562 250C112.344 250 121.094 241.25 121.094 230.469V19.5312C121.094 8.75 112.344 0 101.562 0ZM113.281 35.1562H85.9375C77.3047 35.1562 70.3125 42.1484 70.3125 50.7812C70.3125 52.9297 72.0703 54.6875 74.2188 54.6875C76.3672 54.6875 78.125 52.9297 78.125 50.7812C78.125 46.4844 81.6406 42.9688 85.9375 42.9688H113.281V121.094H42.9688C36.5234 121.094 31.25 115.82 31.25 109.375C31.25 107.227 29.4922 105.469 27.3438 105.469C25.1953 105.469 23.4375 107.227 23.4375 109.375C23.4375 120.156 32.1875 128.906 42.9688 128.906H113.281V136.719H85.9375C77.3047 136.719 70.3125 143.711 70.3125 152.344C70.3125 154.492 72.0703 156.25 74.2188 156.25C76.3672 156.25 78.125 154.492 78.125 152.344C78.125 148.047 81.6406 144.531 85.9375 144.531H113.281V230.469C113.281 236.914 108.008 242.188 101.562 242.188C98.9062 242.188 96.3672 241.289 94.2188 239.609C93.5156 239.023 92.6562 238.75 91.7969 238.75C90.9375 238.75 90.0781 239.023 89.375 239.609C84.9609 243.125 78.3594 242.891 74.2578 239.219C73.3984 238.438 72.1094 238.086 70.9375 238.281H70.625C66.3281 238.359 62.2656 236.094 60.1172 232.305C59.4922 231.25 58.3984 230.547 57.1875 230.391C51.3281 229.688 46.9141 224.727 46.875 218.789C47.1484 216.836 45.8984 214.961 43.9453 214.453C39.7656 213.398 36.4453 210 35.4297 205.742C35.1172 204.297 33.9844 203.164 32.5 202.852C27.1875 201.602 23.4375 196.914 23.4375 191.406C23.4375 189.961 23.6719 188.633 24.1797 187.305C24.9219 185.391 24.0625 183.242 22.2266 182.383C18.2031 180.469 15.625 176.328 15.625 171.875C15.625 170.703 15.7812 169.531 16.1328 168.438C16.5234 167.07 16.1719 165.586 15.1562 164.57C12.9297 162.305 11.7188 159.375 11.7188 156.25C11.7188 154.336 12.1875 152.383 13.125 150.664C13.125 150.664 13.125 150.625 13.1641 150.625C13.1641 150.586 13.2031 150.586 13.2031 150.547C13.6328 149.648 17.6953 141.953 25.7422 145.586C27.6953 146.484 30 145.586 30.8984 143.633C31.7969 141.68 30.9375 139.336 28.9453 138.477C20.1172 134.453 13.3984 138.125 9.41406 142.5C8.39844 140.742 7.8125 138.789 7.8125 136.719C7.8125 134.062 8.71094 131.523 10.3906 129.375C11.5234 127.969 11.5234 125.938 10.3906 124.531C8.71094 122.383 7.8125 119.844 7.8125 117.188C7.8125 114.062 9.02344 111.133 11.25 108.867C12.2656 107.852 12.6172 106.367 12.2266 105C11.875 103.906 11.7188 102.734 11.7188 101.562C11.7188 98.5156 12.8906 95.6641 15.0391 93.4375C16.6016 92.3438 24.5703 87.5 33.0078 93.0859C34.8047 94.2969 37.2266 93.7891 38.3984 91.9922C39.6094 90.2344 39.1016 87.7734 37.3047 86.6016C28.9844 81.0156 21.0156 82.3047 15.8594 84.2969C16.3672 80.7422 18.3984 77.5391 21.6016 75.7422C22.6562 75.1172 23.3984 74.0234 23.5156 72.8125C23.9844 68.9062 26.4844 65.4297 30.0391 63.7109C31.875 62.8516 32.7344 60.7031 31.9922 58.7891C31.4844 57.4609 31.25 56.1328 31.25 54.6875C31.25 49.375 34.8047 44.9219 39.6875 43.5156C41.0156 48.7891 44.8047 55.5078 53.4375 58.3984C53.8672 58.5156 54.2969 58.5938 54.6875 58.5938C56.3281 58.5938 57.8516 57.5781 58.3984 55.9375C59.0625 53.8672 57.9688 51.6797 55.9375 50.9766C47.1875 48.0859 46.875 39.5312 46.875 39.0625C46.875 32.5781 52.1484 27.3438 58.5938 27.3438C59.6875 27.3438 60.7422 27.5 61.7188 27.7734C62.7734 28.0859 63.9453 27.9297 64.8828 27.3438C65.8203 26.7578 66.4844 25.7812 66.6797 24.6875C67.9297 17.1875 74.4141 11.7188 82.0312 11.7188C84.1797 11.7188 86.25 12.1484 88.2031 12.9688C89.7656 13.6328 91.6016 13.2031 92.7344 11.875C94.8828 9.29688 98.125 7.8125 101.562 7.8125C108.008 7.8125 113.281 13.0859 113.281 19.5312V35.1562Z" fill="#000935"/>
<path d="M50.7812 109.375C61.5625 109.375 70.3125 100.625 70.3125 89.8438C70.3125 87.6953 68.5547 85.9375 66.4062 85.9375C64.2578 85.9375 62.5 87.6953 62.5 89.8438C62.5 96.2891 57.2266 101.562 50.7812 101.562C48.6328 101.562 46.875 103.32 46.875 105.469C46.875 107.617 48.6328 109.375 50.7812 109.375Z" fill="#000935"/>
<path d="M54.8047 79.375C57.7734 76.0937 61.9922 74.2188 66.4062 74.2188C75.0391 74.2188 82.0312 81.2109 82.0312 89.8438C82.0312 91.9922 83.7891 93.75 85.9375 93.75C88.0859 93.75 89.8438 91.9922 89.8438 89.8438C89.8438 76.9141 79.3359 66.4062 66.4062 66.4062C59.7656 66.4062 53.4375 69.2187 48.9844 74.1406C47.5391 75.7422 47.6562 78.2031 49.2578 79.6484C50.8594 81.0937 53.3203 80.9766 54.7656 79.375H54.8047ZM89.8438 109.375C89.8438 111.523 91.6016 113.281 93.75 113.281C95.8984 113.281 97.6562 111.523 97.6562 109.375C97.6562 107.227 99.4141 105.469 101.562 105.469C103.711 105.469 105.469 103.711 105.469 101.562C105.469 99.4141 103.711 97.6562 101.562 97.6562C95.1172 97.6562 89.8438 102.93 89.8438 109.375ZM89.8438 70.3125C91.9922 70.3125 93.75 68.5547 93.75 66.4062C93.75 64.2578 95.5078 62.5 97.6562 62.5C99.8047 62.5 101.562 60.7422 101.562 58.5938C101.562 56.4453 99.8047 54.6875 97.6562 54.6875C91.2109 54.6875 85.9375 59.9609 85.9375 66.4062C85.9375 68.5547 87.6953 70.3125 89.8438 70.3125ZM82.0312 195.312C79.8828 195.312 78.125 197.07 78.125 199.219C78.125 205.664 72.8516 210.938 66.4062 210.938C64.2578 210.938 62.5 212.695 62.5 214.844C62.5 216.992 64.2578 218.75 66.4062 218.75C77.1875 218.75 85.9375 210 85.9375 199.219C85.9375 197.07 84.1797 195.312 82.0312 195.312ZM50.7812 140.625C48.6328 140.625 46.875 142.383 46.875 144.531C46.875 150.977 41.6016 156.25 35.1562 156.25C33.0078 156.25 31.25 158.008 31.25 160.156C31.25 162.305 33.0078 164.062 35.1562 164.062C45.9375 164.062 54.6875 155.312 54.6875 144.531C54.6875 142.383 52.9297 140.625 50.7812 140.625ZM66.25 191.133C66.0156 186.719 67.6953 182.383 70.8203 179.258C76.7187 173.359 86.9922 173.359 92.9297 179.258C94.4531 180.781 96.9141 180.781 98.4375 179.258C99.9609 177.734 99.9609 175.273 98.4375 173.75C94.0234 169.336 88.125 166.875 81.875 166.875C75.625 166.875 69.7266 169.297 65.3125 173.75C60.625 178.438 58.125 184.922 58.4766 191.523C58.5938 193.594 60.3125 195.234 62.3828 195.234C62.4609 195.234 62.5391 195.234 62.5781 195.234C64.7266 195.117 66.4062 193.281 66.2891 191.133H66.25ZM97.6562 210.938C91.2109 210.938 85.9375 216.211 85.9375 222.656C85.9375 224.805 87.6953 226.562 89.8438 226.562C91.9922 226.562 93.75 224.805 93.75 222.656C93.75 220.508 95.5078 218.75 97.6562 218.75C99.8047 218.75 101.562 216.992 101.562 214.844C101.562 212.695 99.8047 210.938 97.6562 210.938ZM40.1953 175.313C38.6719 176.836 38.6719 179.297 40.1953 180.82C40.9375 181.562 41.3281 182.539 41.3281 183.594C41.3281 184.648 40.9375 185.625 40.1953 186.367C38.6719 187.891 38.6719 190.352 40.1953 191.875C40.9766 192.656 41.9531 193.008 42.9688 193.008C43.9844 193.008 44.9609 192.617 45.7422 191.875C47.9688 189.648 49.1797 186.719 49.1797 183.594C49.1797 180.469 47.9688 177.539 45.7422 175.313C44.2188 173.789 41.7578 173.789 40.2344 175.313H40.1953ZM199.219 54.6875C192.773 54.6875 187.5 59.9609 187.5 66.4062C187.5 72.8516 192.773 78.125 199.219 78.125C204.297 78.125 208.594 74.8438 210.234 70.3125H220.273L229.883 89.5312C227.852 91.6406 226.562 94.4922 226.562 97.6562C226.562 104.102 231.836 109.375 238.281 109.375C244.727 109.375 250 104.102 250 97.6562C250 91.2109 244.727 85.9375 238.281 85.9375C237.812 85.9375 237.344 86.0156 236.875 86.0938L226.133 64.6875C225.469 63.3594 224.102 62.5391 222.656 62.5391H210.234C208.633 58.0078 204.336 54.7266 199.219 54.7266V54.6875ZM242.188 97.6562C242.188 99.8047 240.43 101.562 238.281 101.562C236.133 101.562 234.375 99.8047 234.375 97.6562C234.375 95.5078 236.133 93.75 238.281 93.75C240.43 93.75 242.188 95.5078 242.188 97.6562ZM199.219 70.3125C197.07 70.3125 195.312 68.5547 195.312 66.4062C195.312 64.2578 197.07 62.5 199.219 62.5C201.367 62.5 203.125 64.2578 203.125 66.4062C203.125 68.5547 201.367 70.3125 199.219 70.3125ZM140.625 85.9375C145.703 85.9375 150 82.6562 151.641 78.125H170.273L192.578 100.43C191.836 101.953 191.406 103.633 191.406 105.469C191.406 111.914 196.68 117.188 203.125 117.188C209.57 117.188 214.844 111.914 214.844 105.469C214.844 99.0234 209.57 93.75 203.125 93.75C201.328 93.75 199.648 94.1797 198.086 94.9219L174.609 71.4453C173.867 70.7031 172.891 70.3125 171.836 70.3125H151.602C150 65.7812 145.703 62.5 140.586 62.5C134.141 62.5 128.867 67.7734 128.867 74.2188C128.867 80.6641 134.141 85.9375 140.586 85.9375H140.625ZM207.031 105.469C207.031 107.617 205.273 109.375 203.125 109.375C200.977 109.375 199.219 107.617 199.219 105.469C199.219 104.414 199.648 103.437 200.352 102.734C200.352 102.734 200.352 102.734 200.391 102.734C200.43 102.734 200.391 102.734 200.391 102.695C201.094 101.992 202.031 101.562 203.125 101.562C205.273 101.562 207.031 103.32 207.031 105.469ZM140.625 70.3125C142.773 70.3125 144.531 72.0703 144.531 74.2188C144.531 76.3672 142.773 78.125 140.625 78.125C138.477 78.125 136.719 76.3672 136.719 74.2188C136.719 72.0703 138.477 70.3125 140.625 70.3125ZM191.406 179.688C186.328 179.688 182.031 182.969 180.391 187.5H164.062C161.914 187.5 160.156 189.258 160.156 191.406V210.938H136.719C134.57 210.938 132.812 212.695 132.812 214.844C132.812 216.992 134.57 218.75 136.719 218.75H164.062C166.211 218.75 167.969 216.992 167.969 214.844V195.312H180.391C181.992 199.844 186.289 203.125 191.406 203.125C197.852 203.125 203.125 197.852 203.125 191.406C203.125 184.961 197.852 179.688 191.406 179.688ZM191.406 195.312C189.258 195.312 187.5 193.555 187.5 191.406C187.5 189.258 189.258 187.5 191.406 187.5C193.555 187.5 195.312 189.258 195.312 191.406C195.312 193.555 193.555 195.312 191.406 195.312ZM226.562 196.016V183.594C226.562 182.539 226.133 181.562 225.43 180.82L209.805 165.195C208.281 163.672 205.82 163.672 204.297 165.195C202.773 166.719 202.773 169.18 204.297 170.703L218.789 185.195V196.016C214.258 197.617 210.977 201.914 210.977 207.031C210.977 213.477 216.25 218.75 222.695 218.75C229.141 218.75 234.414 213.477 234.414 207.031C234.414 201.953 231.133 197.656 226.602 196.016H226.562ZM222.656 210.938C220.508 210.938 218.75 209.18 218.75 207.031C218.75 204.883 220.508 203.125 222.656 203.125C224.805 203.125 226.562 204.883 226.562 207.031C226.562 209.18 224.805 210.938 222.656 210.938ZM242.188 141.328V121.094C242.188 118.945 240.43 117.188 238.281 117.188C236.133 117.188 234.375 118.945 234.375 121.094V141.328C229.844 142.93 226.562 147.227 226.562 152.344C226.562 158.789 231.836 164.062 238.281 164.062C244.727 164.062 250 158.789 250 152.344C250 147.266 246.719 142.969 242.188 141.328ZM238.281 156.25C236.133 156.25 234.375 154.492 234.375 152.344C234.375 150.195 236.133 148.438 238.281 148.438C240.43 148.438 242.188 150.195 242.188 152.344C242.188 154.492 240.43 156.25 238.281 156.25ZM140.625 156.25C145.703 156.25 150 152.969 151.641 148.438H164.062C165.117 148.438 166.094 148.008 166.836 147.305L186.367 127.773C187.891 126.25 187.891 123.789 186.367 122.266C184.844 120.742 182.383 120.742 180.859 122.266L162.461 140.664H151.641C150.039 136.133 145.742 132.852 140.625 132.852C134.18 132.852 128.906 138.125 128.906 144.57C128.906 151.016 134.18 156.289 140.625 156.289V156.25ZM140.625 140.625C142.773 140.625 144.531 142.383 144.531 144.531C144.531 146.68 142.773 148.438 140.625 148.438C138.477 148.438 136.719 146.68 136.719 144.531C136.719 142.383 138.477 140.625 140.625 140.625Z" fill="#000935"/>
<path d="M140.625 203.125C147.07 203.125 152.344 197.852 152.344 191.406C152.344 186.328 149.062 182.031 144.531 180.391V171.875H175.781C176.836 171.875 177.812 171.445 178.555 170.742L202.031 147.266C203.555 148.008 205.234 148.438 207.07 148.438C213.516 148.438 218.789 143.164 218.789 136.719C218.789 130.273 213.516 125 207.07 125C200.625 125 195.352 130.273 195.352 136.719C195.352 138.516 195.781 140.195 196.523 141.758L174.219 164.062H140.664C138.516 164.062 136.758 165.82 136.758 167.969V180.391C132.227 181.992 128.945 186.289 128.945 191.406C128.945 197.852 134.219 203.125 140.664 203.125H140.625ZM207.031 132.812C209.18 132.812 210.938 134.57 210.938 136.719C210.938 138.867 209.18 140.625 207.031 140.625C205.977 140.625 205 140.195 204.297 139.492C204.297 139.492 204.297 139.492 204.297 139.453C204.297 139.414 204.297 139.453 204.258 139.453C203.555 138.75 203.125 137.812 203.125 136.719C203.125 134.57 204.883 132.812 207.031 132.812ZM140.625 187.5C142.773 187.5 144.531 189.258 144.531 191.406C144.531 193.555 142.773 195.312 140.625 195.312C138.477 195.312 136.719 193.555 136.719 191.406C136.719 189.258 138.477 187.5 140.625 187.5ZM132.812 39.0625H152.344C154.492 39.0625 156.25 37.3047 156.25 35.1562V22.7344C160.781 21.1328 164.062 16.8359 164.062 11.7188C164.062 5.27344 158.789 0 152.344 0C145.898 0 140.625 5.27344 140.625 11.7188C140.625 16.7969 143.906 21.0938 148.438 22.7344V31.25H132.812C130.664 31.25 128.906 33.0078 128.906 35.1562C128.906 37.3047 130.664 39.0625 132.812 39.0625ZM152.344 7.8125C154.492 7.8125 156.25 9.57031 156.25 11.7188C156.25 13.8672 154.492 15.625 152.344 15.625C150.195 15.625 148.438 13.8672 148.438 11.7188C148.438 9.57031 150.195 7.8125 152.344 7.8125Z" fill="#000935"/>
<path d="M132.812 54.6875H164.062C165.273 54.6875 166.445 54.1016 167.187 53.125L177.734 39.0625H188.203C189.805 43.5938 194.102 46.875 199.219 46.875C205.664 46.875 210.938 41.6016 210.938 35.1562C210.938 28.7109 205.664 23.4375 199.219 23.4375C194.141 23.4375 189.844 26.7188 188.203 31.25H175.781C174.57 31.25 173.398 31.8359 172.656 32.8125L162.109 46.875H132.812C130.664 46.875 128.906 48.6328 128.906 50.7812C128.906 52.9297 130.664 54.6875 132.812 54.6875ZM199.219 31.25C201.367 31.25 203.125 33.0078 203.125 35.1562C203.125 37.3047 201.367 39.0625 199.219 39.0625C197.07 39.0625 195.312 37.3047 195.312 35.1562C195.312 33.0078 197.07 31.25 199.219 31.25ZM132.812 109.375H153.047C154.648 113.906 158.945 117.188 164.062 117.188C170.508 117.188 175.781 111.914 175.781 105.469C175.781 99.0234 170.508 93.75 164.062 93.75C158.984 93.75 154.688 97.0312 153.047 101.562H132.812C130.664 101.562 128.906 103.32 128.906 105.469C128.906 107.617 130.664 109.375 132.812 109.375ZM164.062 101.562C166.211 101.562 167.969 103.32 167.969 105.469C167.969 107.617 166.211 109.375 164.062 109.375C161.914 109.375 160.156 107.617 160.156 105.469C160.156 103.32 161.914 101.562 164.062 101.562ZM188.359 216.328L173.906 234.375H151.641C150.039 229.844 145.742 226.562 140.625 226.562C134.18 226.562 128.906 231.836 128.906 238.281C128.906 244.727 134.18 250 140.625 250C145.703 250 150 246.719 151.641 242.188H175.781C176.953 242.188 178.086 241.641 178.828 240.703L194.453 221.172C195.781 219.492 195.508 217.031 193.828 215.664C192.148 214.297 189.687 214.609 188.32 216.289L188.359 216.328ZM140.625 242.188C138.477 242.188 136.719 240.43 136.719 238.281C136.719 236.133 138.477 234.375 140.625 234.375C142.773 234.375 144.531 236.133 144.531 238.281C144.531 240.43 142.773 242.188 140.625 242.188Z" fill="#000935"/>
</g>
<defs>
<clipPath id="clip0_185_608">
<rect width="250" height="250" fill="white"/>
</clipPath>
</defs>
</svg>
