<svg width="75" height="75" viewBox="0 0 75 75" fill="none" xmlns="http://www.w3.org/2000/svg">
<path d="M50.6033 16.136C52.1163 14.6229 54.5693 14.6229 56.0823 16.136L58.7473 18.8009C60.3246 20.3784 60.3246 22.9361 58.7473 24.5136L58.3921 24.8688C57.3339 25.9269 57.1317 27.5584 57.693 28.9455C58.2623 30.3519 59.5635 31.3658 61.0805 31.3658H61.5891C63.818 31.3658 65.625 33.1727 65.625 35.4016V39.0124C65.625 41.2414 63.818 43.0483 61.5891 43.0483H61.0805C59.5635 43.0483 58.2623 44.0621 57.693 45.4686C57.1317 46.8557 57.3339 48.4871 58.3921 49.5453L58.7473 49.9005C60.3246 51.478 60.3246 54.0356 58.7473 55.6131L56.0823 58.2781C54.5693 59.7914 52.1162 59.7914 50.6032 58.2781L50.3916 58.0665C49.2662 56.9411 47.5188 56.755 46.0584 57.3878C44.6443 58.0005 43.6342 59.3279 43.6342 60.8689V61.1602C43.6342 63.3023 41.8976 65.0391 39.7552 65.0391H35.6017C33.5859 65.0391 31.9516 63.4049 31.9516 61.3887C31.9516 59.7141 30.8054 58.2863 29.2467 57.6733C27.7394 57.0806 25.967 57.2938 24.8217 58.4391C23.3977 59.8635 21.0887 59.8635 19.6646 58.4391L16.4481 55.2226C15.0863 53.8608 15.0863 51.6529 16.4481 50.291C17.5733 49.1659 17.7662 47.4322 17.1325 45.9727C17.0732 45.8362 17.0153 45.6991 16.959 45.5616C16.3635 44.1098 15.0146 43.0483 13.4454 43.0483C11.521 43.0483 9.96094 41.4882 9.96094 39.5638V34.8502C9.96094 32.9258 11.521 31.3657 13.4454 31.3657C15.0146 31.3657 16.3635 30.3043 16.959 28.8524C17.0153 28.7149 17.0732 28.5779 17.1325 28.4413C17.7662 26.9818 17.5733 25.2482 16.4481 24.123C15.0863 22.7612 15.0863 20.5532 16.4481 19.1914L19.6646 15.9749C21.0887 14.5509 23.3977 14.5509 24.8217 15.9749C25.967 17.1202 27.7395 17.3334 29.2468 16.7407C30.8054 16.1278 31.9517 14.6999 31.9517 13.0251C31.9517 11.0092 33.5859 9.375 35.6018 9.375H39.7553C41.8976 9.375 43.6343 11.1117 43.6343 13.254V13.5449C43.6343 15.0861 44.6444 16.4135 46.0585 17.0262C47.5189 17.659 49.2662 17.473 50.3916 16.3476L50.6033 16.136Z" stroke="black" stroke-width="6"/>
<path d="M26.9531 45.1172L34.0376 30.0072C34.0733 29.9313 34.1496 29.8828 34.2334 29.8828C34.3194 29.8828 34.3972 29.9338 34.4316 30.0126L41.0156 45.1172M29.8828 41.0156H36.9141M47.4609 45.1172V29.8828" stroke="black" stroke-width="3" stroke-linecap="round"/>
</svg>
