<svg width="75" height="75" viewBox="0 0 75 75" fill="none" xmlns="http://www.w3.org/2000/svg">
<path d="M58.7914 18.8773L45.2702 5.35605H13.5723V69.6436H61.4281V21.514L58.7914 18.8773ZM16.209 67.0071V7.99291H45.2703V21.514H58.7915V67.0069L16.209 67.0071Z" fill="black"/>
<path d="M28.417 45.0763C28.417 44.1743 29.0847 43.5063 29.8062 43.5063C30.564 43.5063 31.1775 44.1016 31.1775 45.0763C31.1775 46.0323 30.6182 46.6459 29.7882 46.6459C29.0485 46.6459 28.417 46.0324 28.417 45.0763ZM34.7312 43.7229L34.1899 46.5016H31.8985L34.5324 34.3411H37.3653L39.7288 46.5016H37.4375L36.9146 43.7229H34.7312ZM36.6979 41.8828L36.3009 39.339C36.175 38.5989 36.0124 37.3903 35.9041 36.5783H35.8499C35.7238 37.3903 35.5432 38.6533 35.4169 39.357L34.9657 41.8828H36.6979ZM43.4271 34.3411V46.5016H41.0633V34.3411H43.4271Z" fill="black"/>
</svg>
