<svg width="440" height="400" viewBox="0 0 440 400" fill="none" xmlns="http://www.w3.org/2000/svg">
<g filter="url(#filter0_b_291_35)">
<path d="M85.1455 50.8228C85.1455 68.6741 70.6741 83.1455 52.8228 83.1455C34.9714 83.1455 20.5 68.6741 20.5 50.8228C20.5 32.9714 34.9714 18.5 52.8228 18.5C70.6741 18.5 85.1455 32.9714 85.1455 50.8228Z" stroke="black"/>
</g>
<g filter="url(#filter1_b_291_35)">
<path d="M85.1455 152.354C85.1455 170.206 70.6741 184.677 52.8228 184.677C34.9714 184.677 20.5 170.206 20.5 152.354C20.5 134.503 34.9714 120.032 52.8228 120.032C70.6741 120.032 85.1455 134.503 85.1455 152.354Z" stroke="black"/>
</g>
<g filter="url(#filter2_b_291_35)">
<path d="M85.1455 253.886C85.1455 271.738 70.6741 286.209 52.8228 286.209C34.9714 286.209 20.5 271.738 20.5 253.886C20.5 236.035 34.9714 221.563 52.8228 221.563C70.6741 221.563 85.1455 236.035 85.1455 253.886Z" stroke="black"/>
</g>
<g filter="url(#filter3_b_291_35)">
<path d="M272.454 196.993C272.454 214.845 257.983 229.316 240.131 229.316C222.28 229.316 207.809 214.845 207.809 196.993C207.809 179.142 222.28 164.671 240.131 164.671C257.983 164.671 272.454 179.142 272.454 196.993Z" stroke="black"/>
</g>
<g filter="url(#filter4_b_291_35)">
<path d="M419.5 196.993C419.5 214.845 405.029 229.316 387.177 229.316C369.326 229.316 354.854 214.845 354.854 196.993C354.854 179.142 369.326 164.671 387.177 164.671C405.029 164.671 419.5 179.142 419.5 196.993Z" stroke="black"/>
</g>
<path d="M392.312 200.144C390.656 201.229 388.719 201.807 386.74 201.807C384.76 201.807 382.823 201.229 381.167 200.144C379.032 201.148 377.206 202.709 375.883 204.663C374.56 206.616 373.787 208.89 373.647 211.246C373.641 211.345 373.655 211.446 373.689 211.54C373.723 211.634 373.775 211.72 373.844 211.793C373.913 211.865 373.995 211.922 374.087 211.961C374.178 212 374.277 212.019 374.376 212.019H399.139C399.239 212.019 399.337 212 399.429 211.961C399.521 211.922 399.603 211.865 399.672 211.793C399.74 211.72 399.793 211.634 399.827 211.54C399.861 211.446 399.875 211.345 399.869 211.246C399.725 208.886 398.947 206.61 397.617 204.656C396.287 202.702 394.454 201.143 392.312 200.144Z" fill="#42C3CF"/>
<path d="M386.74 200.348C391.574 200.348 395.493 196.43 395.493 191.596C395.493 186.762 391.574 182.843 386.74 182.843C381.906 182.843 377.987 186.762 377.987 191.596C377.987 196.43 381.906 200.348 386.74 200.348Z" fill="#42C3CF"/>
<path d="M85.6455 350.604C85.6455 350.604 140.061 315.121 165.279 281.205C186.72 252.371 207.309 197.431 207.309 197.431" stroke="url(#paint0_linear_291_35)" stroke-width="2"/>
<path d="M85.6455 51.2604C85.6455 51.2604 140.061 85.1211 165.279 117.487C186.72 145.003 207.309 197.431 207.309 197.431" stroke="url(#paint1_linear_291_35)" stroke-width="2"/>
<g filter="url(#filter5_b_291_35)">
<path d="M85.1455 350.166C85.1455 368.018 70.6741 382.489 52.8228 382.489C34.9714 382.489 20.5 368.018 20.5 350.166C20.5 332.315 34.9714 317.844 52.8228 317.844C70.6741 317.844 85.1455 332.315 85.1455 350.166Z" stroke="black"/>
</g>
<path d="M85.6455 249.072C85.6455 249.072 123.211 247.619 145.813 238.852C171.969 228.706 207.309 197.431 207.309 197.431" stroke="url(#paint2_linear_291_35)" stroke-width="2"/>
<path d="M85.6455 151.042C85.6455 151.042 123.211 152.347 145.813 160.223C171.969 169.337 207.309 197.431 207.309 197.431" stroke="url(#paint3_linear_291_35)" stroke-width="2"/>
<path d="M272.954 199.182H354.355" stroke="url(#paint4_linear_291_35)" stroke-width="2"/>
<g clip-path="url(#clip0_291_35)">
<path d="M68.1239 51.4735C68.1239 50.1891 68.0197 49.2519 67.7942 48.2799H53.1279V54.0769H61.7367C61.5632 55.5175 60.6259 57.6871 58.5431 59.145L58.5139 59.339L63.1511 62.9314L63.4724 62.9635C66.4229 60.2385 68.1239 56.2291 68.1239 51.4735Z" fill="#4285F4"/>
<path d="M53.1285 66.7472C57.346 66.7472 60.8867 65.3586 63.4729 62.9635L58.5437 59.145C57.2246 60.0649 55.4542 60.707 53.1285 60.707C48.9977 60.707 45.4917 57.9822 44.2419 54.2158L44.0587 54.2314L39.2369 57.963L39.1738 58.1383C41.7426 63.2411 47.0189 66.7472 53.1285 66.7472Z" fill="#34A853"/>
<path d="M44.2421 54.2157C43.9123 53.2438 43.7214 52.2023 43.7214 51.1263C43.7214 50.0501 43.9123 49.0088 44.2247 48.0368L44.216 47.8298L39.3337 44.0382L39.174 44.1142C38.1153 46.2317 37.5078 48.6096 37.5078 51.1263C37.5078 53.643 38.1153 56.0207 39.174 58.1382L44.2421 54.2157Z" fill="#FBBC05"/>
<path d="M53.1285 41.5455C56.0617 41.5455 58.0403 42.8125 59.1685 43.8713L63.577 39.5669C60.8695 37.0502 57.346 35.5055 53.1285 35.5055C47.0189 35.5055 41.7426 39.0115 39.1738 44.1142L44.2245 48.0369C45.4917 44.2705 48.9977 41.5455 53.1285 41.5455Z" fill="#EB4335"/>
</g>
<g clip-path="url(#clip1_291_35)">
<path d="M56.8185 167.672H67.2419C67.3948 167.672 67.5453 167.633 67.6789 167.558C67.8125 167.484 67.9248 167.376 68.0051 167.246C68.0855 167.116 68.1312 166.968 68.1379 166.815C68.1446 166.662 68.1121 166.51 68.0435 166.373C68.0435 166.373 54.0129 138.216 53.6593 137.516C53.3427 136.881 52.5347 136.87 52.1276 137.522C44.8097 149.094 51.6195 158.379 56.0169 167.169C56.0902 167.319 56.2042 167.446 56.3459 167.535C56.4875 167.623 56.6512 167.671 56.8185 167.672Z" fill="#0052CC"/>
<path d="M45.1287 151.347L37.6015 166.366C37.5336 166.503 37.5017 166.654 37.5088 166.807C37.5158 166.959 37.5616 167.108 37.6418 167.237C37.7221 167.367 37.834 167.475 37.9672 167.549C38.1004 167.624 38.2504 167.663 38.4031 167.664H48.8738C49.0419 167.668 49.2074 167.622 49.3498 167.532C49.4922 167.443 49.6054 167.314 49.6754 167.161C51.9436 162.506 50.5791 155.415 46.6119 151.18C46.1498 150.69 45.4325 150.719 45.1287 151.347Z" fill="#0052CC"/>
</g>
<path fill-rule="evenodd" clip-rule="evenodd" d="M46.1175 343.31C44.3179 343.31 42.6949 344.392 42.0028 346.053C41.3713 347.569 40.5189 351.326 40.1336 353.12C40.0269 353.617 39.9825 354.044 40.0168 354.427C40.1315 355.71 40.5294 356.324 40.901 356.639C41.2912 356.97 41.8839 357.168 42.7499 357.168C43.7032 357.168 44.5892 356.677 45.0945 355.869L47.4937 352.03L50.6836 346.714L49.9397 345.474C49.9397 345.474 49.9397 345.474 49.9397 345.474C49.1341 344.131 47.6832 343.31 46.1175 343.31ZM52.3848 343.88C51.0413 341.714 48.6717 340.392 46.1175 340.392C43.1401 340.392 40.4548 342.183 39.3096 344.931C38.5508 346.752 37.6432 350.821 37.2811 352.508C37.1415 353.158 37.0406 353.901 37.1108 354.687C37.2724 356.495 37.8972 357.917 39.0142 358.864C40.1128 359.796 41.4749 360.086 42.7499 360.086C44.7091 360.086 46.5302 359.077 47.5685 357.415L49.9749 353.565L49.9887 353.543L52.3848 349.549L54.7809 353.543L54.7947 353.565L57.201 357.415C58.2394 359.077 60.0604 360.086 62.0197 360.086C63.4534 360.086 64.9435 359.677 66.0625 358.502C67.1722 357.337 67.7021 355.643 67.7021 353.521C67.7021 352.175 67.1917 350.216 66.7184 348.647C66.2252 347.012 65.693 345.554 65.5295 345.114C65.4914 345.011 65.4458 344.894 65.3905 344.77C64.2089 342.113 61.5708 340.392 58.652 340.392C56.0979 340.392 53.7283 341.714 52.3848 343.88ZM54.086 346.714L57.2758 352.03L59.6751 355.869C60.1803 356.677 61.0663 357.168 62.0197 357.168C62.9186 357.168 63.5402 356.92 63.9498 356.49C64.3687 356.05 64.7845 355.191 64.7845 353.521C64.7845 352.669 64.4131 351.107 63.9251 349.489C63.4573 347.938 62.9488 346.545 62.7946 346.13C62.7674 346.057 62.7456 346.002 62.7247 345.955C62.0106 344.35 60.4162 343.31 58.652 343.31C57.0863 343.31 55.6354 344.131 54.8299 345.474L54.086 346.714Z" fill="#3747D6"/>
<g clip-path="url(#clip2_291_35)">
<path d="M53.7803 252.929H68.1402V239.526C68.1402 239.272 68.0394 239.029 67.8598 238.849C67.6803 238.67 67.4368 238.569 67.1829 238.569H53.7803V252.929Z" fill="#4CAF50"/>
<path d="M51.8658 252.929V238.569H38.4632C38.2093 238.569 37.9658 238.67 37.7863 238.849C37.6067 239.029 37.5059 239.272 37.5059 239.526V252.929H51.8658Z" fill="#F44336"/>
<path d="M51.8658 254.844H37.5059V268.246C37.5059 268.5 37.6067 268.744 37.7863 268.923C37.9658 269.103 38.2093 269.203 38.4632 269.203H51.8658V254.844Z" fill="#2196F3"/>
<path d="M53.7803 254.844V269.203H67.1829C67.4368 269.203 67.6803 269.103 67.8598 268.923C68.0394 268.744 68.1402 268.5 68.1402 268.246V254.844H53.7803Z" fill="#FFC107"/>
</g>
<path d="M252.385 200.144V193.843C252.714 193.759 253.022 193.608 253.29 193.399C253.557 193.19 253.778 192.928 253.938 192.629C254.098 192.33 254.195 192 254.221 191.662C254.247 191.324 254.202 190.984 254.09 190.663C253.978 190.343 253.8 190.05 253.568 189.802C253.336 189.555 253.055 189.358 252.743 189.225C252.431 189.092 252.094 189.025 251.755 189.029C251.416 189.033 251.081 189.107 250.772 189.247L248.826 186.815C249.146 186.394 249.32 185.881 249.322 185.352C249.323 184.756 249.107 184.18 248.713 183.733C248.32 183.285 247.776 182.996 247.185 182.921C246.594 182.846 245.996 182.989 245.502 183.324C245.009 183.659 244.656 184.162 244.508 184.74H235.756C235.667 184.388 235.501 184.061 235.271 183.782C235.04 183.503 234.75 183.278 234.422 183.124C234.094 182.971 233.735 182.892 233.373 182.894C233.011 182.896 232.653 182.978 232.327 183.135C232 183.292 231.713 183.52 231.485 183.802C231.257 184.083 231.095 184.412 231.01 184.764C230.925 185.117 230.919 185.483 230.993 185.838C231.067 186.193 231.219 186.526 231.438 186.815L229.492 189.247C229.177 189.104 228.836 189.029 228.491 189.029C227.894 189.027 227.319 189.244 226.871 189.637C226.423 190.031 226.135 190.574 226.059 191.165C225.984 191.757 226.127 192.355 226.462 192.848C226.797 193.341 227.3 193.695 227.878 193.843V200.144C227.549 200.228 227.241 200.379 226.974 200.588C226.706 200.797 226.486 201.059 226.325 201.358C226.165 201.657 226.069 201.987 226.042 202.325C226.016 202.663 226.061 203.003 226.173 203.324C226.286 203.644 226.464 203.937 226.695 204.185C226.927 204.432 227.208 204.629 227.521 204.762C227.833 204.896 228.169 204.962 228.508 204.958C228.848 204.954 229.183 204.88 229.491 204.74L231.438 207.172C231.117 207.592 230.943 208.106 230.941 208.635C230.94 209.231 231.156 209.807 231.55 210.254C231.943 210.702 232.487 210.991 233.078 211.066C233.669 211.141 234.268 210.998 234.761 210.663C235.254 210.328 235.608 209.825 235.756 209.247H244.508C244.596 209.599 244.762 209.926 244.993 210.205C245.223 210.484 245.513 210.709 245.842 210.863C246.17 211.016 246.528 211.095 246.89 211.093C247.252 211.091 247.61 211.009 247.936 210.852C248.263 210.695 248.551 210.467 248.778 210.185C249.006 209.904 249.169 209.575 249.254 209.223C249.339 208.871 249.345 208.504 249.271 208.149C249.197 207.795 249.045 207.461 248.826 207.172L250.772 204.74C251.081 204.879 251.415 204.953 251.754 204.957C252.093 204.96 252.429 204.893 252.741 204.76C253.052 204.626 253.333 204.43 253.564 204.182C253.796 203.935 253.973 203.642 254.086 203.322C254.198 203.002 254.242 202.663 254.216 202.325C254.19 201.987 254.094 201.658 253.935 201.359C253.775 201.06 253.554 200.798 253.288 200.589C253.021 200.379 252.714 200.228 252.385 200.144ZM246.871 206.184C246.526 206.185 246.185 206.259 245.871 206.403L243.925 203.97C244.232 203.566 244.405 203.076 244.42 202.569C244.434 202.061 244.288 201.562 244.003 201.142L246.871 197.916L249.739 201.142C249.454 201.562 249.309 202.061 249.323 202.569C249.337 203.076 249.51 203.567 249.818 203.97L247.872 206.403C247.558 206.259 247.217 206.185 246.871 206.184ZM232.391 206.403L230.445 203.97C230.753 203.567 230.926 203.077 230.94 202.569C230.955 202.062 230.809 201.563 230.524 201.142L233.392 197.916L236.26 201.142C235.975 201.562 235.83 202.062 235.844 202.569C235.858 203.076 236.031 203.567 236.339 203.97L234.393 206.403C234.079 206.259 233.738 206.184 233.392 206.184C233.047 206.184 232.705 206.259 232.391 206.403ZM229.601 193.651L232.572 196.994L229.601 200.336C229.443 200.254 229.276 200.189 229.103 200.144V193.843C229.276 193.798 229.443 193.733 229.601 193.651ZM233.392 187.803C233.738 187.802 234.079 187.728 234.393 187.584L236.339 190.017C236.031 190.42 235.858 190.91 235.844 191.418C235.83 191.925 235.975 192.425 236.26 192.845L233.392 196.071L230.524 192.845C230.809 192.424 230.955 191.925 230.94 191.418C230.926 190.911 230.753 190.42 230.445 190.017L232.391 187.584C232.705 187.728 233.047 187.802 233.392 187.803ZM247.872 187.584L249.818 190.017C249.51 190.421 249.337 190.911 249.323 191.418C249.309 191.926 249.454 192.425 249.739 192.845L246.871 196.071L244.003 192.845C244.288 192.425 244.434 191.926 244.42 191.418C244.405 190.911 244.232 190.421 243.925 190.017L245.87 187.584C246.184 187.728 246.526 187.803 246.871 187.803C247.217 187.803 247.558 187.729 247.872 187.584ZM238.294 192.705C238.051 192.705 237.814 192.633 237.613 192.498C237.411 192.364 237.254 192.172 237.161 191.948C237.069 191.724 237.044 191.478 237.092 191.24C237.139 191.003 237.256 190.784 237.427 190.613C237.598 190.441 237.817 190.325 238.055 190.277C238.292 190.23 238.539 190.254 238.763 190.347C238.986 190.44 239.178 190.597 239.312 190.798C239.447 191 239.519 191.237 239.519 191.479C239.519 191.804 239.389 192.116 239.16 192.345C238.93 192.575 238.618 192.704 238.294 192.705ZM237.183 193.651C237.341 193.733 237.508 193.798 237.681 193.843V200.144C237.508 200.189 237.341 200.254 237.183 200.336L234.212 196.994L237.183 193.651ZM237.068 202.508C237.068 202.265 237.14 202.028 237.275 201.827C237.409 201.625 237.601 201.468 237.825 201.376C238.049 201.283 238.295 201.259 238.533 201.306C238.77 201.353 238.989 201.47 239.16 201.641C239.331 201.813 239.448 202.031 239.495 202.269C239.543 202.506 239.518 202.753 239.426 202.977C239.333 203.201 239.176 203.392 238.974 203.527C238.773 203.661 238.536 203.733 238.294 203.733C237.969 203.733 237.657 203.604 237.427 203.374C237.198 203.144 237.069 202.833 237.068 202.508ZM238.906 200.144V193.843C239.382 193.719 239.809 193.454 240.132 193.083C240.454 193.454 240.881 193.719 241.357 193.843V200.144C240.881 200.268 240.454 200.533 240.132 200.904C239.809 200.533 239.382 200.268 238.906 200.144ZM243.195 191.479C243.195 191.722 243.123 191.959 242.989 192.16C242.854 192.362 242.663 192.519 242.439 192.611C242.215 192.704 241.968 192.728 241.731 192.681C241.493 192.634 241.275 192.517 241.103 192.346C240.932 192.174 240.815 191.956 240.768 191.718C240.721 191.481 240.745 191.234 240.838 191.01C240.93 190.786 241.087 190.595 241.289 190.46C241.49 190.326 241.727 190.254 241.97 190.254C242.295 190.254 242.606 190.384 242.836 190.613C243.066 190.843 243.195 191.154 243.195 191.479ZM241.97 201.282C242.212 201.282 242.449 201.354 242.651 201.489C242.852 201.624 243.009 201.815 243.102 202.039C243.195 202.263 243.219 202.509 243.172 202.747C243.124 202.984 243.008 203.203 242.836 203.374C242.665 203.546 242.447 203.662 242.209 203.71C241.971 203.757 241.725 203.733 241.501 203.64C241.277 203.547 241.086 203.39 240.951 203.189C240.816 202.987 240.744 202.75 240.744 202.508C240.745 202.183 240.874 201.871 241.104 201.642C241.333 201.412 241.645 201.283 241.97 201.282ZM243.081 200.336C242.922 200.254 242.755 200.189 242.582 200.144V193.843C242.755 193.798 242.922 193.733 243.081 193.651L246.052 196.994L243.081 200.336ZM244.916 186.815L242.971 189.247C242.493 189.029 241.958 188.972 241.446 189.085C240.933 189.199 240.472 189.476 240.132 189.876C239.791 189.476 239.33 189.199 238.818 189.085C238.305 188.972 237.77 189.029 237.293 189.247L235.347 186.815C235.537 186.561 235.676 186.272 235.756 185.965H244.508C244.587 186.272 244.726 186.561 244.916 186.815ZM235.347 207.172L237.293 204.74C237.77 204.958 238.305 205.015 238.817 204.902C239.33 204.788 239.791 204.511 240.132 204.112C240.472 204.511 240.934 204.788 241.446 204.902C241.958 205.015 242.494 204.958 242.971 204.74L244.917 207.172C244.726 207.426 244.587 207.715 244.508 208.022H235.756C235.676 207.715 235.537 207.426 235.347 207.172ZM250.662 200.336L247.691 196.994L250.662 193.651C250.82 193.733 250.987 193.798 251.16 193.843V200.144C250.987 200.189 250.82 200.254 250.662 200.336ZM252.998 191.479C252.998 191.722 252.926 191.959 252.792 192.16C252.657 192.362 252.466 192.519 252.242 192.611C252.018 192.704 251.771 192.728 251.534 192.681C251.296 192.634 251.078 192.517 250.906 192.346C250.735 192.174 250.618 191.956 250.571 191.718C250.524 191.481 250.548 191.234 250.641 191.01C250.733 190.786 250.891 190.595 251.092 190.46C251.294 190.326 251.53 190.254 251.773 190.254C252.098 190.254 252.409 190.384 252.639 190.613C252.869 190.843 252.998 191.154 252.998 191.479ZM246.871 184.127C247.114 184.127 247.351 184.199 247.552 184.334C247.754 184.468 247.911 184.66 248.003 184.883C248.096 185.107 248.12 185.354 248.073 185.591C248.026 185.829 247.909 186.047 247.738 186.219C247.566 186.39 247.348 186.507 247.11 186.554C246.873 186.601 246.626 186.577 246.402 186.484C246.178 186.392 245.987 186.235 245.852 186.033C245.718 185.832 245.646 185.595 245.646 185.352C245.646 185.027 245.775 184.716 246.005 184.486C246.235 184.257 246.546 184.127 246.871 184.127ZM233.392 184.127C233.634 184.127 233.871 184.199 234.073 184.334C234.274 184.468 234.431 184.66 234.524 184.883C234.617 185.107 234.641 185.354 234.594 185.591C234.547 185.829 234.43 186.047 234.259 186.219C234.087 186.39 233.869 186.507 233.631 186.554C233.393 186.601 233.147 186.577 232.923 186.484C232.699 186.392 232.508 186.235 232.373 186.033C232.239 185.832 232.167 185.595 232.167 185.352C232.167 185.027 232.296 184.716 232.526 184.486C232.756 184.257 233.067 184.127 233.392 184.127ZM227.265 191.479C227.265 191.237 227.337 191 227.472 190.798C227.606 190.597 227.798 190.44 228.022 190.347C228.246 190.254 228.492 190.23 228.73 190.277C228.967 190.325 229.186 190.441 229.357 190.613C229.528 190.784 229.645 191.003 229.692 191.24C229.74 191.478 229.715 191.724 229.623 191.948C229.53 192.172 229.373 192.364 229.171 192.498C228.97 192.633 228.733 192.705 228.491 192.705C228.166 192.704 227.854 192.575 227.624 192.345C227.395 192.116 227.265 191.804 227.265 191.479ZM227.265 202.508C227.265 202.265 227.337 202.028 227.472 201.827C227.606 201.625 227.798 201.468 228.022 201.376C228.246 201.283 228.492 201.259 228.73 201.306C228.967 201.353 229.186 201.47 229.357 201.641C229.528 201.813 229.645 202.031 229.692 202.269C229.74 202.506 229.715 202.753 229.623 202.977C229.53 203.201 229.373 203.392 229.171 203.527C228.97 203.661 228.733 203.733 228.491 203.733C228.166 203.733 227.854 203.604 227.624 203.374C227.395 203.144 227.265 202.833 227.265 202.508ZM233.392 209.86C233.15 209.86 232.913 209.788 232.711 209.654C232.51 209.519 232.353 209.327 232.26 209.104C232.167 208.88 232.143 208.633 232.19 208.396C232.238 208.158 232.354 207.94 232.526 207.768C232.697 207.597 232.915 207.48 233.153 207.433C233.391 207.386 233.637 207.41 233.861 207.503C234.085 207.595 234.276 207.752 234.411 207.954C234.546 208.155 234.617 208.392 234.617 208.635C234.617 208.96 234.488 209.271 234.258 209.501C234.028 209.73 233.717 209.86 233.392 209.86ZM246.871 209.86C246.629 209.86 246.392 209.788 246.19 209.654C245.989 209.519 245.832 209.327 245.739 209.104C245.646 208.88 245.622 208.633 245.669 208.396C245.717 208.158 245.833 207.94 246.005 207.768C246.176 207.597 246.395 207.48 246.632 207.433C246.87 207.386 247.116 207.41 247.34 207.503C247.564 207.595 247.755 207.752 247.89 207.954C248.025 208.155 248.097 208.392 248.097 208.635C248.096 208.96 247.967 209.271 247.737 209.501C247.508 209.73 247.196 209.86 246.871 209.86ZM251.773 203.733C251.53 203.733 251.294 203.661 251.092 203.527C250.891 203.392 250.733 203.201 250.641 202.977C250.548 202.753 250.524 202.506 250.571 202.269C250.618 202.031 250.735 201.813 250.906 201.641C251.078 201.47 251.296 201.353 251.534 201.306C251.771 201.259 252.018 201.283 252.242 201.376C252.466 201.468 252.657 201.625 252.792 201.827C252.926 202.028 252.998 202.265 252.998 202.508C252.998 202.833 252.869 203.144 252.639 203.374C252.409 203.604 252.098 203.733 251.773 203.733Z" fill="url(#paint5_linear_291_35)"/>
<defs>
<filter id="filter0_b_291_35" x="16" y="14" width="73.6455" height="73.6455" filterUnits="userSpaceOnUse" color-interpolation-filters="sRGB">
<feFlood flood-opacity="0" result="BackgroundImageFix"/>
<feGaussianBlur in="BackgroundImageFix" stdDeviation="2"/>
<feComposite in2="SourceAlpha" operator="in" result="effect1_backgroundBlur_291_35"/>
<feBlend mode="normal" in="SourceGraphic" in2="effect1_backgroundBlur_291_35" result="shape"/>
</filter>
<filter id="filter1_b_291_35" x="16" y="115.532" width="73.6455" height="73.6455" filterUnits="userSpaceOnUse" color-interpolation-filters="sRGB">
<feFlood flood-opacity="0" result="BackgroundImageFix"/>
<feGaussianBlur in="BackgroundImageFix" stdDeviation="2"/>
<feComposite in2="SourceAlpha" operator="in" result="effect1_backgroundBlur_291_35"/>
<feBlend mode="normal" in="SourceGraphic" in2="effect1_backgroundBlur_291_35" result="shape"/>
</filter>
<filter id="filter2_b_291_35" x="16" y="217.063" width="73.6455" height="73.6455" filterUnits="userSpaceOnUse" color-interpolation-filters="sRGB">
<feFlood flood-opacity="0" result="BackgroundImageFix"/>
<feGaussianBlur in="BackgroundImageFix" stdDeviation="2"/>
<feComposite in2="SourceAlpha" operator="in" result="effect1_backgroundBlur_291_35"/>
<feBlend mode="normal" in="SourceGraphic" in2="effect1_backgroundBlur_291_35" result="shape"/>
</filter>
<filter id="filter3_b_291_35" x="203.309" y="160.171" width="73.6455" height="73.6455" filterUnits="userSpaceOnUse" color-interpolation-filters="sRGB">
<feFlood flood-opacity="0" result="BackgroundImageFix"/>
<feGaussianBlur in="BackgroundImageFix" stdDeviation="2"/>
<feComposite in2="SourceAlpha" operator="in" result="effect1_backgroundBlur_291_35"/>
<feBlend mode="normal" in="SourceGraphic" in2="effect1_backgroundBlur_291_35" result="shape"/>
</filter>
<filter id="filter4_b_291_35" x="350.354" y="160.171" width="73.6455" height="73.6455" filterUnits="userSpaceOnUse" color-interpolation-filters="sRGB">
<feFlood flood-opacity="0" result="BackgroundImageFix"/>
<feGaussianBlur in="BackgroundImageFix" stdDeviation="2"/>
<feComposite in2="SourceAlpha" operator="in" result="effect1_backgroundBlur_291_35"/>
<feBlend mode="normal" in="SourceGraphic" in2="effect1_backgroundBlur_291_35" result="shape"/>
</filter>
<filter id="filter5_b_291_35" x="16" y="313.344" width="73.6455" height="73.6455" filterUnits="userSpaceOnUse" color-interpolation-filters="sRGB">
<feFlood flood-opacity="0" result="BackgroundImageFix"/>
<feGaussianBlur in="BackgroundImageFix" stdDeviation="2"/>
<feComposite in2="SourceAlpha" operator="in" result="effect1_backgroundBlur_291_35"/>
<feBlend mode="normal" in="SourceGraphic" in2="effect1_backgroundBlur_291_35" result="shape"/>
</filter>
<linearGradient id="paint0_linear_291_35" x1="146.477" y1="197.431" x2="146.477" y2="350.604" gradientUnits="userSpaceOnUse">
<stop stop-color="#E84F1E"/>
<stop offset="0.315" stop-color="#A51AC7"/>
<stop offset="0.69" stop-color="#285386"/>
<stop offset="1" stop-color="#826911"/>
</linearGradient>
<linearGradient id="paint1_linear_291_35" x1="146.477" y1="197.431" x2="146.477" y2="51.2604" gradientUnits="userSpaceOnUse">
<stop stop-color="#E84F1E"/>
<stop offset="0.315" stop-color="#A51AC7"/>
<stop offset="0.69" stop-color="#285386"/>
<stop offset="1" stop-color="#826911"/>
</linearGradient>
<linearGradient id="paint2_linear_291_35" x1="146.477" y1="197.431" x2="146.477" y2="249.072" gradientUnits="userSpaceOnUse">
<stop stop-color="#D64149"/>
<stop offset="0.36" stop-color="#9B1EC2"/>
<stop offset="0.695" stop-color="#2C5188"/>
<stop offset="1" stop-color="#7B6719"/>
</linearGradient>
<linearGradient id="paint3_linear_291_35" x1="146.477" y1="197.431" x2="146.477" y2="151.042" gradientUnits="userSpaceOnUse">
<stop stop-color="#D64149"/>
<stop offset="0.36" stop-color="#9B1EC2"/>
<stop offset="0.695" stop-color="#2C5188"/>
<stop offset="1" stop-color="#7B6719"/>
</linearGradient>
<linearGradient id="paint4_linear_291_35" x1="272.954" y1="199.682" x2="354.355" y2="199.682" gradientUnits="userSpaceOnUse">
<stop stop-color="#D74147"/>
<stop offset="0.335" stop-color="#A11BC6"/>
<stop offset="0.665" stop-color="#334D8C"/>
<stop offset="1" stop-color="#826911"/>
</linearGradient>
<linearGradient id="paint5_linear_291_35" x1="229.209" y1="186.071" x2="251.054" y2="207.916" gradientUnits="userSpaceOnUse">
<stop stop-color="#00EFD9"/>
<stop offset="1" stop-color="#5D74F2"/>
</linearGradient>
<clipPath id="clip0_291_35">
<rect width="30.6346" height="31.3493" fill="white" transform="translate(37.5059 35.5055)"/>
</clipPath>
<clipPath id="clip1_291_35">
<rect width="30.6346" height="30.6346" fill="white" transform="translate(37.5059 137.037)"/>
</clipPath>
<clipPath id="clip2_291_35">
<rect width="30.6346" height="30.6346" fill="white" transform="translate(37.5059 238.569)"/>
</clipPath>
</defs>
</svg>
