<svg width="75" height="75" viewBox="0 0 75 75" fill="none" xmlns="http://www.w3.org/2000/svg">
<path d="M70.3125 11.7153H67.9688V57.3961C67.9688 57.7069 67.8453 58.005 67.6255 58.2248C67.4057 58.4446 67.1077 58.568 66.7969 58.568C41.3355 58.568 38.6695 69.2438 38.6461 69.3528C38.5883 69.6137 38.4435 69.8471 38.2354 70.0148C38.0273 70.1824 37.7684 70.2742 37.5012 70.275H37.4895C37.2228 70.2736 36.9646 70.181 36.7578 70.0126C36.551 69.8442 36.4081 69.6101 36.3527 69.3493C36.3129 69.1793 33.5859 58.568 8.20312 58.568C7.89232 58.568 7.59425 58.4446 7.37448 58.2248C7.15472 58.005 7.03125 57.7069 7.03125 57.3961V11.7153H4.6875C4.3767 11.7153 4.07863 11.8387 3.85886 12.0585C3.63909 12.2783 3.51563 12.5764 3.51562 12.8872V62.0825C3.51594 62.3931 3.63954 62.6908 3.85927 62.9104C4.07901 63.1299 4.3769 63.2532 4.6875 63.2532C34.7391 63.2532 36.2848 70.0876 36.3281 70.3383C36.334 70.4438 36.3527 70.5481 36.3855 70.6465C36.5379 71.1247 36.9785 71.4844 37.4988 71.4844C38.1469 71.4844 38.6707 70.9922 38.6707 70.3454C38.6789 70.275 39.8543 63.2532 70.3125 63.2532C70.6233 63.2532 70.9214 63.1297 71.1411 62.9099C71.3609 62.6902 71.4844 62.3921 71.4844 62.0813V12.886C71.4844 12.5752 71.3609 12.2771 71.1411 12.0573C70.9214 11.8376 70.6233 11.7153 70.3125 11.7153Z" fill="black"/>
<path d="M36.3281 13.1988C33.307 8.66836 26.3918 3.51562 10.5469 3.51562C10.2361 3.51563 9.938 3.63909 9.71823 3.85886C9.49847 4.07863 9.375 4.3767 9.375 4.6875V55.0547C9.37531 55.3653 9.49891 55.6631 9.71865 55.8826C9.93838 56.1021 10.2363 56.2254 10.5469 56.2254C35.8711 56.2254 36.3211 69.6926 36.3281 70.2855V13.1988ZM33.1195 54.048C33.0978 54.2004 33.0462 54.347 32.9678 54.4794C32.8893 54.6118 32.7856 54.7275 32.6625 54.8198C32.5393 54.9122 32.3992 54.9793 32.2502 55.0175C32.1011 55.0557 31.9459 55.0642 31.7936 55.0424C31.6412 55.0206 31.4946 54.969 31.3622 54.8906C31.2298 54.8122 31.1141 54.7085 31.0218 54.5853C30.9294 54.4622 30.8623 54.3221 30.8241 54.173C30.7859 54.0239 30.7774 53.8688 30.7992 53.7164C30.8039 53.6742 30.9457 52.248 29.5781 50.7188C28.0008 48.9562 24.2309 46.8551 15.2344 46.8551C14.9236 46.8551 14.6255 46.7316 14.4057 46.5118C14.186 46.2921 14.0625 45.994 14.0625 45.6832C14.0625 45.3724 14.186 45.0743 14.4057 44.8546C14.6255 44.6348 14.9236 44.5113 15.2344 44.5113C23.2383 44.5113 28.6793 46.1063 31.4086 49.2527C33.443 51.5965 33.1336 53.9484 33.1195 54.048ZM33.1195 37.65C33.0756 37.9577 32.9111 38.2353 32.6625 38.4218C32.4138 38.6083 32.1012 38.6883 31.7936 38.6443C31.4859 38.6004 31.2082 38.4359 31.0218 38.1873C30.8353 37.9386 30.7552 37.6261 30.7992 37.3184C30.8039 37.2762 30.9457 35.8488 29.5781 34.3195C28.0008 32.557 24.2309 30.4559 15.2344 30.4559C15.0774 30.4608 14.9211 30.4342 14.7747 30.3776C14.6282 30.3209 14.4947 30.2355 14.3819 30.1262C14.2691 30.017 14.1795 29.8862 14.1182 29.7416C14.057 29.597 14.0254 29.4416 14.0254 29.2846C14.0254 29.1276 14.057 28.9721 14.1182 28.8276C14.1795 28.683 14.2691 28.5522 14.3819 28.4429C14.4947 28.3337 14.6282 28.2482 14.7747 28.1916C14.9211 28.1349 15.0774 28.1083 15.2344 28.1133C23.2383 28.1133 28.6793 29.707 31.4086 32.8535C33.443 35.1984 33.1336 37.5504 33.1195 37.65ZM33.1195 21.2508C33.0978 21.4031 33.0462 21.5497 32.9678 21.6821C32.8893 21.8146 32.7856 21.9302 32.6625 22.0226C32.5393 22.1149 32.3992 22.1821 32.2502 22.2203C32.1011 22.2584 31.9459 22.2669 31.7936 22.2451C31.6412 22.2233 31.4946 22.1718 31.3622 22.0933C31.2298 22.0149 31.1141 21.9112 31.0218 21.7881C30.9294 21.6649 30.8623 21.5248 30.8241 21.3757C30.7859 21.2266 30.7774 21.0715 30.7992 20.9191C30.8039 20.877 30.9457 19.4508 29.5781 17.9215C28.0008 16.159 24.2309 14.0578 15.2344 14.0578C14.9236 14.0578 14.6255 13.9343 14.4057 13.7146C14.186 13.4948 14.0625 13.1967 14.0625 12.8859C14.0625 12.5751 14.186 12.2771 14.4057 12.0573C14.6255 11.8375 14.9236 11.7141 15.2344 11.7141C23.2383 11.7141 28.6793 13.309 31.4086 16.4555C33.443 18.7992 33.1336 21.1512 33.1195 21.2508ZM38.6719 70.2867C38.6789 69.6937 39.1289 56.2266 64.4531 56.2266C64.7639 56.2266 65.062 56.1031 65.2818 55.8833C65.5015 55.6636 65.625 55.3655 65.625 55.0547V4.6875C65.625 4.3767 65.5015 4.07863 65.2818 3.85886C65.062 3.63909 64.7639 3.51563 64.4531 3.51562C48.607 3.51563 41.693 8.66836 38.6719 13.1988V70.2867ZM43.5914 49.2539C46.3207 46.1074 51.7617 44.5125 59.7656 44.5125C60.0764 44.5125 60.3745 44.636 60.5943 44.8557C60.814 45.0755 60.9375 45.3736 60.9375 45.6844C60.9375 45.9952 60.814 46.2932 60.5943 46.513C60.3745 46.7328 60.0764 46.8563 59.7656 46.8563C50.7691 46.8563 46.9992 48.9574 45.4219 50.7199C44.0543 52.2492 44.1961 53.6754 44.1996 53.7176C44.2436 54.0253 44.1635 54.3378 43.9771 54.5865C43.7906 54.8352 43.513 54.9996 43.2053 55.0436C42.8976 55.0875 42.585 55.0075 42.3364 54.821C42.0877 54.6345 41.9233 54.3569 41.8793 54.0492C41.8664 53.9496 41.557 51.5988 43.5914 49.2539ZM43.5914 32.8547C46.3207 29.7082 51.7617 28.1133 59.7656 28.1133C60.0764 28.1133 60.3745 28.2367 60.5943 28.4565C60.814 28.6763 60.9375 28.9744 60.9375 29.2852C60.9375 29.596 60.814 29.894 60.5943 30.1138C60.3745 30.3336 60.0764 30.457 59.7656 30.457C50.7691 30.457 46.9992 32.557 45.4219 34.3195C44.0543 35.8488 44.1961 37.2762 44.1996 37.3184C44.2436 37.6261 44.1635 37.9386 43.9771 38.1873C43.7906 38.4359 43.513 38.6004 43.2053 38.6443C42.8976 38.6883 42.585 38.6083 42.3364 38.4218C42.0877 38.2353 41.9233 37.9577 41.8793 37.65C41.8664 37.5504 41.557 35.1996 43.5914 32.8547ZM43.5914 16.4566C46.3207 13.309 51.7617 11.7152 59.7656 11.7152C59.9226 11.7103 60.0789 11.7369 60.2253 11.7935C60.3718 11.8502 60.5053 11.9356 60.6181 12.0449C60.7309 12.1541 60.8205 12.2849 60.8818 12.4295C60.943 12.5741 60.9746 12.7295 60.9746 12.8865C60.9746 13.0435 60.943 13.1989 60.8818 13.3435C60.8205 13.4881 60.7309 13.6189 60.6181 13.7282C60.5053 13.8374 60.3718 13.9229 60.2253 13.9795C60.0789 14.0362 59.9226 14.0628 59.7656 14.0578C50.7691 14.0578 46.9992 16.159 45.4219 17.9215C44.0543 19.4508 44.1961 20.877 44.1996 20.9191C44.2436 21.2268 44.1635 21.5394 43.9771 21.7881C43.7906 22.0367 43.513 22.2011 43.2053 22.2451C42.8976 22.2891 42.585 22.209 42.3364 22.0226C42.0877 21.8361 41.9233 21.5585 41.8793 21.2508C41.8664 21.1512 41.557 18.8004 43.5914 16.4555V16.4566Z" fill="black"/>
</svg>
