<svg width="75" height="75" viewBox="0 0 75 75" fill="none" xmlns="http://www.w3.org/2000/svg">
<path d="M57.4219 5.03906H17.5781C14.3421 5.03906 11.7188 7.66239 11.7188 10.8984V64.1133C11.7188 67.3493 14.3421 69.9727 17.5781 69.9727H57.4219C60.6579 69.9727 63.2812 67.3493 63.2812 64.1133V10.8984C63.2812 7.66239 60.6579 5.03906 57.4219 5.03906Z" stroke="black" stroke-width="3" stroke-linecap="round" stroke-linejoin="round"/>
<path d="M17.5781 5.03906H22.8633V69.9609H17.5781C16.0241 69.9609 14.5338 69.3436 13.4349 68.2448C12.3361 67.1459 11.7188 65.6556 11.7188 64.1016V10.8984C11.7188 9.34443 12.3361 7.85408 13.4349 6.75523C14.5338 5.65639 16.0241 5.03906 17.5781 5.03906Z" stroke="black" stroke-width="3" stroke-linecap="round" stroke-linejoin="round"/>
<path d="M52.4531 18.5742H33.7031C33.0559 18.5742 32.5312 19.0989 32.5312 19.7461V29.1211C32.5312 29.7683 33.0559 30.293 33.7031 30.293H52.4531C53.1003 30.293 53.625 29.7683 53.625 29.1211V19.7461C53.625 19.0989 53.1003 18.5742 52.4531 18.5742Z" stroke="black" stroke-width="3" stroke-linecap="round" stroke-linejoin="round"/>
</svg>
