<svg width="280" height="280" viewBox="0 0 280 280" fill="none" xmlns="http://www.w3.org/2000/svg">
<g opacity="0.8">
<path d="M73.8889 225.556C72.9936 225.548 72.1283 225.232 71.4389 224.661C53.9291 210.498 41.2414 191.255 35.1234 169.581C29.0054 147.907 29.758 124.87 37.2776 103.642C44.7972 82.4139 58.7139 64.0395 77.1107 51.0498C95.5075 38.06 117.479 31.0939 140 31.1111C156.653 31.0617 173.092 34.8685 188.028 42.2333C188.951 42.6926 189.653 43.4995 189.981 44.4767C190.309 45.4538 190.236 46.5212 189.778 47.4444C189.554 47.9047 189.241 48.3162 188.858 48.6553C188.474 48.9945 188.028 49.2547 187.544 49.4209C187.06 49.587 186.547 49.656 186.036 49.6238C185.526 49.5917 185.026 49.4589 184.567 49.2333C161.913 38.1087 135.917 35.8585 111.688 42.9249C87.4597 49.9913 66.7496 65.8634 53.6278 87.4222C40.9 108.339 36.1948 133.165 40.3859 157.288C44.577 181.412 57.3796 203.196 76.4167 218.594C76.8133 218.918 77.1421 219.317 77.3842 219.768C77.6264 220.219 77.777 220.714 77.8276 221.223C77.8782 221.732 77.8277 222.247 77.679 222.737C77.5303 223.227 77.2863 223.682 76.9611 224.078C76.5949 224.541 76.1279 224.915 75.5956 225.171C75.0632 225.427 74.4796 225.559 73.8889 225.556ZM140 248.889C122.625 248.936 105.495 244.787 90.0667 236.794C89.1487 236.32 88.4568 235.5 88.1432 234.516C87.8296 233.531 87.92 232.462 88.3944 231.544C88.8689 230.626 89.6886 229.935 90.6731 229.621C91.6577 229.307 92.7265 229.398 93.6444 229.872C113.242 239.988 135.609 243.419 157.337 239.642C179.066 235.865 198.963 225.087 213.998 208.952C229.032 192.816 238.378 172.208 240.612 150.267C242.846 128.326 237.846 106.257 226.372 87.4222C220.33 77.5374 212.65 68.7528 203.661 61.4444C202.866 60.7972 202.358 59.8619 202.249 58.8422C202.14 57.8226 202.438 56.801 203.078 56C203.399 55.6005 203.795 55.2683 204.245 55.0227C204.695 54.777 205.189 54.6226 205.698 54.5684C206.208 54.5142 206.723 54.5612 207.214 54.7068C207.706 54.8524 208.163 55.0936 208.561 55.4166C218.231 63.2819 226.49 72.7376 232.983 83.3777C243.033 99.8858 248.508 118.771 248.846 138.095C249.184 157.418 244.374 176.484 234.908 193.333C225.442 210.183 211.662 224.209 194.983 233.973C178.304 243.736 159.326 248.884 140 248.889Z" fill="url(#paint0_linear_293_36)"/>
<path d="M136.111 245C135.147 244.997 134.219 244.637 133.505 243.989C118.9 230.891 107.769 214.376 101.111 195.922C93.7258 178.185 89.7671 159.21 89.4443 140C89.4871 120.747 93.4569 101.705 101.111 84.0388C108.412 65.9297 119.45 49.5642 133.505 36.011C134.279 35.3901 135.26 35.088 136.248 35.1665C137.237 35.2449 138.158 35.698 138.823 36.4331C139.489 37.1681 139.848 38.1296 139.829 39.121C139.809 40.1124 139.411 41.0587 138.717 41.7666C125.435 54.5503 114.994 69.9869 108.072 87.0721C100.907 103.797 97.2156 121.804 97.2221 140C97.4718 158.185 101.167 176.158 108.111 192.967C114.397 210.362 124.915 225.919 138.717 238.233C139.297 238.761 139.704 239.451 139.885 240.214C140.066 240.977 140.012 241.777 139.73 242.508C139.448 243.24 138.952 243.87 138.306 244.314C137.66 244.759 136.895 244.998 136.111 245Z" fill="url(#paint1_linear_293_36)"/>
<path d="M143.889 245C143.104 244.998 142.339 244.759 141.693 244.314C141.048 243.87 140.551 243.24 140.27 242.508C139.988 241.777 139.934 240.977 140.115 240.214C140.295 239.451 140.703 238.761 141.283 238.233C155.084 225.919 165.602 210.362 171.889 192.967C178.833 176.158 182.528 158.185 182.777 140C182.784 121.804 179.093 103.797 171.927 87.0721C165.006 69.9869 154.564 54.5503 141.283 41.7665C140.87 41.4346 140.529 41.0217 140.281 40.5532C140.033 40.0847 139.883 39.5704 139.841 39.042C139.799 38.5136 139.866 37.9822 140.037 37.4805C140.208 36.9787 140.479 36.5172 140.835 36.1242C141.191 35.7313 141.623 35.4152 142.106 35.1954C142.588 34.9757 143.11 34.8568 143.64 34.8462C144.17 34.8356 144.697 34.9335 145.187 35.1338C145.678 35.3341 146.123 35.6326 146.494 36.011C160.62 49.5454 171.725 65.9123 179.083 84.0388C186.67 101.719 190.574 120.76 190.555 140C190.232 159.21 186.274 178.185 178.889 195.922C172.186 214.392 161.001 230.909 146.339 243.989C145.665 244.602 144.798 244.96 143.889 245Z" fill="url(#paint2_linear_293_36)"/>
<path d="M245 143.889H35.0002C33.9688 143.889 32.9797 143.479 32.2504 142.75C31.521 142.02 31.1113 141.031 31.1113 140C31.1113 138.968 31.521 137.979 32.2504 137.25C32.9797 136.521 33.9688 136.111 35.0002 136.111H245C246.032 136.111 247.021 136.521 247.75 137.25C248.479 137.979 248.889 138.968 248.889 140C248.889 141.031 248.479 142.02 247.75 142.75C247.021 143.479 246.032 143.889 245 143.889ZM229.445 89.4443H50.5558C49.5244 89.4443 48.5352 89.0346 47.8059 88.3053C47.0766 87.5759 46.6669 86.5868 46.6669 85.5554C46.6669 84.524 47.0766 83.5348 47.8059 82.8055C48.5352 82.0762 49.5244 81.6665 50.5558 81.6665H229.445C230.476 81.6665 231.465 82.0762 232.195 82.8055C232.924 83.5348 233.334 84.524 233.334 85.5554C233.334 86.5868 232.924 87.5759 232.195 88.3053C231.465 89.0346 230.476 89.4443 229.445 89.4443ZM229.445 198.333H50.5558C49.5244 198.333 48.5352 197.923 47.8059 197.194C47.0766 196.465 46.6669 195.476 46.6669 194.444C46.6669 193.413 47.0766 192.424 47.8059 191.694C48.5352 190.965 49.5244 190.555 50.5558 190.555H229.445C230.476 190.555 231.465 190.965 232.195 191.694C232.924 192.424 233.334 193.413 233.334 194.444C233.334 195.476 232.924 196.465 232.195 197.194C231.465 197.923 230.476 198.333 229.445 198.333Z" fill="url(#paint3_linear_293_36)"/>
<path d="M140 245C138.969 245 137.98 244.59 137.25 243.861C136.521 243.132 136.111 242.143 136.111 241.111V38.8889C136.111 37.8575 136.521 36.8683 137.25 36.139C137.98 35.4097 138.969 35 140 35C141.032 35 142.021 35.4097 142.75 36.139C143.479 36.8683 143.889 37.8575 143.889 38.8889V241.111C143.889 242.143 143.479 243.132 142.75 243.861C142.021 244.59 141.032 245 140 245Z" fill="url(#paint4_linear_293_36)"/>
</g>
<defs>
<linearGradient id="paint0_linear_293_36" x1="139.946" y1="31.1106" x2="139.946" y2="248.889" gradientUnits="userSpaceOnUse">
<stop stop-color="#076AFF"/>
<stop offset="1" stop-color="#0D1E82"/>
</linearGradient>
<linearGradient id="paint1_linear_293_36" x1="114.717" y1="35.1543" x2="114.717" y2="245" gradientUnits="userSpaceOnUse">
<stop stop-color="#076AFF"/>
<stop offset="1" stop-color="#0D1E82"/>
</linearGradient>
<linearGradient id="paint2_linear_293_36" x1="165.192" y1="34.8455" x2="165.192" y2="245" gradientUnits="userSpaceOnUse">
<stop stop-color="#076AFF"/>
<stop offset="1" stop-color="#0D1E82"/>
</linearGradient>
<linearGradient id="paint3_linear_293_36" x1="140" y1="81.6665" x2="140" y2="198.333" gradientUnits="userSpaceOnUse">
<stop stop-color="#076AFF"/>
<stop offset="1" stop-color="#0D1E82"/>
</linearGradient>
<linearGradient id="paint4_linear_293_36" x1="140" y1="35" x2="140" y2="245" gradientUnits="userSpaceOnUse">
<stop stop-color="#076AFF"/>
<stop offset="1" stop-color="#0D1E82"/>
</linearGradient>
</defs>
</svg>
