<svg width="50" height="52" viewBox="0 0 50 52" fill="none" xmlns="http://www.w3.org/2000/svg">
<path d="M49.9737 26.062C49.9737 23.9657 49.8035 22.436 49.4354 20.8496H25.498V30.3111H39.5487C39.2656 32.6625 37.7358 36.2035 34.3364 38.5829L34.2887 38.8997L41.8573 44.763L42.3817 44.8153C47.1974 40.3677 49.9737 33.8239 49.9737 26.062Z" fill="#4285F4"/>
<path d="M25.4981 50.9908C32.3818 50.9908 38.1607 48.7245 42.3818 44.8153L34.3365 38.5829C32.1836 40.0843 29.294 41.1325 25.4981 41.1325C18.7561 41.1325 13.0338 36.6851 10.994 30.5379L10.695 30.5633L2.82509 36.6538L2.72217 36.9399C6.9147 45.2684 15.5265 50.9908 25.4981 50.9908Z" fill="#34A853"/>
<path d="M10.9937 30.5379C10.4555 28.9515 10.144 27.2517 10.144 25.4954C10.144 23.739 10.4555 22.0393 10.9654 20.453L10.9511 20.1151L2.9826 13.9267L2.72189 14.0507C0.993941 17.5068 0.00244141 21.3878 0.00244141 25.4954C0.00244141 29.603 0.993941 33.4838 2.72189 36.9399L10.9937 30.5379Z" fill="#FBBC05"/>
<path d="M25.4981 9.85816C30.2855 9.85816 33.5149 11.9261 35.3563 13.6543L42.5517 6.62881C38.1326 2.52122 32.3818 0 25.4981 0C15.5265 0 6.9147 5.72226 2.72217 14.0507L10.9657 20.453C13.0338 14.3058 18.7561 9.85816 25.4981 9.85816Z" fill="#EB4335"/>
</svg>
