<svg width="240" height="206" viewBox="0 0 240 206" fill="none" xmlns="http://www.w3.org/2000/svg">
<g filter="url(#filter0_b_174_52)">
<rect x="11.3606" y="105.438" width="214.815" height="33.8262" rx="7.75" transform="rotate(-10.1853 11.3606 105.438)" fill="url(#paint0_linear_174_52)" fill-opacity="0.45" stroke="#9A9A9A" stroke-width="0.5"/>
<path opacity="0.75" d="M48.6812 119.232L46.735 119.581L48.1605 110.459L50.501 110.039L55.0023 118.099L53.0561 118.448L49.7162 112.206L49.6491 112.218L48.6812 119.232ZM47.9542 115.877L52.5514 115.053L52.8056 116.471L48.2084 117.295L47.9542 115.877ZM57.8709 110.935L58.1115 112.277L54.2316 112.973L53.991 111.63L57.8709 110.935ZM54.5951 109.929L56.382 109.609L57.4587 115.615C57.4883 115.78 57.5365 115.904 57.6034 115.987C57.6698 116.068 57.751 116.118 57.847 116.139C57.9458 116.158 58.0553 116.158 58.1755 116.136C58.2594 116.121 58.3421 116.099 58.4235 116.07C58.5043 116.038 58.5664 116.014 58.6096 115.998L59.129 117.277C59.0446 117.321 58.9245 117.376 58.7688 117.441C58.6137 117.509 58.4208 117.568 58.1902 117.618C57.7626 117.712 57.3748 117.723 57.0268 117.649C56.6817 117.576 56.3948 117.416 56.1662 117.172C55.9376 116.927 55.7869 116.593 55.714 116.17L54.5951 109.929ZM60.5751 108.233L62.1151 116.824L60.3283 117.144L58.7883 108.554L60.5751 108.233ZM65.4055 116.359C64.9944 116.433 64.6153 116.428 64.2682 116.343C63.9205 116.255 63.6277 116.087 63.3897 115.838C63.154 115.586 62.9981 115.247 62.9219 114.822C62.8577 114.464 62.8696 114.152 62.9574 113.885C63.0452 113.618 63.1891 113.39 63.389 113.201C63.5889 113.012 63.8261 112.854 64.1006 112.727C64.3779 112.6 64.6732 112.492 64.9865 112.404C65.3541 112.298 65.6496 112.207 65.8729 112.133C66.0957 112.055 66.2526 111.972 66.3435 111.884C66.4344 111.795 66.4676 111.682 66.443 111.545L66.4385 111.52C66.3909 111.255 66.2702 111.064 66.0763 110.949C65.8853 110.833 65.6373 110.802 65.3325 110.857C65.011 110.915 64.7679 111.032 64.6033 111.209C64.4382 111.382 64.344 111.581 64.3205 111.805L62.6438 111.967C62.6576 111.56 62.7619 111.192 62.9568 110.863C63.1513 110.531 63.429 110.253 63.7902 110.03C64.1536 109.803 64.5925 109.643 65.1071 109.551C65.465 109.487 65.8151 109.467 66.1573 109.493C66.5023 109.517 66.8178 109.595 67.1039 109.726C67.3927 109.856 67.636 110.046 67.8339 110.296C68.0312 110.544 68.1642 110.859 68.2329 111.242L69.0119 115.587L67.3173 115.891L67.1572 114.998L67.1068 115.007C67.0395 115.227 66.9329 115.429 66.7871 115.614C66.6408 115.796 66.4538 115.952 66.226 116.083C65.9978 116.21 65.7243 116.302 65.4055 116.359ZM65.6961 115.035C65.959 114.987 66.1818 114.894 66.3646 114.755C66.5469 114.612 66.6793 114.441 66.7619 114.242C66.8444 114.042 66.8654 113.829 66.8248 113.603L66.7023 112.919C66.6528 112.965 66.582 113.013 66.4896 113.061C66.3995 113.106 66.2966 113.152 66.1809 113.199C66.0647 113.243 65.9482 113.285 65.8315 113.326C65.7142 113.365 65.6079 113.399 65.5126 113.431C65.3084 113.499 65.134 113.581 64.9894 113.676C64.8448 113.772 64.7395 113.884 64.6734 114.014C64.6067 114.142 64.5885 114.289 64.6185 114.457C64.6621 114.7 64.7836 114.871 64.9828 114.968C65.1843 115.061 65.4221 115.084 65.6961 115.035ZM74.9331 109.772L73.3153 110.166C73.2623 110.031 73.1796 109.916 73.0673 109.821C72.9544 109.723 72.8165 109.654 72.6535 109.614C72.4927 109.571 72.3089 109.567 72.102 109.605C71.8251 109.654 71.6022 109.755 71.4331 109.906C71.2635 110.055 71.196 110.226 71.2306 110.419C71.2581 110.573 71.343 110.692 71.4851 110.776C71.6271 110.86 71.8536 110.907 72.1643 110.918L73.3725 110.944C74.0219 110.96 74.526 111.084 74.8847 111.314C75.2435 111.544 75.4644 111.891 75.5476 112.355C75.6233 112.777 75.5653 113.17 75.3736 113.533C75.1847 113.896 74.8909 114.206 74.4924 114.462C74.0961 114.715 73.6184 114.891 73.0591 114.992C72.2062 115.145 71.4949 115.089 70.9251 114.824C70.3576 114.557 69.9753 114.123 69.7784 113.523L71.5193 113.116C71.6191 113.367 71.7833 113.542 72.012 113.643C72.2402 113.74 72.5137 113.76 72.8324 113.703C73.1456 113.647 73.3865 113.542 73.5551 113.388C73.726 113.23 73.7956 113.054 73.7638 112.861C73.7319 112.699 73.6396 112.579 73.4868 112.499C73.3335 112.417 73.1121 112.373 72.8224 112.367L71.6668 112.345C71.0151 112.332 70.5076 112.198 70.1443 111.943C69.7839 111.687 69.5606 111.318 69.4743 110.838C69.4002 110.424 69.4481 110.047 69.6182 109.708C69.791 109.368 70.067 109.08 70.4462 108.845C70.8282 108.609 71.2947 108.442 71.8455 108.343C72.6593 108.197 73.3305 108.254 73.8591 108.515C74.3905 108.774 74.7486 109.194 74.9331 109.772ZM81.5657 108.583L79.9479 108.977C79.8948 108.842 79.8122 108.727 79.6998 108.632C79.587 108.534 79.4491 108.465 79.286 108.425C79.1253 108.382 78.9415 108.378 78.7345 108.415C78.4577 108.465 78.2347 108.566 78.0656 108.717C77.896 108.866 77.8285 109.037 77.8631 109.23C77.8907 109.384 77.9755 109.503 78.1176 109.587C78.2597 109.671 78.4861 109.718 78.7968 109.729L80.005 109.755C80.6545 109.771 81.1585 109.894 81.5173 110.125C81.876 110.355 82.097 110.702 82.1802 111.166C82.2559 111.588 82.1979 111.981 82.0061 112.344C81.8172 112.707 81.5235 113.017 81.1249 113.273C80.7287 113.526 80.2509 113.702 79.6916 113.803C78.8388 113.956 78.1274 113.9 77.5576 113.635C76.9901 113.368 76.6079 112.934 76.4109 112.334L78.1519 111.927C78.2516 112.178 78.4158 112.353 78.6445 112.454C78.8727 112.551 79.1462 112.571 79.465 112.514C79.7782 112.458 80.0191 112.353 80.1877 112.199C80.3586 112.041 80.4281 111.865 80.3963 111.672C80.3644 111.51 80.2721 111.39 80.1193 111.31C79.9661 111.228 79.7446 111.184 79.4549 111.178L78.2994 111.156C77.6476 111.143 77.1401 111.009 76.7769 110.754C76.4164 110.498 76.1931 110.129 76.1069 109.649C76.0327 109.235 76.0806 108.858 76.2507 108.519C76.4236 108.179 76.6996 107.891 77.0788 107.656C77.4608 107.42 77.9272 107.253 78.4781 107.154C79.2918 107.008 79.963 107.065 80.4916 107.326C81.0231 107.585 81.3811 108.005 81.5657 108.583ZM83.6633 112.961L82.5083 106.518L84.2952 106.198L85.4501 112.641L83.6633 112.961ZM83.257 105.527C82.9914 105.574 82.7477 105.527 82.526 105.385C82.3065 105.24 82.1745 105.042 82.1299 104.794C82.0858 104.548 82.1416 104.32 82.2974 104.11C82.4554 103.897 82.6673 103.766 82.9329 103.719C83.1986 103.671 83.4411 103.72 83.6606 103.865C83.8823 104.008 84.0152 104.202 84.0593 104.448C84.104 104.697 84.0472 104.928 83.8892 105.141C83.7334 105.35 83.5227 105.479 83.257 105.527ZM88.7405 112.176C88.3294 112.25 87.9503 112.244 87.6032 112.159C87.2556 112.072 86.9627 111.903 86.7248 111.654C86.4891 111.402 86.3331 111.064 86.2569 110.639C86.1928 110.281 86.2046 109.968 86.2924 109.701C86.3802 109.435 86.5241 109.207 86.724 109.018C86.924 108.829 87.1612 108.671 87.4357 108.544C87.7129 108.416 88.0082 108.309 88.3215 108.221C88.6892 108.114 88.9847 108.024 89.2079 107.949C89.4307 107.872 89.5876 107.789 89.6785 107.7C89.7694 107.612 89.8026 107.499 89.7781 107.362L89.7735 107.337C89.7259 107.071 89.6052 106.881 89.4113 106.766C89.2203 106.65 88.9724 106.619 88.6676 106.674C88.346 106.731 88.1029 106.849 87.9383 107.025C87.7732 107.199 87.679 107.398 87.6556 107.621L85.9789 107.784C85.9926 107.377 86.0969 107.009 86.2918 106.68C86.4863 106.348 86.7641 106.07 87.1252 105.846C87.4886 105.62 87.9276 105.46 88.4421 105.368C88.8 105.304 89.1501 105.284 89.4923 105.309C89.8373 105.334 90.1528 105.412 90.4389 105.542C90.7277 105.672 90.9711 105.863 91.1689 106.113C91.3662 106.36 91.4992 106.676 91.5679 107.059L92.3469 111.404L90.6524 111.708L90.4922 110.814L90.4419 110.824C90.3745 111.043 90.2679 111.246 90.1221 111.431C89.9758 111.613 89.7888 111.769 89.561 111.899C89.3328 112.027 89.0593 112.119 88.7405 112.176ZM89.0312 110.851C89.294 110.804 89.5168 110.711 89.6996 110.571C89.8819 110.429 90.0143 110.258 90.0969 110.058C90.1795 109.859 90.2005 109.646 90.1599 109.419L90.0373 108.736C89.9879 108.782 89.917 108.829 89.8246 108.878C89.7346 108.923 89.6317 108.969 89.5159 109.015C89.3997 109.059 89.2832 109.102 89.1665 109.143C89.0493 109.181 88.943 109.216 88.8476 109.248C88.6434 109.316 88.469 109.398 88.3244 109.493C88.1799 109.588 88.0745 109.701 88.0084 109.831C87.9418 109.958 87.9235 110.106 87.9536 110.274C87.9972 110.517 88.1186 110.687 88.3178 110.784C88.5193 110.878 88.7571 110.9 89.0312 110.851ZM94.8523 107.111L95.5201 110.835L93.7332 111.156L92.5782 104.713L94.2812 104.408L94.485 105.544L94.5605 105.531C94.6359 105.13 94.8219 104.791 95.1183 104.513C95.4143 104.232 95.8013 104.048 96.2795 103.963C96.7269 103.883 97.1346 103.91 97.5024 104.047C97.8703 104.183 98.1791 104.416 98.4288 104.746C98.678 105.074 98.8475 105.488 98.9372 105.989L99.6726 110.091L97.8858 110.411L97.2075 106.628C97.1396 106.233 96.9838 105.943 96.7401 105.759C96.4958 105.572 96.1948 105.511 95.8368 105.575C95.5963 105.618 95.3931 105.708 95.2271 105.844C95.0639 105.98 94.9483 106.157 94.8805 106.374C94.8149 106.588 94.8055 106.833 94.8523 107.111ZM103.815 109.348L102.66 102.906L104.447 102.585L105.602 109.028L103.815 109.348ZM103.408 101.914C103.143 101.962 102.899 101.915 102.677 101.772C102.458 101.627 102.326 101.43 102.281 101.181C102.237 100.935 102.293 100.707 102.449 100.497C102.607 100.284 102.819 100.154 103.084 100.106C103.35 100.059 103.593 100.108 103.812 100.253C104.034 100.395 104.167 100.589 104.211 100.835C104.255 101.084 104.199 101.315 104.041 101.528C103.885 101.738 103.674 101.867 103.408 101.914ZM111.568 103.205L109.95 103.599C109.897 103.464 109.814 103.349 109.702 103.254C109.589 103.155 109.451 103.086 109.288 103.046C109.127 103.003 108.944 103 108.737 103.037C108.46 103.087 108.237 103.187 108.068 103.339C107.898 103.487 107.831 103.658 107.865 103.851C107.893 104.005 107.978 104.124 108.12 104.208C108.262 104.292 108.488 104.34 108.799 104.351L110.007 104.376C110.657 104.393 111.161 104.516 111.519 104.746C111.878 104.976 112.099 105.323 112.182 105.787C112.258 106.21 112.2 106.603 112.008 106.966C111.819 107.329 111.526 107.638 111.127 107.895C110.731 108.147 110.253 108.324 109.694 108.424C108.841 108.577 108.13 108.521 107.56 108.257C106.992 107.989 106.61 107.556 106.413 106.956L108.154 106.549C108.254 106.799 108.418 106.975 108.647 107.075C108.875 107.173 109.148 107.193 109.467 107.136C109.78 107.08 110.021 106.974 110.19 106.82C110.361 106.662 110.43 106.487 110.398 106.293C110.367 106.132 110.274 106.011 110.122 105.932C109.968 105.85 109.747 105.806 109.457 105.8L108.302 105.778C107.65 105.764 107.142 105.63 106.779 105.375C106.419 105.119 106.195 104.751 106.109 104.27C106.035 103.856 106.083 103.48 106.253 103.14C106.426 102.8 106.702 102.513 107.081 102.277C107.463 102.042 107.929 101.874 108.48 101.776C109.294 101.63 109.965 101.687 110.494 101.947C111.025 102.207 111.383 102.626 111.568 103.205ZM117.518 103.047L118.186 106.772L116.399 107.092L114.859 98.5019L116.596 98.1906L117.185 101.475L117.26 101.461C117.337 101.055 117.519 100.715 117.805 100.442C118.09 100.165 118.477 99.9834 118.966 99.8957C119.414 99.8154 119.822 99.8434 120.189 99.9795C120.56 100.112 120.869 100.344 121.119 100.674C121.371 101.001 121.541 101.417 121.628 101.921L122.364 106.023L120.577 106.343L119.899 102.56C119.83 102.162 119.674 101.871 119.431 101.687C119.19 101.502 118.887 101.442 118.524 101.508C118.281 101.551 118.074 101.642 117.906 101.779C117.74 101.915 117.621 102.092 117.551 102.31C117.482 102.524 117.472 102.77 117.518 103.047ZM123.77 105.771L122.615 99.3282L124.402 99.0078L125.557 105.451L123.77 105.771ZM123.364 98.3367C123.098 98.3844 122.854 98.3371 122.633 98.1951C122.413 98.0497 122.281 97.8526 122.237 97.6037C122.192 97.3576 122.248 97.1297 122.404 96.9199C122.562 96.7069 122.774 96.5765 123.04 96.5289C123.305 96.4813 123.548 96.5302 123.767 96.6755C123.989 96.8176 124.122 97.0117 124.166 97.2578C124.211 97.5067 124.154 97.7376 123.996 97.9507C123.84 98.1604 123.629 98.2891 123.364 98.3367ZM126.988 105.194L125.833 98.7512L127.566 98.4407L127.767 99.5648L127.834 99.5528C127.88 99.1318 128.023 98.7945 128.263 98.5407C128.503 98.2842 128.803 98.1236 129.164 98.0589C129.253 98.0429 129.351 98.0312 129.456 98.0238C129.562 98.0164 129.655 98.0155 129.737 98.0211L130.021 99.6066C129.933 99.5965 129.813 99.5949 129.661 99.6019C129.51 99.6089 129.372 99.6234 129.249 99.6455C128.986 99.6926 128.762 99.792 128.575 99.9438C128.391 100.092 128.257 100.278 128.173 100.501C128.092 100.723 128.075 100.966 128.122 101.229L128.775 104.874L126.988 105.194ZM131.821 104.328L130.666 97.8848L132.453 97.5645L133.608 104.007L131.821 104.328ZM131.415 96.8934C131.149 96.941 130.906 96.8938 130.684 96.7517C130.465 96.6063 130.333 96.4092 130.288 96.1603C130.244 95.9142 130.3 95.6863 130.455 95.4766C130.613 95.2635 130.825 95.1332 131.091 95.0856C131.357 95.0379 131.599 95.0868 131.819 95.2322C132.04 95.3743 132.173 95.5683 132.217 95.8144C132.262 96.0633 132.205 96.2943 132.047 96.5073C131.891 96.7171 131.681 96.8458 131.415 96.8934ZM136.159 99.7056L136.826 103.43L135.04 103.751L133.885 97.3079L135.588 97.0026L135.791 98.1393L135.867 98.1258C135.942 97.7255 136.128 97.3862 136.425 97.1079C136.721 96.8269 137.108 96.6435 137.586 96.5578C138.033 96.4775 138.441 96.5055 138.809 96.6416C139.177 96.7777 139.485 97.0109 139.735 97.3414C139.984 97.669 140.154 98.0831 140.244 98.5836L140.979 102.686L139.192 103.006L138.514 99.2228C138.446 98.828 138.29 98.5384 138.046 98.3541C137.802 98.167 137.501 98.1055 137.143 98.1697C136.903 98.2128 136.699 98.3026 136.533 98.4392C136.37 98.5752 136.255 98.7518 136.187 98.9689C136.121 99.1827 136.112 99.4282 136.159 99.7056ZM145.747 104.463C145.168 104.567 144.658 104.576 144.215 104.491C143.776 104.408 143.41 104.253 143.119 104.025C142.827 103.798 142.614 103.521 142.481 103.196L144.093 102.677C144.167 102.797 144.268 102.903 144.397 102.995C144.526 103.088 144.686 103.151 144.877 103.186C145.072 103.224 145.299 103.219 145.559 103.172C145.948 103.103 146.251 102.95 146.468 102.715C146.689 102.482 146.76 102.144 146.681 101.703L146.47 100.524L146.394 100.538C146.348 100.731 146.261 100.921 146.133 101.108C146.005 101.296 145.827 101.462 145.599 101.607C145.371 101.751 145.086 101.854 144.745 101.916C144.261 102.002 143.801 101.969 143.363 101.817C142.929 101.661 142.552 101.372 142.234 100.95C141.918 100.525 141.696 99.9554 141.568 99.2423C141.438 98.5125 141.447 97.8816 141.597 97.3496C141.747 96.8176 141.997 96.3946 142.348 96.0807C142.702 95.7662 143.115 95.5666 143.587 95.4819C143.948 95.4172 144.261 95.4246 144.526 95.504C144.791 95.5807 145.014 95.6966 145.195 95.8518C145.378 96.0037 145.525 96.159 145.638 96.3179L145.705 96.3058L145.511 95.2237L147.285 94.9056L148.451 101.411C148.549 101.959 148.497 102.442 148.295 102.859C148.093 103.276 147.771 103.62 147.328 103.89C146.889 104.162 146.362 104.353 145.747 104.463ZM145.07 100.472C145.358 100.42 145.589 100.305 145.762 100.127C145.937 99.9455 146.054 99.711 146.112 99.4235C146.172 99.1327 146.169 98.7986 146.101 98.4211C146.034 98.0435 145.922 97.7259 145.766 97.4681C145.609 97.2075 145.417 97.0184 145.188 96.9007C144.959 96.783 144.701 96.7499 144.412 96.8016C144.119 96.8542 143.886 96.9783 143.713 97.1738C143.54 97.3664 143.426 97.6119 143.373 97.9101C143.32 98.2082 143.326 98.5405 143.392 98.9068C143.458 99.2787 143.568 99.591 143.72 99.8437C143.874 100.093 144.064 100.274 144.289 100.387C144.516 100.496 144.777 100.524 145.07 100.472ZM151.593 99.5708L151.63 100.04C151.66 100.416 151.656 100.796 151.618 101.181C151.583 101.568 151.537 101.922 151.479 102.241C151.423 102.56 151.378 102.81 151.341 102.993L150.183 103.2C150.196 103.028 150.212 102.787 150.231 102.478C150.251 102.171 150.261 101.829 150.259 101.451C150.258 101.073 150.232 100.692 150.18 100.309L150.117 99.8355L151.593 99.5708ZM157.627 99.827C157.216 99.9007 156.837 99.895 156.489 99.8101C156.142 99.7223 155.849 99.554 155.611 99.3052C155.375 99.053 155.219 98.7144 155.143 98.2894C155.079 97.9314 155.091 97.6191 155.179 97.3522C155.266 97.0854 155.41 96.8576 155.61 96.6687C155.81 96.4799 156.047 96.322 156.322 96.1948C156.599 96.0672 156.894 95.9594 157.208 95.8715C157.575 95.7652 157.871 95.6747 158.094 95.6C158.317 95.5226 158.474 95.4396 158.565 95.3512C158.656 95.2627 158.689 95.15 158.664 95.0129L158.66 94.9878C158.612 94.7221 158.491 94.5316 158.298 94.4163C158.106 94.3005 157.859 94.2699 157.554 94.3245C157.232 94.3822 156.989 94.4993 156.825 94.676C156.659 94.8499 156.565 95.0487 156.542 95.2722L154.865 95.4343C154.879 95.0277 154.983 94.6598 155.178 94.3305C155.372 93.9983 155.65 93.7205 156.011 93.497C156.375 93.2703 156.814 93.1108 157.328 93.0185C157.686 92.9544 158.036 92.9349 158.379 92.9601C158.724 92.9849 159.039 93.0625 159.325 93.1931C159.614 93.3231 159.857 93.5133 160.055 93.7635C160.252 94.011 160.385 94.3263 160.454 94.7094L161.233 99.0549L159.539 99.3587L159.378 98.4652L159.328 98.4743C159.261 98.6942 159.154 98.8965 159.008 99.0814C158.862 99.2635 158.675 99.4197 158.447 99.55C158.219 99.6775 157.945 99.7698 157.627 99.827ZM157.917 98.502C158.18 98.4549 158.403 98.3616 158.586 98.222C158.768 98.0797 158.901 97.9087 158.983 97.7092C159.066 97.5097 159.087 97.2967 159.046 97.0702L158.923 96.3865C158.874 96.4329 158.803 96.4802 158.711 96.5285C158.621 96.5735 158.518 96.6194 158.402 96.6661C158.286 96.71 158.169 96.7526 158.053 96.7937C157.935 96.832 157.829 96.867 157.734 96.8985C157.53 96.9668 157.355 97.0486 157.211 97.1438C157.066 97.239 156.961 97.3517 156.895 97.4819C156.828 97.6092 156.81 97.7568 156.84 97.9246C156.883 98.1679 157.005 98.3381 157.204 98.4351C157.406 98.5289 157.643 98.5512 157.917 98.502ZM163.053 101.222L161.464 92.3636L163.226 92.0478L163.42 93.13L163.5 93.1157C163.547 92.9283 163.629 92.7318 163.745 92.5263C163.863 92.3175 164.032 92.1314 164.251 91.968C164.472 91.8014 164.763 91.6857 165.124 91.621C165.594 91.5368 166.049 91.5821 166.49 91.757C166.931 91.9291 167.314 92.24 167.64 92.6895C167.966 93.1362 168.194 93.7287 168.327 94.467C168.456 95.1856 168.448 95.8132 168.305 96.3498C168.164 96.8831 167.918 97.3125 167.566 97.6382C167.217 97.9605 166.798 98.1656 166.308 98.2533C165.962 98.3154 165.656 98.311 165.393 98.24C165.131 98.1684 164.909 98.0598 164.724 97.914C164.538 97.7654 164.389 97.6088 164.276 97.4444L164.221 97.4542L164.839 100.902L163.053 101.222ZM163.791 95.2714C163.86 95.6545 163.973 95.9792 164.13 96.2453C164.288 96.5115 164.481 96.7063 164.711 96.8296C164.94 96.9501 165.199 96.9845 165.487 96.9329C165.778 96.8807 166.01 96.7569 166.183 96.5614C166.355 96.3631 166.467 96.1121 166.519 95.8083C166.574 95.5013 166.568 95.1604 166.501 94.7857C166.434 94.4138 166.324 94.0959 166.17 93.832C166.015 93.5681 165.823 93.3745 165.594 93.2512C165.364 93.1279 165.102 93.0926 164.808 93.1452C164.517 93.1974 164.285 93.3184 164.111 93.5083C163.94 93.6977 163.827 93.9431 163.771 94.2446C163.716 94.546 163.722 94.8883 163.791 95.2714ZM170.527 99.8824L168.939 91.0237L170.701 90.7078L170.895 91.79L170.974 91.7757C171.022 91.5883 171.103 91.3918 171.219 91.1863C171.338 90.9775 171.507 90.7914 171.725 90.628C171.947 90.4614 172.238 90.3457 172.598 90.2811C173.068 90.1968 173.524 90.2422 173.965 90.4171C174.406 90.5892 174.789 90.9 175.115 91.3495C175.44 91.7963 175.669 92.3888 175.801 93.127C175.93 93.8457 175.923 94.4733 175.78 95.0098C175.639 95.5431 175.392 95.9725 175.041 96.2982C174.692 96.6205 174.272 96.8256 173.783 96.9133C173.436 96.9755 173.131 96.971 172.867 96.9C172.606 96.8285 172.383 96.7198 172.198 96.574C172.013 96.4254 171.864 96.2689 171.75 96.1044L171.696 96.1142L172.314 99.5621L170.527 99.8824ZM171.266 93.9315C171.334 94.3146 171.447 94.6392 171.605 94.9054C171.762 95.1715 171.956 95.3663 172.186 95.4896C172.415 95.6101 172.674 95.6445 172.962 95.5929C173.253 95.5407 173.484 95.4169 173.657 95.2215C173.829 95.0232 173.942 94.7721 173.994 94.4684C174.049 94.1613 174.042 93.8204 173.975 93.4457C173.909 93.0738 173.798 92.7559 173.644 92.492C173.49 92.2281 173.298 92.0345 173.068 91.9112C172.838 91.7879 172.576 91.7526 172.283 91.8053C171.992 91.8574 171.76 91.9784 171.586 92.1683C171.415 92.3577 171.302 92.6031 171.246 92.9046C171.19 93.2061 171.197 93.5484 171.266 93.9315ZM177.815 87.2158L179.355 95.8061L177.569 96.1264L176.029 87.5361L177.815 87.2158ZM182.323 97.7678C182.097 97.8084 181.881 97.8283 181.676 97.8275C181.474 97.8291 181.304 97.8148 181.166 97.7847L181.329 96.3787C181.551 96.4054 181.746 96.4065 181.914 96.382C182.086 96.3571 182.226 96.2916 182.334 96.1856C182.445 96.0792 182.521 95.9183 182.563 95.7029L182.619 95.4115L179.12 89.1985L180.999 88.8616L183.181 93.3539L183.248 93.3419L183.747 88.3691L185.638 88.03L184.414 95.6179C184.356 95.9862 184.247 96.3175 184.086 96.6119C183.928 96.9085 183.705 97.1549 183.417 97.3508C183.13 97.5496 182.765 97.6886 182.323 97.7678ZM191.561 89.7737L192.228 93.4984L190.442 93.8187L189.287 87.376L190.989 87.0707L191.193 88.2074L191.269 88.1938C191.344 87.7936 191.53 87.4543 191.827 87.176C192.123 86.895 192.51 86.7116 192.988 86.6258C193.435 86.5456 193.843 86.5736 194.211 86.7097C194.579 86.8457 194.887 87.079 195.137 87.4094C195.386 87.7371 195.556 88.1512 195.646 88.6517L196.381 92.7539L194.594 93.0743L193.916 89.2908C193.848 88.896 193.692 88.6065 193.448 88.4222C193.204 88.2351 192.903 88.1736 192.545 88.2378C192.305 88.2809 192.101 88.3707 191.935 88.5073C191.772 88.6433 191.657 88.8199 191.589 89.037C191.523 89.2508 191.514 89.4963 191.561 89.7737ZM200.723 92.1055C200.071 92.2223 199.483 92.1848 198.958 91.9932C198.435 91.7983 198.001 91.475 197.654 91.0234C197.307 90.569 197.074 90.0118 196.956 89.3519C196.837 88.6864 196.861 88.0817 197.029 87.5378C197.197 86.9911 197.492 86.537 197.915 86.1755C198.34 85.8106 198.879 85.5698 199.53 85.453C200.182 85.3362 200.769 85.3752 201.292 85.5701C201.817 85.7618 202.253 86.0848 202.6 86.5392C202.946 86.9908 203.179 87.5494 203.298 88.2149C203.417 88.8749 203.392 89.4782 203.224 90.0248C203.056 90.5687 202.76 91.0231 202.334 91.3879C201.912 91.7495 201.374 91.9887 200.723 92.1055ZM200.483 90.7198C200.779 90.6666 201.012 90.5384 201.18 90.335C201.348 90.1288 201.456 89.8699 201.504 89.5583C201.555 89.2461 201.547 88.9027 201.48 88.528C201.413 88.1532 201.301 87.8284 201.145 87.5533C200.992 87.2777 200.8 87.0724 200.571 86.9375C200.342 86.8025 200.079 86.7616 199.783 86.8147C199.484 86.8683 199.247 86.9987 199.074 87.2059C198.903 87.4126 198.792 87.672 198.741 87.9842C198.693 88.2958 198.703 88.639 198.77 89.0137C198.837 89.3884 198.948 89.7136 199.101 89.9891C199.257 90.2642 199.451 90.469 199.683 90.6034C199.917 90.7346 200.184 90.7734 200.483 90.7198ZM206.143 91.004L203.234 84.8755L205.042 84.5514L206.816 88.7012L206.875 88.6907L207.139 84.1755L208.914 83.8574L210.742 87.9715L210.797 87.9617L211.007 83.4822L212.81 83.1588L212.216 89.9151L210.324 90.2543L208.491 86.4009L208.411 86.4152L208.03 90.6656L206.143 91.004ZM215.513 80.4576L216.428 86.5019L214.893 86.7771L213.647 80.7923L215.513 80.4576ZM216.142 89.3239C215.865 89.3736 215.61 89.3183 215.376 89.1582C215.142 88.9952 215.002 88.7751 214.955 88.4977C214.903 88.2242 214.959 87.9718 215.122 87.7404C215.285 87.5091 215.506 87.3686 215.782 87.319C216.048 87.2714 216.299 87.3274 216.536 87.487C216.772 87.6467 216.916 87.8633 216.968 88.1368C216.998 88.3219 216.98 88.4998 216.912 88.6707C216.847 88.8382 216.747 88.9816 216.613 89.101C216.478 89.2175 216.321 89.2919 216.142 89.3239Z" fill="white"/>
<g clip-path="url(#clip0_174_52)">
<path d="M37.2239 120.609C36.6652 120.426 36.2523 119.95 36.1486 119.372L35.9837 118.451L35.5947 116.281C35.2019 114.089 33.3257 112.303 31.2014 112.151C31.2014 112.151 30.7255 112.079 30.0168 112.206C29.3108 112.332 28.8908 112.565 28.8908 112.565C26.9541 113.447 25.7807 115.779 26.1735 117.971L26.5621 120.14L26.7281 121.066C26.8315 121.643 26.6114 122.23 26.1545 122.596L24.764 123.712L25.0465 125.288L39.2207 122.748L38.9384 121.173L37.2239 120.609ZM30.7309 125.261C30.8681 126.027 31.6836 126.522 32.5543 126.366C33.425 126.21 34.0181 125.463 33.8807 124.697L33.8496 124.523L30.6998 125.087L30.7309 125.261Z" fill="#D0D0D0"/>
</g>
</g>
<defs>
<filter id="filter0_b_174_52" x="8.35742" y="64.4484" width="223.417" height="77.2854" filterUnits="userSpaceOnUse" color-interpolation-filters="sRGB">
<feFlood flood-opacity="0" result="BackgroundImageFix"/>
<feGaussianBlur in="BackgroundImageFix" stdDeviation="2"/>
<feComposite in2="SourceAlpha" operator="in" result="effect1_backgroundBlur_174_52"/>
<feBlend mode="normal" in="SourceGraphic" in2="effect1_backgroundBlur_174_52" result="shape"/>
</filter>
<linearGradient id="paint0_linear_174_52" x1="118.728" y1="105.236" x2="118.728" y2="139.562" gradientUnits="userSpaceOnUse">
<stop stop-color="#CCCCCC"/>
<stop offset="1" stop-color="#5F5F5F"/>
</linearGradient>
<clipPath id="clip0_174_52">
<rect width="16" height="16" fill="white" transform="translate(22 112.822) rotate(-10.16)"/>
</clipPath>
</defs>
</svg>
