<svg width="134" height="125" viewBox="0 0 134 125" fill="none" xmlns="http://www.w3.org/2000/svg">
<g filter="url(#filter0_b_174_44)">
<rect x="26.6291" y="18.218" width="95.5" height="73.1368" rx="7.75" transform="rotate(10.2806 26.6291 18.218)" fill="url(#paint0_linear_174_44)" fill-opacity="0.45" stroke="#9A9A9A" stroke-width="0.5"/>
<path opacity="0.75" d="M30.5874 30.0963L31.3678 25.803L32.5222 26.0128L32.386 26.7619L32.4308 26.77C32.5575 26.5178 32.7254 26.3404 32.9346 26.2379C33.1442 26.1336 33.3691 26.1032 33.6095 26.1469C33.6691 26.1578 33.7327 26.1732 33.8003 26.1932C33.8679 26.2132 33.9266 26.2344 33.9764 26.257L33.7844 27.3135C33.7315 27.2866 33.6569 27.2576 33.5605 27.2266C33.4641 27.1956 33.3749 27.1727 33.2929 27.1578C33.1178 27.1259 32.9543 27.1357 32.8025 27.187C32.6529 27.2368 32.5259 27.3215 32.4214 27.4411C32.3187 27.5611 32.2515 27.7086 32.2197 27.8838L31.7781 30.3127L30.5874 30.0963ZM35.5496 31.0849C35.1079 31.0046 34.7441 30.8461 34.4579 30.6093C34.174 30.3709 33.9763 30.0713 33.8648 29.7103C33.7537 29.3474 33.7393 28.9396 33.8216 28.4868C33.9019 28.0452 34.058 27.6732 34.2901 27.3708C34.5222 27.0684 34.8107 26.8523 35.1558 26.7225C35.5027 26.5931 35.8867 26.5667 36.3079 26.6432C36.5911 26.6947 36.8465 26.7883 37.074 26.924C37.3037 27.0581 37.4934 27.2322 37.6432 27.4461C37.7948 27.6604 37.897 27.9138 37.9497 28.2064C38.0027 28.497 37.996 28.825 37.9296 29.1902L37.8702 29.5173L34.2449 28.8583L34.3791 28.1204L36.8835 28.5756C36.9146 28.4042 36.905 28.2455 36.8545 28.0997C36.804 27.9538 36.7194 27.8316 36.6006 27.733C36.4841 27.6329 36.3391 27.5671 36.1659 27.5356C35.9851 27.5028 35.8172 27.5156 35.6622 27.574C35.5094 27.6309 35.3812 27.7222 35.2775 27.8477C35.1742 27.9713 35.1062 28.1178 35.0735 28.287L34.946 28.9886C34.9074 29.201 34.9131 29.3917 34.9633 29.5606C35.0153 29.7298 35.1064 29.8696 35.2365 29.9798C35.3666 30.0901 35.5313 30.1634 35.7307 30.1996C35.863 30.2236 35.9875 30.227 36.1042 30.2097C36.2209 30.1925 36.3252 30.1537 36.417 30.0934C36.5088 30.033 36.585 29.9526 36.6457 29.852L37.7337 30.1248C37.6297 30.3793 37.4731 30.5895 37.2639 30.7555C37.0569 30.92 36.8074 31.0325 36.5154 31.093C36.2255 31.1519 35.9036 31.1492 35.5496 31.0849ZM42.4424 29.0808L41.3401 28.9497C41.3384 28.8532 41.3136 28.762 41.2657 28.6763C41.2181 28.5887 41.148 28.5134 41.0555 28.4504C40.9652 28.3859 40.8511 28.3411 40.7132 28.316C40.5288 28.2825 40.366 28.2933 40.2251 28.3486C40.0845 28.4019 40.0025 28.4929 39.9792 28.6215C39.9605 28.724 39.9858 28.8181 40.0549 28.9038C40.124 28.9895 40.2544 29.0719 40.446 29.151L41.1945 29.4488C41.5964 29.6104 41.8825 29.8048 42.0529 30.0321C42.2233 30.2595 42.2804 30.5278 42.2242 30.8371C42.1731 31.1185 42.0453 31.3503 41.8408 31.5326C41.6382 31.7152 41.3826 31.8401 41.074 31.9072C40.7675 31.9727 40.4279 31.9717 40.0553 31.9039C39.4869 31.8006 39.0556 31.6 38.7614 31.302C38.4693 31.0025 38.3317 30.6426 38.3484 30.2221L39.5307 30.3735C39.5346 30.5532 39.5963 30.7011 39.7157 30.8171C39.8355 30.9313 40.0016 31.0077 40.214 31.0463C40.4227 31.0843 40.5977 31.0747 40.739 31.0176C40.8825 30.959 40.9668 30.8655 40.9921 30.7373C41.0099 30.6289 40.9803 30.5321 40.9034 30.4469C40.8268 30.3598 40.6987 30.2807 40.5192 30.2096L39.8026 29.9263C39.3986 29.7662 39.1129 29.5641 38.9455 29.32C38.78 29.0763 38.7264 28.7941 38.7846 28.4736C38.8348 28.1978 38.9525 27.9738 39.1378 27.8015C39.325 27.6296 39.5644 27.5143 39.8561 27.4557C40.1497 27.3974 40.48 27.4016 40.8471 27.4683C41.3894 27.5669 41.7952 27.7591 42.0648 28.0448C42.3362 28.3309 42.462 28.6763 42.4424 29.0808ZM45.8176 30.9763L46.2657 28.5111L47.4565 28.7275L46.676 33.0208L45.5328 32.813L45.6746 32.0331L45.6299 32.025C45.4873 32.259 45.2893 32.4318 45.0361 32.5437C44.7847 32.6558 44.4978 32.6826 44.1754 32.624C43.8885 32.5718 43.6478 32.4607 43.4535 32.2906C43.2592 32.1206 43.1224 31.9042 43.0431 31.6414C42.9657 31.379 42.9566 31.08 43.0157 30.7442L43.5126 28.0106L44.7033 28.227L44.245 30.7482C44.2008 31.002 44.2324 31.2147 44.3398 31.3863C44.4472 31.5579 44.6136 31.6641 44.8391 31.7051C44.9826 31.7312 45.1227 31.723 45.2594 31.6805C45.3964 31.6361 45.515 31.5556 45.6151 31.4391C45.7171 31.3228 45.7846 31.1686 45.8176 30.9763ZM47.6285 33.1939L48.4089 28.9006L49.5437 29.1069L49.406 29.8644L49.4563 29.8735C49.5915 29.6382 49.7766 29.4669 50.0118 29.3595C50.2469 29.2521 50.5098 29.2248 50.8005 29.2776C51.0949 29.3311 51.3321 29.4503 51.5122 29.6351C51.6926 29.818 51.7946 30.0406 51.8182 30.3029L51.8629 30.311C51.9952 30.0809 52.1893 29.9131 52.4453 29.8076C52.7034 29.7005 52.99 29.6756 53.3049 29.7328C53.7055 29.8057 54.0075 29.9924 54.2108 30.2931C54.4163 30.5922 54.4767 30.9747 54.392 31.4406L53.8672 34.3279L52.6792 34.112L53.1614 31.4595C53.2048 31.2209 53.1739 31.0305 53.0689 30.8882C52.9639 30.746 52.8163 30.6575 52.6262 30.623C52.4101 30.5837 52.2289 30.622 52.0827 30.7379C51.9369 30.8519 51.8436 31.0207 51.803 31.2443L51.3264 33.8661L50.172 33.6563L50.6588 30.9786C50.697 30.768 50.667 30.5893 50.5685 30.4424C50.472 30.2959 50.3259 30.2048 50.1302 30.1693C49.9979 30.1452 49.8725 30.1571 49.7541 30.2049C49.6379 30.2511 49.5382 30.3283 49.4551 30.4364C49.3722 30.5426 49.3164 30.6749 49.2876 30.8333L48.8192 33.4104L47.6285 33.1939ZM56.749 34.9384C56.3074 34.8581 55.9435 34.6996 55.6574 34.4628C55.3735 34.2245 55.1758 33.9248 55.0643 33.5638C54.9532 33.201 54.9388 32.7931 55.0211 32.3403C55.1013 31.8987 55.2575 31.5267 55.4896 31.2243C55.7216 30.9219 56.0102 30.7058 56.3553 30.5761C56.7022 30.4466 57.0862 30.4202 57.5073 30.4967C57.7906 30.5482 58.0459 30.6418 58.2735 30.7775C58.5032 30.9116 58.6929 31.0857 58.8427 31.2996C58.9943 31.5139 59.0964 31.7673 59.1491 32.0599C59.2022 32.3506 59.1955 32.6785 59.1291 33.0438L59.0697 33.3708L55.4444 32.7118L55.5785 31.9739L58.083 32.4291C58.1141 32.2577 58.1045 32.0991 58.054 31.9532C58.0035 31.8074 57.9189 31.6851 57.8001 31.5866C57.6836 31.4865 57.5386 31.4206 57.3653 31.3891C57.1846 31.3563 57.0167 31.3691 56.8617 31.4275C56.7089 31.4845 56.5807 31.5757 56.477 31.7012C56.3737 31.8249 56.3057 31.9713 56.273 32.1406L56.1455 32.8421C56.1069 33.0546 56.1126 33.2452 56.1628 33.4141C56.2148 33.5833 56.3058 33.7231 56.4359 33.8334C56.566 33.9436 56.7308 34.0169 56.9302 34.0531C57.0625 34.0772 57.187 34.0806 57.3037 34.0633C57.4204 34.046 57.5247 34.0072 57.6165 33.9469C57.7083 33.8866 57.7845 33.8061 57.8452 33.7055L58.9332 33.9783C58.8292 34.2328 58.6726 34.443 58.4634 34.609C58.2564 34.7735 58.0069 34.886 57.7149 34.9465C57.425 35.0055 57.1031 35.0028 56.749 34.9384Z" fill="white"/>
<path opacity="0.75" d="M23.7069 68.0259C23.2265 67.9367 22.8343 67.7432 22.5304 67.4454C22.2284 67.1479 22.0247 66.7596 21.9193 66.2804C21.8157 65.8015 21.8218 65.2491 21.9375 64.6234C22.051 63.9991 22.2399 63.4839 22.5043 63.0777C22.7706 62.6718 23.0969 62.3856 23.4833 62.219C23.8719 62.051 24.3057 62.0105 24.7846 62.0975C25.2635 62.1846 25.6543 62.375 25.957 62.6687C26.2616 62.9627 26.4671 63.3466 26.5735 63.8202C26.6802 64.292 26.6759 64.8398 26.5606 65.4637C26.4465 66.0917 26.2557 66.6114 25.9884 67.0229C25.723 67.4347 25.3966 67.7267 25.0092 67.8988C24.6218 68.071 24.1877 68.1133 23.7069 68.0259ZM23.8893 67.0225C24.2173 67.0821 24.5091 66.9648 24.7647 66.6705C25.0203 66.3763 25.2071 65.8992 25.3252 65.2392C25.4041 64.805 25.4251 64.4354 25.3881 64.1303C25.3531 63.8255 25.2677 63.5858 25.132 63.4109C24.9981 63.2365 24.8222 63.1294 24.6042 63.0898C24.2781 63.0305 23.9876 63.1461 23.7327 63.4367C23.4777 63.7272 23.2902 64.1975 23.1701 64.8474C23.0902 65.2872 23.0673 65.6623 23.1013 65.9726C23.1376 66.2814 23.2234 66.5242 23.3588 66.7008C23.4945 66.8756 23.6713 66.9829 23.8893 67.0225Z" fill="white"/>
<path opacity="0.75" d="M95.2033 77.0399L94.1628 82.7643L92.9525 82.5443L93.7842 77.9687L93.7507 77.9626L92.2904 78.546L92.4855 77.4727L94.0657 76.8331L95.2033 77.0399ZM97.7449 83.5453C97.2645 83.4561 96.8723 83.2626 96.5684 82.9648C96.2663 82.6673 96.0626 82.279 95.9572 81.7998C95.8537 81.3209 95.8598 80.7685 95.9754 80.1428C96.0889 79.5185 96.2779 79.0033 96.5423 78.5971C96.8086 78.1912 97.1349 77.905 97.5213 77.7384C97.9099 77.5704 98.3436 77.5299 98.8225 77.6169C99.3014 77.704 99.6922 77.8944 99.995 78.1881C100.3 78.4821 100.505 78.866 100.611 79.3396C100.718 79.8114 100.714 80.3592 100.599 80.9831C100.484 81.6111 100.294 82.1308 100.026 82.5423C99.761 82.9541 99.4345 83.2461 99.0471 83.4182C98.6597 83.5904 98.2256 83.6327 97.7449 83.5453ZM97.9273 82.5419C98.2552 82.6015 98.547 82.4842 98.8026 82.1899C99.0582 81.8957 99.2451 81.4186 99.3631 80.7586C99.442 80.3244 99.463 79.9548 99.4261 79.6497C99.391 79.3449 99.3056 79.1052 99.1699 78.9303C99.0361 78.7559 98.8602 78.6488 98.6421 78.6092C98.3161 78.5499 98.0255 78.6655 97.7706 78.9561C97.5157 79.2466 97.3282 79.7169 97.2081 80.3668C97.1282 80.8066 97.1052 81.1817 97.1393 81.492C97.1755 81.8008 97.2614 82.0436 97.3967 82.2202C97.5324 82.395 97.7093 82.5023 97.9273 82.5419ZM103.164 84.5304C102.683 84.4411 102.291 84.2476 101.987 83.9498C101.685 83.6524 101.482 83.264 101.376 82.7848C101.273 82.3059 101.279 81.7536 101.394 81.1278C101.508 80.5036 101.697 79.9883 101.961 79.5821C102.228 79.1762 102.554 78.89 102.94 78.7235C103.329 78.5554 103.763 78.5149 104.242 78.602C104.72 78.689 105.111 78.8794 105.414 79.1731C105.719 79.4672 105.924 79.851 106.03 80.3247C106.137 80.7964 106.133 81.3443 106.018 81.9682C105.903 82.5962 105.713 83.1159 105.445 83.5274C105.18 83.9392 104.854 84.2312 104.466 84.4033C104.079 84.5754 103.645 84.6178 103.164 84.5304ZM103.346 83.5269C103.674 83.5866 103.966 83.4692 104.222 83.175C104.477 82.8807 104.664 82.4036 104.782 81.7436C104.861 81.3094 104.882 80.9398 104.845 80.6347C104.81 80.33 104.725 80.0902 104.589 79.9154C104.455 79.7409 104.279 79.6339 104.061 79.5942C103.735 79.5349 103.445 79.6506 103.19 79.9411C102.935 80.2316 102.747 80.7019 102.627 81.3519C102.547 81.7916 102.524 82.1667 102.558 82.477C102.595 82.7858 102.68 83.0286 102.816 83.2053C102.951 83.3801 103.128 83.4873 103.346 83.5269Z" fill="white"/>
<path opacity="0.75" d="M20.3024 82.9416L25.1423 76.545L25.153 76.4863L21.0064 75.7325L21.2762 74.2483L27.3011 75.3435L27.0275 76.8487L22.1765 83.2823L20.3024 82.9416ZM29.9933 84.8245C29.3476 84.7071 28.7923 84.4979 28.3273 84.1968C27.8656 83.8934 27.5254 83.5327 27.3069 83.1147C27.0884 82.6968 27.0213 82.2558 27.1056 81.7918C27.1706 81.434 27.3114 81.1203 27.5279 80.8507C27.7477 80.5788 28.0167 80.3693 28.3351 80.2222C28.654 80.0722 28.9932 80.0011 29.3528 80.0087L29.3634 79.95C28.9218 79.7744 28.5905 79.4846 28.3694 79.0806C28.1488 78.6738 28.0812 78.2356 28.1666 77.7661C28.2473 77.3216 28.4492 76.9498 28.7722 76.6504C29.0956 76.3483 29.5018 76.1391 29.9907 76.023C30.4828 75.9046 31.0182 75.8979 31.5968 76.0031C32.1754 76.1083 32.6728 76.3026 33.089 76.5862C33.508 76.8703 33.8158 77.2106 34.0122 77.6073C34.2092 78.0011 34.2689 78.4191 34.1914 78.8612C34.1027 79.3331 33.8825 79.7189 33.5305 80.0188C33.1786 80.3186 32.7693 80.4738 32.3025 80.4842L32.2918 80.5429C32.6255 80.6613 32.9138 80.8465 33.1567 81.0986C33.4029 81.3484 33.581 81.6392 33.6911 81.971C33.8044 82.3006 33.83 82.6445 33.7677 83.0028C33.6806 83.4663 33.4612 83.8552 33.1095 84.1695C32.7579 84.4838 32.3112 84.7015 31.7695 84.8225C31.231 84.9412 30.639 84.9418 29.9933 84.8245ZM30.2357 83.4912C30.5236 83.5435 30.7845 83.5375 31.0185 83.4732C31.2531 83.4062 31.4472 83.2913 31.6009 83.1287C31.7579 82.9637 31.8586 82.7597 31.9028 82.5165C31.948 82.2678 31.925 82.0369 31.8337 81.824C31.743 81.6083 31.6 81.4263 31.4046 81.2782C31.2097 81.1273 30.9724 81.0264 30.6929 80.9756C30.4162 80.9253 30.1587 80.9362 29.9203 81.0084C29.6825 81.0778 29.4832 81.1975 29.3223 81.3675C29.1648 81.5352 29.0634 81.7434 29.0182 81.9922C28.974 82.2354 28.995 82.4615 29.0811 82.6706C29.1678 82.877 29.3105 83.053 29.5092 83.1989C29.7084 83.3419 29.9506 83.4394 30.2357 83.4912ZM30.933 79.6549C31.1734 79.6986 31.3961 79.6886 31.6012 79.6248C31.8062 79.561 31.9776 79.4521 32.1153 79.2981C32.253 79.1441 32.3425 78.9539 32.3836 78.7275C32.4243 78.5039 32.4067 78.2986 32.331 78.1116C32.2558 77.9218 32.1346 77.7626 31.9674 77.634C31.8007 77.5027 31.5943 77.4146 31.3484 77.3699C31.1052 77.3257 30.8811 77.3355 30.676 77.3993C30.4715 77.4603 30.3006 77.5664 30.1634 77.7176C30.0295 77.8665 29.9422 78.0527 29.9016 78.2763C29.8604 78.5027 29.8772 78.7122 29.9519 78.9049C30.0266 79.0975 30.1487 79.2597 30.3182 79.3916C30.4877 79.5234 30.6926 79.6112 30.933 79.6549ZM39.6098 84.788L39.6921 84.3352C39.7546 83.9914 39.8847 83.6888 40.0823 83.4273C40.2833 83.1636 40.5393 82.9704 40.8503 82.8479C41.1646 82.7232 41.5244 82.6976 41.9297 82.7713C42.3406 82.846 42.6701 82.9954 42.9181 83.2195C43.1689 83.4441 43.3391 83.7147 43.4288 84.0313C43.5218 84.3456 43.5369 84.6761 43.4739 85.0227L43.3915 85.4755C43.329 85.8193 43.1987 86.1233 43.0005 86.3876C42.8028 86.649 42.5471 86.8408 42.2333 86.9628C41.919 87.0875 41.5592 87.1131 41.1539 87.0394C40.743 86.9647 40.4138 86.8139 40.1663 86.587C39.9183 86.3629 39.7478 86.0937 39.6548 85.7794C39.5623 85.4623 39.5473 85.1318 39.6098 84.788ZM40.9121 84.557L40.8298 85.0098C40.7938 85.2083 40.8072 85.4042 40.8703 85.5975C40.9361 85.7914 41.0962 85.9115 41.3505 85.9577C41.6049 86.0039 41.7939 85.9488 41.9177 85.7923C42.0442 85.6362 42.126 85.4562 42.1631 85.2522L42.2454 84.7994C42.2825 84.5953 42.2723 84.3971 42.2149 84.2048C42.1575 84.0124 41.9974 83.8924 41.7346 83.8446C41.4831 83.7989 41.2924 83.8552 41.1625 84.0135C41.0327 84.1718 40.9492 84.353 40.9121 84.557ZM36.0965 79.0733L36.1788 78.6204C36.2418 78.2739 36.3735 77.9701 36.574 77.7091C36.775 77.4453 37.031 77.2522 37.342 77.1297C37.6558 77.0077 38.0126 76.9831 38.4123 77.0557C38.8259 77.1309 39.1568 77.2806 39.4048 77.5047C39.6528 77.7288 39.8231 77.9994 39.9156 78.3165C40.0086 78.6308 40.0236 78.9613 39.9606 79.3079L39.8783 79.7607C39.8153 80.1073 39.6835 80.4111 39.4831 80.672C39.2854 80.9335 39.0296 81.1252 38.7158 81.2472C38.4053 81.3669 38.046 81.3897 37.6379 81.3155C37.2299 81.2413 36.9004 81.0919 36.6496 80.8673C36.4021 80.6404 36.2316 80.3712 36.1381 80.0597C36.0479 79.7459 36.034 79.417 36.0965 79.0733ZM37.4072 78.8437L37.3249 79.2966C37.2878 79.5006 37.3011 79.6979 37.3646 79.8885C37.4309 80.0796 37.5871 80.1974 37.833 80.2422C38.0902 80.2889 38.2806 80.234 38.4044 80.0775C38.5309 79.9215 38.6127 79.7414 38.6498 79.5374L38.7321 79.0846C38.7692 78.8805 38.759 78.6823 38.7016 78.49C38.6442 78.2976 38.4827 78.1773 38.2172 78.1291C37.9684 78.0838 37.7802 78.142 37.6527 78.3036C37.5251 78.4653 37.4433 78.6453 37.4072 78.8437ZM35.4641 85.6976L42.9281 78.1841L44.0266 78.3838L36.5625 85.8973L35.4641 85.6976ZM53.7077 84.2582L52.0543 84.0616C52.0518 83.9168 52.0145 83.7801 51.9426 83.6515C51.8712 83.5201 51.7661 83.4072 51.6274 83.3127C51.492 83.2159 51.3208 83.1487 51.114 83.1111C50.8373 83.0608 50.5932 83.0771 50.3818 83.1599C50.1709 83.2399 50.0479 83.3764 50.0129 83.5693C49.9849 83.723 50.0228 83.8641 50.1265 83.9927C50.2301 84.1213 50.4257 84.2449 50.7131 84.3635L51.8359 84.8102C52.4387 85.0526 52.8679 85.3443 53.1235 85.6853C53.3791 86.0263 53.4648 86.4287 53.3804 86.8927C53.3037 87.3148 53.112 87.6625 52.8053 87.936C52.5014 88.2099 52.118 88.3972 51.6551 88.4978C51.1954 88.5962 50.686 88.5945 50.127 88.4929C49.2745 88.338 48.6276 88.037 48.1862 87.5901C47.7481 87.1408 47.5416 86.6009 47.5668 85.9702L49.3402 86.1973C49.3461 86.4669 49.4386 86.6887 49.6177 86.8628C49.7974 87.034 50.0466 87.1486 50.3652 87.2065C50.6782 87.2634 50.9407 87.2491 51.1526 87.1634C51.3679 87.0755 51.4944 86.9354 51.5322 86.743C51.5589 86.5804 51.5146 86.4352 51.3992 86.3074C51.2844 86.1768 51.0922 86.0581 50.8229 85.9514L49.748 85.5265C49.142 85.2864 48.7135 84.9832 48.4624 84.6171C48.2141 84.2515 48.1337 83.8283 48.2211 83.3475C48.2963 82.9338 48.4729 82.5978 48.7508 82.3394C49.0316 82.0814 49.3908 81.9085 49.8283 81.8206C50.2687 81.7331 50.7642 81.7395 51.3148 81.8396C52.1282 81.9874 52.737 82.2757 53.1413 82.7043C53.5484 83.1335 53.7372 83.6514 53.7077 84.2582ZM58.7384 83.2756L58.4945 84.6173L54.6163 83.9123L54.8602 82.5706L58.7384 83.2756ZM56.0211 81.1878L57.8072 81.5125L56.7158 87.5163C56.6858 87.6813 56.6876 87.8144 56.7211 87.9158C56.7552 88.0144 56.8136 88.09 56.8965 88.1426C56.9821 88.1957 57.085 88.2331 57.2052 88.255C57.2891 88.2702 57.3742 88.2785 57.4606 88.2798C57.5475 88.2782 57.6141 88.2773 57.6603 88.2771L57.6996 89.6572C57.6051 89.6689 57.4735 89.6782 57.3048 89.685C57.1355 89.6947 56.9342 89.6827 56.7006 89.6489C56.2671 89.5874 55.9002 89.4615 55.5999 89.2712C55.3023 89.0814 55.0892 88.8319 54.9607 88.5226C54.8321 88.2134 54.8075 87.848 54.887 87.4265L56.0211 81.1878ZM58.7312 89.927L59.9018 83.4871L61.6334 83.8019L61.4292 84.9255L61.4962 84.9377C61.6863 84.5593 61.9382 84.2933 62.252 84.1395C62.5663 83.983 62.9038 83.9375 63.2643 84.003C63.3538 84.0193 63.4492 84.0424 63.5506 84.0724C63.652 84.1024 63.74 84.1343 63.8147 84.168L63.5266 85.7529C63.4474 85.7125 63.3354 85.669 63.1908 85.6225C63.0463 85.576 62.9125 85.5416 62.7895 85.5193C62.5268 85.4715 62.2816 85.4861 62.0539 85.5631C61.8295 85.6378 61.6389 85.7649 61.4822 85.9443C61.3282 86.1242 61.2273 86.3455 61.1796 86.6083L60.5173 90.2517L58.7312 89.927ZM66.1493 91.4054C65.498 91.287 64.96 91.0463 64.5351 90.6832C64.1135 90.3178 63.8194 89.863 63.6527 89.3187C63.4865 88.7716 63.4633 88.1683 63.5832 87.5086C63.7041 86.8434 63.9384 86.2854 64.286 85.8346C64.6341 85.381 65.0695 85.0588 65.5921 84.8679C66.1181 84.6748 66.7067 84.6374 67.358 84.7558C68.0093 84.8742 68.5457 85.1161 68.9672 85.4815C69.3921 85.8445 69.6876 86.2996 69.8538 86.8467C70.0206 87.391 70.0434 87.9957 69.9225 88.661C69.8026 89.3206 69.5686 89.8772 69.2205 90.3308C68.8729 90.7816 68.4361 91.1035 67.9102 91.2967C67.3875 91.4875 66.8005 91.5238 66.1493 91.4054ZM66.4092 90.0233C66.7054 90.0772 66.9681 90.0383 67.197 89.9067C67.4264 89.7722 67.6181 89.5674 67.7721 89.2922C67.9289 89.0175 68.0413 88.6929 68.1094 88.3184C68.1775 87.9438 68.1865 87.6004 68.1364 87.2881C68.0891 86.9764 67.9818 86.7172 67.8143 86.5106C67.6468 86.304 67.415 86.1738 67.1187 86.12C66.8196 86.0656 66.5526 86.1051 66.3175 86.2385C66.0853 86.3724 65.8908 86.5767 65.734 86.8514C65.58 87.1266 65.469 87.4515 65.4009 87.826C65.3328 88.2006 65.3224 88.5437 65.3697 88.8555C65.4198 89.1678 65.53 89.4275 65.7002 89.6346C65.8738 89.8394 66.1101 89.969 66.4092 90.0233ZM72.966 88.6684L72.2892 92.3915L70.5032 92.0669L71.6738 85.6269L73.376 85.9364L73.1695 87.0726L73.2449 87.0863C73.4556 86.7377 73.7484 86.4848 74.1234 86.3278C74.499 86.1679 74.9257 86.1314 75.4037 86.2183C75.8509 86.2996 76.2231 86.4683 76.5201 86.7244C76.8172 86.9806 77.0249 87.3071 77.1433 87.704C77.2623 88.0981 77.2763 88.5453 77.1853 89.0456L76.44 93.146L74.6539 92.8214L75.3413 89.0396C75.4158 88.646 75.371 88.3202 75.2071 88.0623C75.0437 87.8016 74.7831 87.6388 74.4254 87.5737C74.185 87.53 73.9632 87.5431 73.7599 87.613C73.5594 87.6834 73.3894 87.8084 73.2499 87.9881C73.1137 88.1655 73.0191 88.3922 72.966 88.6684ZM80.2856 96.4784C79.707 96.3733 79.2254 96.2034 78.8406 95.9689C78.4582 95.7377 78.1701 95.4644 77.9762 95.1491C77.7823 94.8338 77.6797 94.5004 77.6685 94.149L79.3608 94.227C79.3878 94.3648 79.4456 94.4994 79.5343 94.631C79.623 94.7627 79.7507 94.8783 79.9173 94.9779C80.0863 95.0808 80.3008 95.1559 80.5607 95.2031C80.9493 95.2737 81.2866 95.2369 81.5727 95.0925C81.8611 94.9515 82.0454 94.6602 82.1257 94.2185L82.3398 93.0404L82.2644 93.0267C82.1536 93.1913 82.0055 93.3391 81.82 93.47C81.6345 93.6008 81.4096 93.6942 81.1454 93.7501C80.8811 93.8061 80.5785 93.803 80.2375 93.741C79.7539 93.6531 79.334 93.4613 78.9777 93.1656C78.6248 92.8675 78.3731 92.4652 78.2226 91.9585C78.0755 91.4495 78.0667 90.8387 78.1963 90.1259C78.3289 89.3964 78.5584 88.8087 78.8849 88.3627C79.2114 87.9168 79.5938 87.608 80.0321 87.4365C80.4732 87.2654 80.93 87.2229 81.4024 87.3087C81.7629 87.3743 82.0536 87.4906 82.2744 87.6578C82.4958 87.8222 82.664 88.0087 82.7791 88.2173C82.8975 88.4237 82.9815 88.6208 83.0311 88.8089L83.0981 88.8211L83.2948 87.7393L85.0683 88.0617L83.8862 94.5645C83.7866 95.1124 83.5691 95.5464 83.2337 95.8666C82.8984 96.1867 82.4763 96.3959 81.9676 96.494C81.4612 96.5954 80.9005 96.5902 80.2856 96.4784ZM81.0473 92.5023C81.3352 92.5546 81.5914 92.5275 81.8157 92.4211C82.0434 92.3123 82.2347 92.1334 82.3897 91.8844C82.548 91.6331 82.6615 91.3187 82.73 90.9414C82.7986 90.5641 82.805 90.2274 82.7491 89.9314C82.6937 89.6325 82.5793 89.388 82.406 89.1977C82.2327 89.0073 82.0021 88.886 81.7142 88.8337C81.4207 88.7803 81.1589 88.815 80.9287 88.9378C80.699 89.0577 80.507 89.248 80.3528 89.5088C80.1985 89.7695 80.0881 90.0829 80.0216 90.4491C79.954 90.8208 79.9473 91.1517 80.0014 91.4416C80.0589 91.7292 80.1733 91.9651 80.3449 92.1494C80.5197 92.3313 80.7539 92.4489 81.0473 92.5023ZM88.231 95.4193C87.5685 95.2989 87.0227 95.061 86.5935 94.7058C86.1676 94.3483 85.8711 93.8988 85.7039 93.3574C85.5372 92.8131 85.5155 92.2014 85.639 91.5221C85.7594 90.8597 85.9937 90.3017 86.3418 89.8481C86.6899 89.3945 87.1227 89.0704 87.6403 88.8758C88.1607 88.6816 88.7367 88.6419 89.3684 88.7568C89.7933 88.834 90.1763 88.9744 90.5176 89.1779C90.8622 89.3791 91.1468 89.6402 91.3714 89.9611C91.5988 90.2825 91.7521 90.6627 91.8311 91.1015C91.9107 91.5375 91.9006 92.0294 91.8011 92.5773L91.7119 93.0678L86.274 92.0794L86.4752 90.9725L90.2318 91.6554C90.2786 91.3982 90.2641 91.1602 90.1884 90.9415C90.1126 90.7227 89.9857 90.5394 89.8076 90.3915C89.6327 90.2413 89.4153 90.1426 89.1554 90.0954C88.8843 90.0461 88.6325 90.0653 88.4 90.1529C88.1708 90.2383 87.9784 90.3752 87.8229 90.5635C87.6679 90.749 87.5659 90.9686 87.5169 91.2225L87.3256 92.2748C87.2677 92.5935 87.2763 92.8795 87.3516 93.1328C87.4296 93.3866 87.5662 93.5963 87.7613 93.7617C87.9565 93.9271 88.2036 94.037 88.5027 94.0913C88.7011 94.1274 88.8879 94.1325 89.063 94.1066C89.238 94.0806 89.3944 94.0224 89.5321 93.932C89.6699 93.8415 89.7842 93.7208 89.8752 93.5699L91.5072 93.9792C91.3512 94.3608 91.1163 94.6762 90.8025 94.9252C90.492 95.1719 90.1178 95.3407 89.6797 95.4314C89.2449 95.5199 88.762 95.5158 88.231 95.4193ZM92.3752 96.0427L93.5458 89.6027L95.2774 89.9175L95.0731 91.0411L95.1402 91.0533C95.3303 90.675 95.5822 90.4089 95.896 90.2552C96.2103 90.0986 96.5478 90.0531 96.9083 90.1187C96.9978 90.1349 97.0932 90.158 97.1946 90.188C97.296 90.218 97.384 90.2499 97.4587 90.2837L97.1706 91.8685C97.0914 91.8281 96.9794 91.7847 96.8348 91.7382C96.6903 91.6917 96.5565 91.6573 96.4335 91.6349C96.1707 91.5871 95.9255 91.6018 95.6979 91.6788C95.4735 91.7535 95.2829 91.8805 95.1262 92.0599C94.9722 92.2398 94.8713 92.4612 94.8236 92.7239L94.1613 96.3673L92.3752 96.0427Z" fill="#CBA525"/>
<rect x="29.1631" y="34.7136" width="78" height="25.9032" transform="rotate(10.3039 29.1631 34.7136)" fill="url(#paint1_linear_174_44)" fill-opacity="0.3"/>
<rect x="29.2959" y="34.6879" width="51.1602" height="25.9041" transform="rotate(10.3735 29.2959 34.6879)" fill="url(#paint2_linear_174_44)" fill-opacity="0.75"/>
</g>
<defs>
<filter id="filter0_b_174_44" x="10.584" y="15.2253" width="113.005" height="94.9918" filterUnits="userSpaceOnUse" color-interpolation-filters="sRGB">
<feFlood flood-opacity="0" result="BackgroundImageFix"/>
<feGaussianBlur in="BackgroundImageFix" stdDeviation="2"/>
<feComposite in2="SourceAlpha" operator="in" result="effect1_backgroundBlur_174_44"/>
<feBlend mode="normal" in="SourceGraphic" in2="effect1_backgroundBlur_174_44" result="shape"/>
</filter>
<linearGradient id="paint0_linear_174_44" x1="74.4277" y1="17.9274" x2="74.4277" y2="91.5641" gradientUnits="userSpaceOnUse">
<stop stop-color="#CCCCCC"/>
<stop offset="1" stop-color="#5F5F5F"/>
</linearGradient>
<linearGradient id="paint1_linear_174_44" x1="65.2776" y1="35.6659" x2="65.0613" y2="59.8981" gradientUnits="userSpaceOnUse">
<stop stop-color="#E8BB1E"/>
<stop offset="1" stop-color="#826911"/>
</linearGradient>
<linearGradient id="paint2_linear_174_44" x1="54.876" y1="34.6879" x2="54.876" y2="60.5919" gradientUnits="userSpaceOnUse">
<stop stop-color="#E8BB1E"/>
<stop offset="1" stop-color="#826911"/>
</linearGradient>
</defs>
</svg>
