<svg width="214" height="151" viewBox="0 0 214 151" fill="none" xmlns="http://www.w3.org/2000/svg">
<g filter="url(#filter0_b_174_59)">
<rect x="14.6863" y="43.7164" width="191.586" height="38.8618" rx="7.75" transform="rotate(7.23148 14.6863 43.7164)" fill="url(#paint0_linear_174_59)" fill-opacity="0.45" stroke="#9A9A9A" stroke-width="0.5"/>
<path opacity="0.75" d="M60.3442 60.3423L58.4925 60.1074C58.4891 59.8636 58.447 59.642 58.3664 59.4428C58.286 59.2407 58.1725 59.0631 58.0259 58.9099C57.8792 58.7567 57.7033 58.6313 57.498 58.5337C57.2956 58.4364 57.0704 58.372 56.8223 58.3406C56.3742 58.2837 55.9698 58.3455 55.609 58.526C55.2485 58.7036 54.9499 58.9922 54.7131 59.3917C54.4766 59.7884 54.3203 60.2869 54.2441 60.8872C54.1658 61.5044 54.1916 62.0346 54.3216 62.4777C54.4543 62.9213 54.6734 63.2712 54.9787 63.5276C55.2841 63.784 55.6553 63.9399 56.0921 63.9953C56.3373 64.0264 56.5683 64.0228 56.7851 63.9844C57.0046 63.9464 57.204 63.8758 57.3832 63.7725C57.5628 63.6664 57.7176 63.53 57.8475 63.3632C57.9803 63.1968 58.0825 63.0007 58.1541 62.775L60.0047 63.0183C59.9064 63.4096 59.738 63.7777 59.4995 64.1226C59.2642 64.465 58.9675 64.761 58.6093 65.0105C58.2544 65.2576 57.845 65.4376 57.381 65.5506C56.9203 65.6611 56.4123 65.6811 55.8571 65.6107C55.0849 65.5127 54.4166 65.2504 53.8521 64.8237C53.2905 64.3973 52.8756 63.8307 52.6073 63.1237C52.3419 62.417 52.2689 61.5931 52.3883 60.6517C52.508 59.7076 52.7875 58.9269 53.2266 58.3096C53.6658 57.6924 54.2117 57.2491 54.8644 56.9796C55.5175 56.7074 56.2245 56.6195 56.9855 56.7161C57.4871 56.7797 57.9432 56.9092 58.3537 57.1044C58.7671 57.3 59.1228 57.5542 59.4211 57.867C59.7197 58.1769 59.9486 58.5396 60.1078 58.9549C60.2698 59.3707 60.3486 59.8331 60.3442 60.3423ZM63.8269 66.6303C63.1703 66.547 62.6201 66.3355 62.1764 65.9957C61.7358 65.6534 61.4177 65.215 61.2221 64.6805C61.0268 64.1431 60.9713 63.5419 61.0557 62.8767C61.1408 62.206 61.3448 61.6362 61.6677 61.1674C61.991 60.6959 62.4085 60.3508 62.9202 60.1322C63.4351 59.9111 64.0208 59.8422 64.6775 59.9256C65.3342 60.0089 65.8828 60.2216 66.3233 60.5639C66.767 60.9037 67.0866 61.3423 67.2818 61.8796C67.4775 62.4142 67.5328 63.0169 67.4477 63.6876C67.3633 64.3527 67.1595 64.9211 66.8362 65.3927C66.5132 65.8615 66.0943 66.2064 65.5795 66.4274C65.0678 66.646 64.4836 66.7136 63.8269 66.6303ZM64.0124 65.2363C64.3111 65.2742 64.5713 65.2213 64.7928 65.0776C65.0147 64.9311 65.1952 64.7163 65.3342 64.4332C65.476 64.1505 65.5709 63.8204 65.6188 63.4427C65.6667 63.0651 65.6573 62.7217 65.5905 62.4125C65.5266 62.1037 65.4055 61.8507 65.2272 61.6534C65.0489 61.4561 64.8104 61.3385 64.5117 61.3006C64.2101 61.2623 63.9456 61.3161 63.718 61.4619C63.4933 61.6081 63.31 61.8225 63.1682 62.1052C63.0292 62.3883 62.9357 62.7186 62.8878 63.0963C62.8399 63.4739 62.8479 63.8171 62.9118 64.1259C62.9786 64.4351 63.1025 64.6885 63.2836 64.8862C63.4679 65.0814 63.7108 65.1981 64.0124 65.2363ZM70.4872 63.532L70.0109 67.286L68.21 67.0575L69.0338 60.5641L70.7501 60.7818L70.6048 61.9275L70.6809 61.9371C70.8725 61.5777 71.1514 61.3096 71.5175 61.1326C71.8839 60.9529 72.3081 60.8936 72.79 60.9547C73.241 61.0119 73.6216 61.1604 73.932 61.4003C74.2423 61.6401 74.4673 61.955 74.6068 62.345C74.7467 62.7321 74.7846 63.178 74.7206 63.6824L74.1961 67.8169L72.3952 67.5885L72.879 63.7753C72.9322 63.3782 72.8701 63.0554 72.6926 62.8066C72.5154 62.555 72.2465 62.4064 71.8858 62.3606C71.6434 62.3299 71.4226 62.3548 71.2233 62.4355C71.0269 62.5166 70.8639 62.6505 70.7342 62.8374C70.6077 63.0218 70.5254 63.2533 70.4872 63.532ZM78.2148 70.9384C77.6315 70.8644 77.1414 70.7206 76.7447 70.5071C76.3504 70.2967 76.048 70.0392 75.8375 69.7348C75.627 69.4303 75.5067 69.1029 75.4767 68.7526L77.1707 68.7398C77.205 68.8759 77.27 69.0073 77.3656 69.134C77.4612 69.2606 77.5949 69.3692 77.7667 69.4597C77.9409 69.5534 78.1591 69.6169 78.4212 69.6502C78.813 69.6999 79.1478 69.645 79.4258 69.4855C79.7062 69.3292 79.8747 69.0284 79.9312 68.5831L80.0819 67.3952L80.0058 67.3856C79.904 67.5559 79.764 67.7114 79.5858 67.852C79.4076 67.9927 79.188 68.098 78.9271 68.168C78.6662 68.238 78.3639 68.2512 78.0201 68.2075C77.5325 68.1457 77.1029 67.9766 76.7313 67.7004C76.3629 67.4217 76.09 67.0334 75.9126 66.5355C75.7384 66.0352 75.6969 65.4257 75.788 64.707C75.8813 63.9714 76.0791 63.3723 76.3812 62.9094C76.6833 62.4466 77.0486 62.1178 77.4771 61.923C77.9084 61.7286 78.3622 61.6616 78.8385 61.722C79.2021 61.7682 79.4986 61.8688 79.7281 62.0239C79.9579 62.1762 80.1359 62.3534 80.262 62.5555C80.3913 62.7552 80.4857 62.9476 80.5453 63.1327L80.6129 63.1413L80.7513 62.0506L82.5395 62.2775L81.7077 68.8343C81.6376 69.3867 81.4437 69.8317 81.126 70.1694C80.8082 70.5071 80.398 70.7386 79.8953 70.8638C79.395 70.9922 78.8349 71.0171 78.2148 70.9384ZM78.7624 66.9271C79.0527 66.964 79.307 66.9232 79.5253 66.8049C79.7468 66.684 79.9283 66.4952 80.0697 66.2382C80.2143 65.9787 80.3107 65.6588 80.359 65.2783C80.4073 64.8978 80.3956 64.5613 80.3239 64.2687C80.2525 63.9733 80.1252 63.7352 79.942 63.5545C79.7587 63.3737 79.5219 63.2649 79.2316 63.2281C78.9357 63.1906 78.6761 63.2392 78.4528 63.3741C78.2299 63.5062 78.0484 63.7066 77.9084 63.9752C77.7683 64.2438 77.6749 64.5627 77.6281 64.9319C77.5805 65.3067 77.5915 65.6374 77.6611 65.924C77.7339 66.2082 77.8609 66.4376 78.042 66.6124C78.2263 66.7847 78.4665 66.8896 78.7624 66.9271ZM83.1489 68.9527L83.9726 62.4593L85.7186 62.6808L85.5749 63.8137L85.6425 63.8223C85.812 63.4343 86.0493 63.1551 86.3544 62.9848C86.6599 62.8116 86.9944 62.7481 87.358 62.7942C87.4482 62.8057 87.5447 62.8236 87.6475 62.8482C87.7504 62.8727 87.84 62.8998 87.9164 62.9295L87.7137 64.5275C87.6323 64.4914 87.5182 64.454 87.3714 64.4153C87.2245 64.3767 87.0891 64.3495 86.9651 64.3337C86.7001 64.3001 86.4561 64.3279 86.2329 64.417C86.0128 64.5036 85.8293 64.6407 85.6824 64.8282C85.5383 65.0161 85.4494 65.2425 85.4158 65.5075L84.9498 69.1811L83.1489 68.9527ZM89.6701 69.9045C89.2558 69.852 88.8957 69.7333 88.5898 69.5484C88.2843 69.3608 88.0552 69.1126 87.9025 68.804C87.7529 68.4929 87.7053 68.1232 87.7597 67.6948C87.8054 67.3341 87.9101 67.0395 88.0737 66.8111C88.2372 66.5827 88.4426 66.4083 88.6899 66.2879C88.9371 66.1675 89.2107 66.0877 89.5106 66.0484C89.8134 66.0095 90.1274 65.9949 90.4526 66.0047C90.8353 66.0131 91.1443 66.0151 91.3797 66.0106C91.6154 66.0033 91.7899 65.971 91.9031 65.9138C92.0163 65.8566 92.0817 65.7589 92.0992 65.6208L92.1025 65.5954C92.1364 65.3277 92.0781 65.1098 91.9276 64.9418C91.78 64.7742 91.5525 64.6709 91.2453 64.6319C90.9212 64.5908 90.6542 64.6299 90.4443 64.7493C90.2348 64.8659 90.0855 65.0274 89.9963 65.2337L88.3478 64.8872C88.4824 64.5033 88.692 64.1834 88.9764 63.9274C89.2613 63.6686 89.6094 63.4865 90.0208 63.3812C90.4354 63.2734 90.902 63.2524 91.4206 63.3182C91.7813 63.364 92.1212 63.4501 92.4402 63.5764C92.762 63.7032 93.0399 63.8716 93.2739 64.0817C93.5106 64.2921 93.686 64.5463 93.8 64.8443C93.9143 65.1394 93.947 65.4801 93.898 65.8662L93.3424 70.2458L91.6345 70.0292L91.7487 69.1287L91.698 69.1223C91.568 69.312 91.4058 69.4732 91.2114 69.6061C91.0173 69.7361 90.7922 69.8292 90.5359 69.8855C90.28 69.939 89.9914 69.9453 89.6701 69.9045ZM90.3435 68.7271C90.6084 68.7607 90.8489 68.7382 91.0651 68.6597C91.2816 68.5783 91.4591 68.4548 91.5975 68.2891C91.7359 68.1234 91.8196 67.9264 91.8486 67.6981L91.936 67.009C91.875 67.0385 91.7932 67.0625 91.6906 67.081C91.5912 67.097 91.4793 67.11 91.3549 67.12C91.2309 67.1272 91.107 67.1329 90.9833 67.1373C90.86 67.1388 90.7481 67.1404 90.6477 67.142C90.4324 67.1462 90.2415 67.1721 90.0751 67.2197C89.9087 67.2673 89.7745 67.3433 89.6724 67.4478C89.5708 67.5495 89.5092 67.6848 89.4878 67.8539C89.4567 68.0991 89.5217 68.2978 89.6828 68.45C89.8471 68.5997 90.0673 68.692 90.3435 68.7271ZM99.0172 64.3678L98.8456 65.7206L94.9351 65.2246L95.1068 63.8718L99.0172 64.3678ZM96.1919 62.4287L97.9928 62.6571L97.2248 68.7109C97.2037 68.8772 97.2126 69.01 97.2516 69.1095C97.2909 69.2061 97.3533 69.2784 97.4388 69.3265C97.5272 69.375 97.6319 69.4069 97.7531 69.4222C97.8377 69.433 97.9231 69.4366 98.0095 69.4333C98.0961 69.4271 98.1626 69.4226 98.2087 69.4199L98.322 70.7959C98.2282 70.8127 98.0973 70.829 97.9292 70.8449C97.7607 70.8636 97.559 70.8624 97.324 70.8412C96.8878 70.803 96.5147 70.697 96.2045 70.523C95.8972 70.3495 95.6711 70.1117 95.5261 69.8098C95.3812 69.5079 95.3371 69.1444 95.3939 68.7192L96.1919 62.4287ZM103.881 68.7736L104.354 65.0449L106.155 65.2734L105.332 71.7668L103.602 71.5475L103.752 70.368L103.684 70.3594C103.49 70.7213 103.207 70.9961 102.837 71.184C102.469 71.3722 102.042 71.4354 101.554 71.3735C101.12 71.3184 100.751 71.1714 100.446 70.9322C100.141 70.6931 99.919 70.38 99.7791 69.9928C99.642 69.606 99.6043 69.1588 99.6658 68.6511L100.19 64.5167L101.991 64.7451L101.507 68.5583C101.462 68.942 101.526 69.258 101.701 69.5064C101.875 69.7548 102.133 69.9006 102.474 69.9439C102.691 69.9714 102.9 69.9478 103.102 69.8731C103.304 69.7956 103.475 69.6656 103.615 69.4829C103.759 69.3007 103.847 69.0642 103.881 68.7736ZM109.671 63.5201L108.573 72.178L106.772 71.9495L107.87 63.2917L109.671 63.5201ZM111.852 72.7185C111.437 72.666 111.077 72.5473 110.771 72.3624C110.466 72.1747 110.237 71.9266 110.084 71.618C109.935 71.3069 109.887 70.9372 109.941 70.5088C109.987 70.1481 110.092 69.8535 110.255 69.6251C110.419 69.3967 110.624 69.2223 110.871 69.1019C111.119 68.9815 111.392 68.9017 111.692 68.8624C111.995 68.8235 112.309 68.8089 112.634 68.8187C113.017 68.8271 113.326 68.8291 113.561 68.8246C113.797 68.8173 113.972 68.785 114.085 68.7278C114.198 68.6705 114.263 68.5729 114.281 68.4348L114.284 68.4094C114.318 68.1417 114.26 67.9238 114.109 67.7558C113.962 67.5882 113.734 67.4848 113.427 67.4459C113.103 67.4048 112.836 67.4439 112.626 67.5633C112.416 67.6799 112.267 67.8414 112.178 68.0477L110.529 67.7011C110.664 67.3173 110.874 66.9974 111.158 66.7414C111.443 66.4826 111.791 66.3005 112.202 66.1952C112.617 66.0874 113.084 66.0664 113.602 66.1322C113.963 66.178 114.303 66.264 114.622 66.3904C114.944 66.5172 115.222 66.6856 115.455 66.8957C115.692 67.1061 115.868 67.3603 115.982 67.6583C116.096 67.9534 116.129 68.2941 116.08 68.6802L115.524 73.0598L113.816 72.8432L113.93 71.9427L113.88 71.9363C113.75 72.126 113.587 72.2872 113.393 72.4201C113.199 72.5501 112.974 72.6432 112.717 72.6995C112.462 72.7529 112.173 72.7593 111.852 72.7185ZM112.525 71.5411C112.79 71.5747 113.031 71.5522 113.247 71.4737C113.463 71.3923 113.641 71.2688 113.779 71.1031C113.918 70.9374 114.001 70.7404 114.03 70.5121L114.118 69.823C114.057 69.8525 113.975 69.8765 113.872 69.895C113.773 69.911 113.661 69.924 113.537 69.934C113.412 69.9412 113.289 69.9469 113.165 69.9513C113.042 69.9528 112.93 69.9544 112.829 69.956C112.614 69.9601 112.423 69.986 112.257 70.0337C112.09 70.0813 111.956 70.1573 111.854 70.2618C111.752 70.3634 111.691 70.4988 111.669 70.6679C111.638 70.9131 111.703 71.1118 111.864 71.264C112.029 71.4137 112.249 71.506 112.525 71.5411ZM121.199 67.1818L121.027 68.5346L117.117 68.0385L117.288 66.6857L121.199 67.1818ZM118.373 65.2427L120.174 65.4711L119.406 71.5249C119.385 71.6912 119.394 71.824 119.433 71.9235C119.472 72.0201 119.535 72.0924 119.62 72.1405C119.709 72.1889 119.814 72.2209 119.935 72.2362C120.019 72.247 120.105 72.2506 120.191 72.2473C120.278 72.2411 120.344 72.2366 120.39 72.2339L120.504 73.6099C120.41 73.6267 120.279 73.643 120.111 73.6589C119.942 73.6776 119.741 73.6764 119.506 73.6551C119.069 73.617 118.696 73.511 118.386 73.337C118.079 73.1634 117.853 72.9257 117.708 72.6238C117.563 72.3219 117.519 71.9584 117.575 71.5332L118.373 65.2427ZM121.548 73.8241L122.372 67.3307L124.173 67.5591L123.349 74.0525L121.548 73.8241ZM123.383 66.6084C123.115 66.5744 122.897 66.4565 122.727 66.2546C122.562 66.0503 122.494 65.8227 122.526 65.5719C122.558 65.3239 122.679 65.1231 122.891 64.9695C123.105 64.8134 123.346 64.7524 123.614 64.7863C123.882 64.8203 124.098 64.9395 124.264 65.1438C124.434 65.3456 124.502 65.5706 124.471 65.8186C124.439 66.0694 124.316 66.2729 124.101 66.4289C123.89 66.5825 123.651 66.6423 123.383 66.6084ZM127.709 74.7346C127.053 74.6513 126.503 74.4397 126.059 74.0999C125.618 73.7577 125.3 73.3193 125.105 72.7847C124.909 72.2473 124.854 71.6461 124.938 70.981C125.023 70.3102 125.227 69.7404 125.55 69.2717C125.874 68.8001 126.291 68.455 126.803 68.2364C127.318 68.0153 127.903 67.9465 128.56 68.0298C129.217 68.1131 129.765 68.3259 130.206 68.6681C130.65 69.0079 130.969 69.4465 131.164 69.9839C131.36 70.5184 131.415 71.1211 131.33 71.7918C131.246 72.457 131.042 73.0253 130.719 73.4969C130.396 73.9657 129.977 74.3106 129.462 74.5316C128.95 74.7502 128.366 74.8179 127.709 74.7346ZM127.895 73.3406C128.194 73.3785 128.454 73.3256 128.675 73.1818C128.897 73.0353 129.078 72.8205 129.217 72.5375C129.359 72.2548 129.453 71.9246 129.501 71.5469C129.549 71.1693 129.54 70.8259 129.473 70.5167C129.409 70.2079 129.288 69.9549 129.11 69.7576C128.931 69.5603 128.693 69.4427 128.394 69.4048C128.093 69.3665 127.828 69.4203 127.601 69.5661C127.376 69.7123 127.193 69.9267 127.051 70.2094C126.912 70.4925 126.818 70.8228 126.77 71.2005C126.722 71.5781 126.73 71.9214 126.794 72.2302C126.861 72.5393 126.985 72.7927 127.166 72.9904C127.35 73.1856 127.593 73.3023 127.895 73.3406ZM134.37 71.6362L133.893 75.3902L132.093 75.1617L132.916 68.6683L134.633 68.8861L134.487 70.0317L134.563 70.0414C134.755 69.682 135.034 69.4138 135.4 69.2369C135.766 69.0571 136.191 68.9978 136.673 69.0589C137.123 69.1162 137.504 69.2647 137.814 69.5045C138.125 69.7443 138.35 70.0592 138.489 70.4492C138.629 70.8364 138.667 71.2822 138.603 71.7867L138.079 75.9211L136.278 75.6927L136.761 71.8795C136.815 71.4825 136.753 71.1596 136.575 70.9108C136.398 70.6593 136.129 70.5106 135.768 70.4648C135.526 70.4341 135.305 70.4591 135.106 70.5397C134.909 70.6208 134.746 70.7547 134.617 70.9416C134.49 71.126 134.408 71.3575 134.37 71.6362ZM145.49 72.1448L143.828 72.0371C143.818 71.8926 143.773 71.7581 143.694 71.6336C143.616 71.5063 143.505 71.3991 143.362 71.3122C143.221 71.2227 143.047 71.1648 142.838 71.1384C142.559 71.103 142.316 71.1323 142.11 71.2263C141.903 71.3176 141.788 71.4604 141.763 71.6549C141.743 71.8099 141.789 71.9488 141.899 72.0717C142.01 72.1945 142.212 72.3074 142.505 72.4105L143.65 72.7963C144.265 73.0061 144.709 73.2743 144.983 73.6011C145.256 73.9279 145.363 74.3253 145.304 74.7931C145.25 75.2187 145.077 75.5762 144.786 75.8656C144.497 76.1555 144.124 76.363 143.667 76.4884C143.213 76.6112 142.705 76.6369 142.141 76.5654C141.281 76.4563 140.619 76.1905 140.155 75.7678C139.693 75.3427 139.458 74.8146 139.449 74.1835L141.232 74.3152C141.253 74.5841 141.357 74.8007 141.545 74.9649C141.734 75.1262 141.989 75.2273 142.31 75.2681C142.626 75.3081 142.887 75.2797 143.094 75.1828C143.304 75.0835 143.423 74.9368 143.45 74.7427C143.468 74.5788 143.416 74.4362 143.294 74.3148C143.173 74.1905 142.974 74.0823 142.7 73.9902L141.604 73.6235C140.986 73.4162 140.541 73.1365 140.271 72.7843C140.004 72.4325 139.901 72.0143 139.962 71.5295C140.015 71.1124 140.173 70.7674 140.437 70.4944C140.704 70.2218 141.053 70.0299 141.485 69.9186C141.92 69.8077 142.415 69.7875 142.97 69.8579C143.791 69.9619 144.414 70.2172 144.841 70.6235C145.27 71.0302 145.486 71.5373 145.49 72.1448ZM149.433 68.5643L148.499 74.6056L146.952 74.4093L147.552 68.3257L149.433 68.5643ZM147.382 77.2131C147.103 77.1777 146.876 77.0486 146.701 76.826C146.526 76.6005 146.458 76.3484 146.496 76.0698C146.528 75.7932 146.657 75.569 146.882 75.3971C147.107 75.2252 147.359 75.1569 147.638 75.1923C147.906 75.2263 148.129 75.3548 148.307 75.5778C148.485 75.8009 148.558 76.0506 148.525 76.3272C148.499 76.5128 148.428 76.6771 148.313 76.8199C148.2 76.9603 148.062 77.0674 147.898 77.1411C147.734 77.212 147.562 77.236 147.382 77.2131ZM50.7537 71.166L51.9543 71.3183L53.8428 75.6644L53.9443 75.6773L56.8582 71.9404L58.0588 72.0927L54.2848 76.7857L53.8321 80.3537L52.7837 80.2207L53.2364 76.6527L50.7537 71.166ZM59.8835 81.2589C59.2973 81.1845 58.8007 80.9798 58.3936 80.6446C57.9893 80.3098 57.695 79.8759 57.5106 79.3427C57.3291 78.81 57.2809 78.2082 57.3659 77.5375C57.4518 76.8611 57.6493 76.2862 57.9584 75.8128C58.2705 75.3398 58.664 74.9917 59.139 74.7684C59.6169 74.5455 60.149 74.4713 60.7352 74.5456C61.3214 74.62 61.8166 74.8246 62.2209 75.1594C62.628 75.4945 62.9221 75.9299 63.1033 76.4655C63.2873 77.0014 63.3364 77.6076 63.2506 78.284C63.1655 78.9547 62.9671 79.5252 62.6555 79.9954C62.3466 80.466 61.9533 80.8127 61.4754 81.0356C61.0004 81.2588 60.4697 81.3333 59.8835 81.2589ZM59.9972 80.3627C60.4425 80.4191 60.8234 80.3515 61.1398 80.1597C61.4562 79.9679 61.7071 79.6947 61.8924 79.3402C62.0777 78.9857 62.1979 78.5914 62.2529 78.1574C62.308 77.7234 62.2902 77.3102 62.1997 76.9179C62.1091 76.5255 61.9348 76.1955 61.6766 75.928C61.4185 75.6604 61.0668 75.4984 60.6215 75.4419C60.1762 75.3854 59.7951 75.4544 59.4784 75.6491C59.1616 75.8437 58.9103 76.1197 58.7247 76.477C58.539 76.8343 58.4187 77.23 58.3636 77.664C58.3086 78.098 58.3265 78.5098 58.4174 78.8994C58.5083 79.2889 58.683 79.616 58.9415 79.8808C59.2 80.1455 59.5519 80.3062 59.9972 80.3627ZM68.795 79.5544L69.2819 75.7158L70.2796 75.8424L69.4558 82.3358L68.4582 82.2092L68.5976 81.1101L68.53 81.1015C68.3359 81.4119 68.0636 81.6623 67.713 81.8527C67.3628 82.0402 66.9424 82.1028 66.4521 82.0406C66.0462 81.9891 65.6967 81.8546 65.4036 81.637C65.1108 81.4166 64.8972 81.1146 64.7625 80.7309C64.6283 80.3445 64.5962 79.8751 64.6663 79.3227L65.1897 75.1967L66.1874 75.3232L65.6726 79.3816C65.6125 79.8551 65.697 80.2496 65.9262 80.565C66.1582 80.8808 66.4813 81.065 66.8956 81.1175C67.1436 81.149 67.4039 81.1176 67.6765 81.0233C67.9519 80.9294 68.1935 80.7624 68.4015 80.5225C68.6123 80.2829 68.7435 79.9602 68.795 79.5544ZM76.1246 79.2127L75.629 83.1189L74.6313 82.9924L75.7297 74.3345L76.7274 74.461L76.3241 77.6401L76.4086 77.6508C76.6034 77.3348 76.8654 77.0974 77.1948 76.9387C77.5274 76.7776 77.9488 76.7294 78.4589 76.7941C78.9014 76.8502 79.2776 76.9882 79.5877 77.2079C79.898 77.4248 80.1218 77.7267 80.2588 78.1135C80.3991 78.4978 80.4338 78.969 80.363 79.5271L79.8396 83.6531L78.8419 83.5265L79.3568 79.4681C79.4222 78.9524 79.3389 78.5366 79.1069 78.2208C78.8781 77.9025 78.5284 77.7136 78.0577 77.6539C77.7308 77.6124 77.4289 77.6442 77.1521 77.7495C76.8781 77.855 76.6497 78.0308 76.4667 78.2768C76.2865 78.5231 76.1725 78.8351 76.1246 79.2127ZM83.5563 84.2792C83.1448 84.227 82.7813 84.1022 82.4655 83.9046C82.1502 83.7042 81.9126 83.4436 81.7529 83.1226C81.5935 82.7988 81.5406 82.4256 81.5943 82.0028C81.6415 81.6308 81.753 81.3386 81.9289 81.126C82.1051 80.9107 82.3242 80.7524 82.5862 80.651C82.8482 80.5497 83.1313 80.4853 83.4354 80.4581C83.7427 80.4283 84.0497 80.4129 84.3562 80.4117C84.7572 80.411 85.082 80.4135 85.3304 80.4192C85.582 80.4225 85.7682 80.3989 85.8892 80.3484C86.013 80.2982 86.085 80.1928 86.1054 80.0322L86.1097 79.9984C86.1626 79.5812 86.0896 79.2427 85.8906 78.9826C85.6945 78.7229 85.3667 78.5639 84.9073 78.5056C84.431 78.4452 84.0444 78.5021 83.7474 78.6763C83.4503 78.8506 83.2319 79.0491 83.0919 79.2719L82.1879 78.8135C82.407 78.4404 82.6714 78.1618 82.9812 77.9778C83.2941 77.7912 83.6237 77.6755 83.9702 77.6307C84.3198 77.5834 84.6581 77.5805 84.9851 77.622C85.1936 77.6485 85.4299 77.7042 85.6941 77.7893C85.9614 77.8719 86.2122 78.0054 86.4465 78.1897C86.6837 78.3744 86.8673 78.6311 86.9975 78.9598C87.1276 79.2884 87.1599 79.7106 87.0945 80.2264L86.5518 84.5046L85.5541 84.378L85.6656 83.4987L85.6149 83.4923C85.5294 83.6246 85.3975 83.7611 85.2193 83.9017C85.0411 84.0423 84.8138 84.1524 84.5374 84.2319C84.261 84.3114 83.934 84.3271 83.5563 84.2792ZM83.8222 83.4023C84.2168 83.4524 84.5592 83.4171 84.8494 83.2964C85.1424 83.176 85.3736 83.002 85.5428 82.7744C85.7148 82.547 85.818 82.2981 85.8523 82.0276L85.9681 81.1144C85.9194 81.1598 85.8205 81.1945 85.6714 81.2185C85.5255 81.2401 85.3576 81.2546 85.1676 81.262C84.9808 81.2669 84.7987 81.2696 84.6211 81.27C84.4466 81.2679 84.305 81.2671 84.1961 81.2676C83.9325 81.2685 83.6832 81.2928 83.4481 81.3402C83.2161 81.3853 83.0216 81.4737 82.8646 81.6056C82.7107 81.735 82.6177 81.9265 82.5855 82.1801C82.5415 82.5268 82.6365 82.8052 82.8705 83.0152C83.1076 83.2229 83.4248 83.3519 83.8222 83.4023ZM94.2737 78.8863L91.0488 85.0751L90.0342 84.9464L88.4567 78.1483L89.539 78.2856L90.675 83.6875L90.7426 83.6961L93.1915 78.749L94.2737 78.8863ZM97.2397 85.9979C96.614 85.9186 96.0918 85.712 95.6731 85.3782C95.2575 85.042 94.9588 84.6089 94.7769 84.079C94.5982 83.5466 94.551 82.9478 94.6354 82.2827C94.7198 81.6176 94.9153 81.0467 95.222 80.5702C95.532 80.0912 95.9234 79.737 96.3963 79.5078C96.8725 79.2761 97.4036 79.1975 97.9898 79.2718C98.328 79.3147 98.6549 79.4135 98.9703 79.568C99.2857 79.7226 99.5627 79.9439 99.801 80.2318C100.04 80.517 100.213 80.8769 100.321 81.3116C100.429 81.7462 100.445 82.2665 100.368 82.8725L100.314 83.2952L95.3091 82.6603L95.4185 81.7978L99.4093 82.3041C99.4558 81.9377 99.424 81.6015 99.3139 81.2955C99.2066 80.9898 99.0297 80.7368 98.783 80.5365C98.5392 80.3366 98.2369 80.2138 97.8761 80.168C97.4788 80.1176 97.1224 80.1727 96.8071 80.3331C96.495 80.4911 96.2415 80.7167 96.0468 81.0099C95.8522 81.303 95.7321 81.6286 95.6867 81.9865L95.6138 82.5614C95.5515 83.0518 95.5834 83.4783 95.7092 83.8407C95.8382 84.2007 96.0436 84.4888 96.3255 84.705C96.6077 84.9183 96.9503 85.0506 97.3533 85.1017C97.6155 85.135 97.8568 85.1284 98.0775 85.0819C98.3014 85.033 98.5003 84.9437 98.6742 84.8139C98.8485 84.6814 98.9923 84.5078 99.1054 84.2931L100.035 84.6859C99.892 84.9999 99.685 85.2658 99.414 85.4834C99.1434 85.6982 98.8231 85.8523 98.4533 85.9457C98.0839 86.0363 97.6793 86.0537 97.2397 85.9979ZM104.947 86.8382L106.045 78.1803L107.043 78.3069L106.637 81.5029L106.722 81.5136C106.809 81.4101 106.929 81.2793 107.081 81.121C107.236 80.9602 107.445 80.8264 107.707 80.7194C107.973 80.6099 108.318 80.582 108.74 80.6356C109.287 80.705 109.752 80.9028 110.134 81.2291C110.517 81.5554 110.793 81.9842 110.963 82.5156C111.133 83.0469 111.175 83.6536 111.089 84.3356C111.002 85.0233 110.809 85.6045 110.511 86.0793C110.214 86.5513 109.84 86.8991 109.391 87.1228C108.942 87.3436 108.447 87.4197 107.906 87.351C107.488 87.2981 107.163 87.1867 106.93 87.0168C106.697 86.844 106.524 86.6603 106.411 86.4656C106.299 86.2681 106.214 86.1055 106.155 85.9778L106.037 85.9628L105.91 86.9605L104.947 86.8382ZM106.339 83.7159C106.277 84.2063 106.294 84.648 106.39 85.0411C106.487 85.4313 106.66 85.7497 106.909 85.9961C107.159 86.2397 107.484 86.3869 107.884 86.4376C108.301 86.4906 108.663 86.4248 108.97 86.2404C109.28 86.0535 109.529 85.7815 109.718 85.4246C109.909 85.0652 110.035 84.6544 110.093 84.1921C110.151 83.7356 110.133 83.3152 110.038 82.9309C109.947 82.5442 109.774 82.2259 109.52 81.9759C109.268 81.7235 108.931 81.5705 108.508 81.5169C108.102 81.4654 107.748 81.525 107.446 81.6957C107.144 81.8636 106.899 82.1217 106.712 82.4703C106.525 82.8159 106.401 83.2312 106.339 83.7159ZM114.911 88.2397C114.285 88.1603 113.763 87.9537 113.344 87.62C112.928 87.2838 112.63 86.8507 112.448 86.3207C112.269 85.7883 112.222 85.1896 112.306 84.5244C112.391 83.8593 112.586 83.2885 112.893 82.8119C113.203 82.3329 113.594 81.9788 114.067 81.7496C114.543 81.5179 115.075 81.4392 115.661 81.5136C115.999 81.5565 116.326 81.6552 116.641 81.8098C116.957 81.9643 117.234 82.1856 117.472 82.4736C117.711 82.7587 117.884 83.1186 117.992 83.5533C118.1 83.988 118.116 84.5083 118.039 85.1142L117.985 85.537L112.98 84.902L113.089 84.0396L117.08 84.5459C117.127 84.1795 117.095 83.8433 116.985 83.5372C116.877 83.2315 116.701 82.9785 116.454 82.7783C116.21 82.5784 115.908 82.4556 115.547 82.4098C115.15 82.3594 114.793 82.4144 114.478 82.5749C114.166 82.7329 113.912 82.9584 113.718 83.2516C113.523 83.5448 113.403 83.8703 113.358 84.2283L113.285 84.8032C113.222 85.2936 113.254 85.72 113.38 86.0825C113.509 86.4425 113.715 86.7306 113.996 86.9467C114.279 87.1601 114.621 87.2923 115.024 87.3435C115.286 87.3767 115.528 87.3701 115.748 87.3236C115.972 87.2747 116.171 87.1854 116.345 87.0557C116.519 86.9232 116.663 86.7495 116.776 86.5348L117.706 86.9276C117.563 87.2417 117.356 87.5075 117.085 87.7252C116.814 87.94 116.494 88.0941 116.124 88.1875C115.755 88.2781 115.35 88.2955 114.911 88.2397ZM121.839 89.1187C121.214 89.0393 120.692 88.8327 120.273 88.499C119.857 88.1628 119.559 87.7297 119.377 87.1997C119.198 86.6673 119.151 86.0686 119.235 85.4034C119.319 84.7383 119.515 84.1675 119.822 83.6909C120.132 83.2119 120.523 82.8578 120.996 82.6286C121.472 82.3969 122.003 82.3182 122.59 82.3926C122.928 82.4355 123.255 82.5342 123.57 82.6888C123.885 82.8433 124.162 83.0646 124.401 83.3526C124.639 83.6377 124.813 83.9977 124.921 84.4323C125.029 84.867 125.045 85.3873 124.968 85.9932L124.914 86.416L119.909 85.781L120.018 84.9186L124.009 85.4249C124.055 85.0585 124.024 84.7223 123.914 84.4162C123.806 84.1105 123.629 83.8575 123.383 83.6573C123.139 83.4574 122.837 83.3346 122.476 83.2888C122.078 83.2384 121.722 83.2934 121.407 83.4539C121.095 83.6119 120.841 83.8374 120.647 84.1306C120.452 84.4238 120.332 84.7493 120.286 85.1073L120.213 85.6822C120.151 86.1726 120.183 86.599 120.309 86.9615C120.438 87.3215 120.643 87.6096 120.925 87.8257C121.207 88.0391 121.55 88.1713 121.953 88.2225C122.215 88.2557 122.457 88.2491 122.677 88.2026C122.901 88.1537 123.1 88.0644 123.274 87.9347C123.448 87.8022 123.592 87.6285 123.705 87.4138L124.635 87.8066C124.492 88.1207 124.285 88.3865 124.014 88.6042C123.743 88.819 123.423 88.9731 123.053 89.0665C122.684 89.1571 122.279 89.1745 121.839 89.1187ZM127.556 85.7374L127.061 89.6436L126.063 89.517L126.887 83.0236L127.85 83.1459L127.722 84.1605L127.806 84.1712C128 83.8608 128.265 83.6252 128.6 83.4644C128.936 83.3008 129.349 83.2501 129.84 83.3123C130.279 83.3681 130.653 83.5071 130.959 83.7293C131.267 83.9487 131.489 84.2518 131.626 84.6386C131.763 85.0226 131.797 85.4908 131.727 86.0432L131.203 90.1692L130.206 90.0426L130.721 85.9842C130.785 85.4741 130.703 85.0599 130.475 84.7417C130.246 84.4206 129.901 84.2307 129.439 84.1721C129.12 84.1317 128.827 84.1646 128.558 84.2709C128.293 84.3775 128.071 84.5542 127.894 84.8009C127.717 85.0476 127.604 85.3597 127.556 85.7374ZM141.614 86.3696L140.685 86.5095C140.648 86.353 140.583 86.1973 140.491 86.0424C140.402 85.8851 140.271 85.7481 140.096 85.6315C139.922 85.5149 139.69 85.4382 139.4 85.4014C139.002 85.351 138.659 85.4006 138.371 85.5502C138.086 85.6973 137.926 85.9103 137.891 86.1894C137.859 86.4374 137.925 86.6447 138.087 86.8113C138.249 86.9779 138.515 87.1335 138.887 87.2779L139.82 87.6369C140.383 87.8515 140.788 88.122 141.036 88.4484C141.284 88.7719 141.38 89.1606 141.322 89.6144C141.275 89.9864 141.126 90.3054 140.874 90.5713C140.626 90.8376 140.3 91.0311 139.899 91.152C139.497 91.2728 139.043 91.3012 138.539 91.2372C137.877 91.1532 137.347 90.9399 136.949 90.5974C136.552 90.2549 136.33 89.8001 136.285 89.233L137.262 89.1164C137.307 89.4773 137.445 89.7611 137.673 89.9676C137.905 90.1745 138.225 90.3039 138.634 90.3558C139.099 90.4148 139.48 90.3629 139.779 90.2003C140.08 90.0353 140.249 89.8132 140.284 89.5342C140.313 89.3088 140.258 89.1099 140.119 88.9377C139.981 88.7627 139.753 88.6164 139.436 88.4988L138.386 88.1079C137.809 87.8915 137.4 87.6177 137.159 87.2864C136.92 86.9526 136.83 86.5616 136.887 86.1135C136.933 85.7471 137.077 85.4361 137.319 85.1804C137.563 84.925 137.874 84.7397 138.252 84.6244C138.634 84.5096 139.052 84.4811 139.509 84.539C140.152 84.6205 140.638 84.8254 140.969 85.1537C141.302 85.4824 141.517 85.8877 141.614 86.3696ZM144.088 87.8346L143.592 91.7408L142.594 91.6142L143.693 82.9564L144.69 83.0829L144.287 86.262L144.372 86.2727C144.566 85.9567 144.829 85.7193 145.158 85.5606C145.491 85.3995 145.912 85.3513 146.422 85.416C146.864 85.4721 147.241 85.6101 147.551 85.8298C147.861 86.0467 148.085 86.3486 148.222 86.7354C148.362 87.1197 148.397 87.5909 148.326 88.149L147.803 92.275L146.805 92.1484L147.32 88.09C147.385 87.5743 147.302 87.1585 147.07 86.8427C146.841 86.5244 146.491 86.3355 146.021 86.2757C145.694 86.2343 145.392 86.2661 145.115 86.3713C144.841 86.4769 144.613 86.6527 144.43 86.8986C144.25 87.145 144.136 87.457 144.088 87.8346ZM152.249 92.9765C151.662 92.9021 151.166 92.6973 150.759 92.3622C150.354 92.0274 150.06 91.5934 149.876 91.0603C149.694 90.5275 149.646 89.9258 149.731 89.255C149.817 88.5786 150.014 88.0037 150.324 87.5304C150.636 87.0574 151.029 86.7092 151.504 86.486C151.982 86.2631 152.514 86.1888 153.1 86.2632C153.687 86.3376 154.182 86.5422 154.586 86.877C154.993 87.2121 155.287 87.6475 155.468 88.183C155.652 88.719 155.702 89.3252 155.616 90.0016C155.531 90.6723 155.332 91.2428 155.021 91.713C154.712 92.1836 154.318 92.5303 153.841 92.7531C153.366 92.9764 152.835 93.0508 152.249 92.9765ZM152.362 92.0802C152.808 92.1367 153.189 92.0691 153.505 91.8772C153.821 91.6854 154.072 91.4123 154.258 91.0578C154.443 90.7033 154.563 90.309 154.618 89.875C154.673 89.441 154.655 89.0278 154.565 88.6354C154.474 88.2431 154.3 87.9131 154.042 87.6455C153.784 87.378 153.432 87.2159 152.987 87.1594C152.541 87.103 152.16 87.172 151.844 87.3667C151.527 87.5613 151.276 87.8373 151.09 88.1946C150.904 88.5519 150.784 88.9476 150.729 89.3816C150.674 89.8156 150.692 90.2274 150.783 90.6169C150.873 91.0065 151.048 91.3336 151.307 91.5984C151.565 91.8631 151.917 92.0237 152.362 92.0802ZM156.731 93.4076L157.555 86.9142L158.519 87.0365L158.394 88.0173L158.462 88.0259C158.621 87.7196 158.868 87.4861 159.204 87.3253C159.539 87.1645 159.901 87.1088 160.29 87.1582C160.364 87.1675 160.455 87.1805 160.565 87.1972C160.674 87.214 160.757 87.2288 160.812 87.2416L160.684 88.2562C160.651 88.2434 160.575 88.2209 160.456 88.1886C160.34 88.1539 160.216 88.1281 160.083 88.1113C159.768 88.0713 159.478 88.1017 159.213 88.2027C158.951 88.3013 158.734 88.457 158.561 88.6698C158.391 88.8802 158.287 89.132 158.25 89.4251L157.729 93.5342L156.731 93.4076ZM165.215 87.886L165.108 88.7315L161.743 88.3046L161.85 87.4591L165.215 87.886ZM163.028 86.0278L164.026 86.1544L163.241 92.3434C163.205 92.6253 163.219 92.8418 163.283 92.9931C163.35 93.1419 163.445 93.2485 163.569 93.3129C163.695 93.3748 163.832 93.415 163.979 93.4336C164.089 93.4476 164.179 93.4534 164.251 93.451C164.324 93.4459 164.381 93.4417 164.425 93.4387L164.514 94.3606C164.443 94.3774 164.345 94.3908 164.221 94.4008C164.096 94.4136 163.941 94.4082 163.755 94.3846C163.473 94.3489 163.205 94.2532 162.949 94.0977C162.697 93.9426 162.498 93.7297 162.352 93.4592C162.208 93.189 162.161 92.8651 162.209 92.4874L163.028 86.0278ZM168.128 86.0562L167.029 94.7141L166.032 94.5875L167.13 85.9296L168.128 86.0562ZM168.857 94.9459L169.68 88.4525L170.678 88.5791L169.854 95.0725L168.857 94.9459ZM170.325 87.4346C170.13 87.4099 169.971 87.3224 169.847 87.1721C169.726 87.0221 169.677 86.8541 169.701 86.6681C169.724 86.4821 169.813 86.3316 169.968 86.2167C170.126 86.1021 170.302 86.0571 170.497 86.0818C170.691 86.1065 170.849 86.1938 170.97 86.3438C171.094 86.4941 171.145 86.6623 171.121 86.8483C171.097 87.0343 171.007 87.1846 170.849 87.2992C170.694 87.4141 170.519 87.4593 170.325 87.4346ZM176.92 90.8486L175.992 90.9886C175.955 90.8321 175.89 90.6764 175.798 90.5215C175.709 90.3642 175.577 90.2272 175.403 90.1106C175.229 89.994 174.997 89.9173 174.706 89.8805C174.309 89.8301 173.966 89.8797 173.678 90.0292C173.393 90.1764 173.233 90.3894 173.198 90.6684C173.166 90.9165 173.231 91.1238 173.394 91.2904C173.556 91.457 173.822 91.6125 174.193 91.757L175.127 92.116C175.69 92.3306 176.095 92.601 176.343 92.9274C176.591 93.251 176.687 93.6397 176.629 94.0934C176.582 94.4655 176.433 94.7844 176.181 95.0504C175.933 95.3167 175.607 95.5102 175.205 95.631C174.804 95.7519 174.35 95.7803 173.846 95.7163C173.184 95.6323 172.654 95.419 172.256 95.0765C171.858 94.7339 171.637 94.2792 171.592 93.7121L172.568 93.5955C172.614 93.9564 172.752 94.2401 172.98 94.4467C173.212 94.6536 173.532 94.783 173.94 94.8348C174.405 94.8938 174.787 94.842 175.086 94.6794C175.387 94.5144 175.556 94.2923 175.591 94.0133C175.62 93.7878 175.565 93.589 175.426 93.4168C175.288 93.2418 175.06 93.0955 174.743 92.9779L173.693 92.587C173.116 92.3706 172.707 92.0968 172.466 91.7654C172.227 91.4317 172.137 91.0407 172.193 90.5926C172.24 90.2262 172.384 89.9152 172.625 89.6594C172.87 89.4041 173.181 89.2188 173.559 89.1035C173.94 88.9886 174.359 88.9602 174.816 89.0181C175.458 89.0996 175.945 89.3045 176.276 89.6328C176.609 89.9615 176.824 90.3668 176.92 90.8486ZM181.549 89.9582L181.442 90.8037L178.077 90.3768L178.184 89.5313L181.549 89.9582ZM179.362 88.1L180.36 88.2265L179.575 94.4156C179.539 94.6974 179.553 94.914 179.617 95.0652C179.684 95.2141 179.779 95.3207 179.903 95.385C180.029 95.4469 180.166 95.4872 180.313 95.5058C180.423 95.5197 180.513 95.5255 180.585 95.5232C180.658 95.518 180.715 95.5139 180.759 95.5108L180.848 96.4328C180.777 96.4496 180.679 96.4629 180.555 96.4729C180.43 96.4857 180.275 96.4803 180.089 96.4568C179.807 96.421 179.539 96.3254 179.283 96.1699C179.031 96.0147 178.832 95.8019 178.686 95.5313C178.542 95.2611 178.495 94.9372 178.543 94.5596L179.362 88.1ZM184.862 97.1138C184.236 97.0344 183.714 96.8278 183.295 96.4941C182.879 96.1579 182.581 95.7248 182.399 95.1948C182.22 94.6624 182.173 94.0636 182.257 93.3985C182.342 92.7334 182.537 92.1626 182.844 91.686C183.154 91.207 183.545 90.8529 184.018 90.6236C184.494 90.392 185.026 90.3133 185.612 90.3877C185.95 90.4306 186.277 90.5293 186.592 90.6839C186.908 90.8384 187.185 91.0597 187.423 91.3477C187.662 91.6328 187.835 91.9927 187.943 92.4274C188.051 92.8621 188.067 93.3824 187.99 93.9883L187.936 94.4111L182.931 93.7761L183.04 92.9137L187.031 93.42C187.078 93.0536 187.046 92.7174 186.936 92.4113C186.829 92.1056 186.652 91.8526 186.405 91.6524C186.161 91.4525 185.859 91.3297 185.498 91.2839C185.101 91.2335 184.744 91.2885 184.429 91.449C184.117 91.6069 183.863 91.8325 183.669 92.1257C183.474 92.4189 183.354 92.7444 183.309 93.1023L183.236 93.6773C183.173 94.1677 183.205 94.5941 183.331 94.9566C183.46 95.3166 183.666 95.6047 183.947 95.8208C184.23 96.0342 184.572 96.1664 184.975 96.2175C185.237 96.2508 185.479 96.2442 185.699 96.1977C185.923 96.1488 186.122 96.0595 186.296 95.9298C186.47 95.7973 186.614 95.6236 186.727 95.4089L187.657 95.8017C187.514 96.1158 187.307 96.3816 187.036 96.5992C186.765 96.814 186.445 96.9681 186.075 97.0616C185.706 97.1521 185.301 97.1695 184.862 97.1138ZM191.52 97.9585C190.979 97.8898 190.518 97.6925 190.139 97.3666C189.76 97.0378 189.485 96.6078 189.314 96.0764C189.145 95.5423 189.103 94.9314 189.19 94.2437C189.277 93.5617 189.469 92.9847 189.767 92.5127C190.064 92.0407 190.439 91.6945 190.891 91.474C191.342 91.2535 191.842 91.178 192.388 91.2474C192.811 91.301 193.136 91.4138 193.364 91.5858C193.594 91.7554 193.763 91.9372 193.87 92.1312C193.98 92.3227 194.065 92.4795 194.124 92.6015L194.208 92.6123L194.614 89.4163L195.612 89.5428L194.513 98.2007L193.549 98.0785L193.676 97.0808L193.558 97.0658C193.469 97.1748 193.346 97.311 193.188 97.4742C193.03 97.6346 192.817 97.7693 192.548 97.8784C192.28 97.9847 191.937 98.0114 191.52 97.9585ZM191.769 97.0794C192.169 97.1302 192.52 97.0688 192.823 96.8953C193.126 96.7189 193.373 96.4539 193.564 96.1001C193.755 95.7435 193.882 95.32 193.944 94.8296C194.006 94.3449 193.989 93.9118 193.894 93.5303C193.8 93.1461 193.627 92.8349 193.377 92.597C193.127 92.3562 192.799 92.2101 192.393 92.1586C191.97 92.105 191.604 92.1688 191.295 92.35C190.989 92.5288 190.742 92.7939 190.554 93.1452C190.369 93.4941 190.248 93.8968 190.19 94.3534C190.132 94.8156 190.149 95.2444 190.242 95.64C190.338 96.033 190.511 96.3586 190.762 96.6166C191.016 96.8722 191.352 97.0265 191.769 97.0794Z" fill="white"/>
<g clip-path="url(#clip0_174_59)">
<path d="M39.7417 55.5091C38.6085 55.3679 37.4607 55.612 36.4831 56.2022C35.5054 56.7924 34.7548 57.6943 34.3519 58.7629L24.226 57.4783C23.3803 57.3717 22.5268 57.6051 21.853 58.1272C21.1792 58.6493 20.7401 59.4174 20.6321 60.263L19.5732 68.6101C19.4666 69.4558 19.7 70.3093 20.2221 70.9831C20.7442 71.6569 21.5123 72.096 22.3579 72.204L36.9053 74.0495C37.7511 74.1561 38.6045 73.9227 39.2783 73.4006C39.9521 72.8785 40.3912 72.1104 40.4992 71.2648L41.2774 65.1304C42.2698 64.6606 43.0831 63.8817 43.5951 62.9104C44.1072 61.9392 44.2905 60.8281 44.1174 59.7439C43.9444 58.6596 43.4243 57.6608 42.6353 56.8972C41.8464 56.1336 40.831 55.6466 39.7417 55.5091ZM38.5949 72.929L32.5454 66.2671C31.9219 66.6656 31.1786 66.8332 30.4444 66.7407C29.7103 66.6483 29.0316 66.3017 28.5264 65.7611L21.1172 70.8102C20.924 70.6315 20.7604 70.4234 20.6323 70.1935L27.9974 65.1821L22.1968 58.8549L22.8652 58.4278L22.8691 58.4283L29.0667 65.1957C29.4502 65.6198 29.973 65.8925 30.5402 65.9645C31.1075 66.0364 31.6818 65.9029 32.1591 65.588L35.1031 63.6738C35.2651 63.8831 35.4445 64.0784 35.6393 64.2576L33.2105 65.8356L39.1841 72.4131C39.0163 72.6152 38.8174 72.7894 38.5949 72.929ZM38.5618 64.8095C37.7188 64.7026 36.9263 64.348 36.2848 63.7907C35.6432 63.2334 35.1813 62.4983 34.9574 61.6785C34.7336 60.8586 34.7579 59.9908 35.0273 59.1848C35.2967 58.3788 35.799 57.6708 36.4708 57.1502C37.1426 56.6297 37.9536 56.3201 38.8014 56.2605C39.6491 56.2009 40.4955 56.3941 41.2335 56.8155C41.9715 57.237 42.5679 57.8678 42.9474 58.6282C43.3268 59.3886 43.4723 60.2445 43.3653 61.0876C43.2212 62.2178 42.6344 63.2446 41.7337 63.9425C40.8331 64.6404 39.6923 64.9522 38.5618 64.8095Z" fill="#D3D3D3"/>
<path d="M40.0156 57.5125L38.3802 57.3051C38.0364 57.2615 37.6894 57.3562 37.4155 57.5685C37.1415 57.7807 36.9632 58.0931 36.9195 58.4369C36.8759 58.7807 36.9707 59.1277 37.1829 59.4016C37.3952 59.6756 37.7076 59.854 38.0513 59.8976L38.2102 59.9177L37.8676 62.6187C37.824 62.9625 37.9187 63.3096 38.131 63.5835C38.3432 63.8574 38.6556 64.0358 38.9994 64.0794C39.3432 64.123 39.6902 64.0283 39.9641 63.816C40.2381 63.6038 40.4165 63.2914 40.4601 62.9476L40.99 58.7702C41.0275 58.4742 40.9459 58.1755 40.7631 57.9396C40.5804 57.7038 40.3115 57.5502 40.0156 57.5125Z" fill="#D3D3D3"/>
</g>
</g>
<defs>
<filter id="filter0_b_174_59" x="6.45703" y="40.3795" width="201.628" height="69.3431" filterUnits="userSpaceOnUse" color-interpolation-filters="sRGB">
<feFlood flood-opacity="0" result="BackgroundImageFix"/>
<feGaussianBlur in="BackgroundImageFix" stdDeviation="2"/>
<feComposite in2="SourceAlpha" operator="in" result="effect1_backgroundBlur_174_59"/>
<feBlend mode="normal" in="SourceGraphic" in2="effect1_backgroundBlur_174_59" result="shape"/>
</filter>
<linearGradient id="paint0_linear_174_59" x1="110.513" y1="43.437" x2="110.513" y2="82.7988" gradientUnits="userSpaceOnUse">
<stop stop-color="#CCCCCC"/>
<stop offset="1" stop-color="#5F5F5F"/>
</linearGradient>
<clipPath id="clip0_174_59">
<rect width="25" height="25" fill="white" transform="translate(21.1465 50) rotate(7.23)"/>
</clipPath>
</defs>
</svg>
