<svg width="75" height="75" viewBox="0 0 75 75" fill="none" xmlns="http://www.w3.org/2000/svg">
<path d="M65.4832 63.5168L51.924 49.9583C55.6658 45.6735 57.9375 40.0725 57.9375 33.9375C57.9375 20.4757 47.0265 9.5625 33.5625 9.5625C20.0985 9.5625 9.1875 20.4757 9.1875 33.9375C9.1875 47.3993 20.0985 58.3125 33.5625 58.3125C40.08 58.3125 45.9945 55.7497 50.3685 51.5835L63.8918 65.1075C64.1115 65.3272 64.3995 65.4368 64.6875 65.4368C64.9755 65.4368 65.2635 65.3272 65.4832 65.1075C65.922 64.6687 65.922 63.9563 65.4832 63.5168ZM33.5625 56.0625C21.3622 56.0625 11.4375 46.1377 11.4375 33.9375C11.4375 21.7372 21.3622 11.8125 33.5625 11.8125C45.7627 11.8125 55.6875 21.7372 55.6875 33.9375C55.6875 46.1377 45.7627 56.0625 33.5625 56.0625Z" fill="black"/>
<path d="M38.1356 32.9325C40.1966 31.491 41.5496 29.1045 41.5496 26.4038C41.5496 22.011 37.9751 18.4373 33.5816 18.4373C29.1889 18.4373 25.6151 22.011 25.6151 26.4038C25.6151 29.1045 26.9681 31.491 29.0291 32.9325C23.8556 34.8045 20.1416 39.7515 20.1416 45.5625C20.1416 46.1835 20.6456 46.6875 21.2666 46.6875H29.3119H38.3366H45.8981C46.5191 46.6875 47.0231 46.1835 47.0231 45.5625C47.0224 39.7515 43.3083 34.8045 38.1356 32.9325ZM34.0278 36.4785H33.2516L32.3261 34.449C32.7394 34.4025 33.1564 34.3718 33.5816 34.3718C34.1036 34.3718 34.6136 34.419 35.1169 34.4888L34.0278 36.4785ZM27.8644 26.4038C27.8644 23.2515 30.4286 20.6873 33.5809 20.6873C36.7339 20.6873 39.2988 23.2515 39.2988 26.4038C39.2988 29.5568 36.7339 32.1218 33.5809 32.1218C30.4286 32.1218 27.8644 29.5568 27.8644 26.4038ZM22.4471 44.4375C22.8941 39.9863 25.9639 36.306 30.0806 34.9448L31.3466 37.7243L29.8226 44.4375H22.4471ZM32.1296 44.4375L33.4264 38.7285H33.8359L35.3921 44.4375H32.1296ZM37.7239 44.4375L35.8999 37.7445L37.3766 35.0445C41.3449 36.4815 44.2803 40.092 44.7169 44.4368L37.7239 44.4375Z" fill="black"/>
</svg>
