<svg width="75" height="75" viewBox="0 0 75 75" fill="none" xmlns="http://www.w3.org/2000/svg">
<path fill-rule="evenodd" clip-rule="evenodd" d="M15.9625 15.2094C18.2031 14.9062 20.9469 14.8531 24.2469 14.8469C24.4429 12.2952 25.5951 9.9116 27.4729 8.17283C29.3508 6.43406 31.8158 5.46831 34.375 5.46875H40.625C43.1832 5.46904 45.647 6.4347 47.5241 8.17274C49.4012 9.91078 50.5532 12.2932 50.75 14.8438C54.0531 14.8531 56.7969 14.9062 59.0375 15.2094C61.85 15.5844 64.2188 16.3969 66.1 18.275C67.9813 20.1562 68.7875 22.525 69.1688 25.3375C69.5312 28.0469 69.5312 31.4937 69.5312 35.7656V48.6094C69.5312 52.8813 69.5312 56.3281 69.1688 59.0375C68.7875 61.85 67.9813 64.2188 66.1 66.1C64.2188 67.9813 61.85 68.7875 59.0375 69.1688C56.3281 69.5312 52.8813 69.5312 48.6094 69.5312H26.3906C22.1187 69.5312 18.6719 69.5312 15.9625 69.1688C13.15 68.7875 10.7812 67.9813 8.9 66.1C7.01875 64.2188 6.2125 61.85 5.83437 59.0375C5.46875 56.3281 5.46875 52.8813 5.46875 48.6094V35.7656C5.46875 31.4937 5.46875 28.0469 5.83437 25.3375C6.20937 22.525 7.02188 20.1562 8.9 18.275C10.7812 16.3938 13.15 15.5875 15.9625 15.2094ZM46.0375 14.8438H28.9625C29.1504 13.5422 29.8009 12.352 30.795 11.4911C31.789 10.6302 33.06 10.1563 34.375 10.1562H40.625C41.94 10.1563 43.211 10.6302 44.205 11.4911C45.1991 12.352 45.8496 13.5422 46.0375 14.8438ZM16.5875 64.5219C14.2937 64.2125 13.0812 63.6469 12.2156 62.7844C11.35 61.9187 10.7875 60.7062 10.4781 58.4094C10.1625 56.05 10.1562 52.9219 10.1562 48.4375V37.9062C21.6812 42.7438 28.4125 45.3875 35.5 45.7188C36.8312 45.7812 38.1688 45.7812 39.5 45.7188C46.5875 45.3875 53.3187 42.7438 64.8438 37.9062V48.4375C64.8438 52.9219 64.8375 56.05 64.5219 58.4125C64.2125 60.7062 63.6469 61.9187 62.7844 62.7844C61.9187 63.65 60.7062 64.2125 58.4094 64.5219C56.05 64.8375 52.9219 64.8438 48.4375 64.8438H26.5625C22.0781 64.8438 18.9469 64.8375 16.5875 64.5219ZM64.8375 32.8219C51.9469 38.2438 45.7469 40.7344 39.2812 41.0344C38.0938 41.0906 36.9062 41.0906 35.7188 41.0344C29.25 40.7344 23.0531 38.2438 10.1625 32.8219C10.1781 29.9375 10.2406 27.7344 10.4781 25.9625C10.7875 23.6687 11.3531 22.4562 12.2156 21.5906C13.0812 20.725 14.2937 20.1625 16.5906 19.8531C18.9469 19.5375 22.0781 19.5312 26.5625 19.5312H48.4375C52.9219 19.5312 56.05 19.5375 58.4125 19.8531C60.7062 20.1625 61.9187 20.7281 62.7844 21.5906C63.65 22.4562 64.2125 23.6688 64.5219 25.9656C64.7594 27.7344 64.8219 29.9344 64.8375 32.8219Z" fill="black"/>
</svg>
